<?xml version="1.0" encoding="UTF-8"?>
<svg version="1.1" xmlns="http://www.w3.org/2000/svg" width="769" height="718">
<path d="M0 0 C253.77 0 507.54 0 769 0 C769 236.94 769 473.88 769 718 C515.23 718 261.46 718 0 718 C0 481.06 0 244.12 0 0 Z " fill="#002147" transform="translate(0,0)"/>
<path d="M0 0 C1.17115356 -0.03927612 1.17115356 -0.03927612 2.3659668 -0.0793457 C17.88294075 -0.12155813 33.03938253 6.53260969 47.375 11.8125 C49.41969112 12.55900303 51.46453583 13.30508545 53.50952148 14.05078125 C73.10959558 21.2151622 92.64130093 28.56451061 112.17272949 35.91345215 C125.59930258 40.96490125 139.04115841 45.97270062 152.5 50.9375 C154.34147574 51.61725699 156.1829471 52.29702588 158.02441406 52.97680664 C166.08332039 55.9508837 174.1434194 58.92171378 182.20458984 61.88964844 C188.19435467 64.09516703 194.18279764 66.30424739 200.17059326 68.5151062 C202.46198937 69.36040672 204.75383772 70.20448264 207.04620361 71.04714966 C214.50246987 73.78823383 221.94612967 76.56048031 229.375 79.375 C230.50258728 79.801297 231.63017456 80.22759399 232.79193115 80.66680908 C236.1943088 81.96162528 239.58831519 83.27631474 242.98046875 84.59765625 C244.51988884 85.18225868 244.51988884 85.18225868 246.09040833 85.77867126 C256.2097943 89.77133021 265.72968991 95.9407767 270.6640625 106.00390625 C271.65063609 108.44194962 272.55011596 110.87817358 273.375 113.375 C273.705 114.365 274.035 115.355 274.375 116.375 C276.17277796 129.20170135 275.51906516 142.42019808 275.5078125 155.33203125 C275.50866655 157.29708133 275.50952763 159.26213144 275.51086229 161.22718126 C275.51663234 169.80062 275.51031817 178.37403205 275.50200987 186.94746685 C275.49933168 189.93234891 275.49749451 192.91723122 275.49567896 195.90211391 C275.4819422 218.22109104 275.44009252 240.53996434 275.38157177 262.85886669 C275.37497237 265.38557852 275.3685266 267.91229072 275.36209869 270.43900299 C275.31042816 290.55984178 275.24221532 310.6805209 275.13607025 330.80115223 C275.12755496 332.41580516 275.11904309 334.03045811 275.11053467 335.64511108 C275.10423538 336.83743384 275.10423538 336.83743384 275.09780884 338.05384392 C275.06895008 343.64612146 275.04749287 349.23839809 275.02911377 354.83071899 C275.00649226 361.66074848 274.97326944 368.49062772 274.92649907 375.3205362 C274.90283749 378.81035658 274.88373923 382.30003571 274.87735176 385.78993416 C274.86776464 389.58658629 274.83986364 393.38268371 274.80737305 397.17919922 C274.80880877 398.27639188 274.81024448 399.37358454 274.81172371 400.50402546 C274.69824616 409.8124624 273.17116271 417.87408355 267.375 425.375 C266.64023437 426.33792969 265.90546875 427.30085938 265.1484375 428.29296875 C262.49384855 431.44656239 259.48297767 433.4918865 255.875 435.4375 C255.19542236 435.81124756 254.51584473 436.18499512 253.81567383 436.57006836 C243.97002604 441.83516038 233.66412085 446.18011761 223.45353699 450.67880249 C216.51620029 453.74162312 209.62396424 456.90099072 202.73275757 460.06591797 C189.26545241 466.25010298 175.7681015 472.36521156 162.25 478.4375 C150.15515686 483.87078607 138.0675822 489.31891118 126 494.8125 C100.61780032 506.36366667 75.22968218 517.90336164 49.76528931 529.27249146 C48.23866214 529.95455718 46.71258004 530.63784446 45.18710327 531.32247925 C21.1447739 542.10654965 -2.82157494 548.33414967 -28.625 539.375 C-38.78610293 535.41631433 -48.71384624 530.91613727 -58.625 526.375 C-59.86636719 525.81063232 -59.86636719 525.81063232 -61.1328125 525.23486328 C-65.31987084 523.32853639 -69.47752705 521.36578702 -73.625 519.375 C-88.87139065 512.06919442 -104.24833137 505.06734746 -119.64659119 498.08937073 C-125.50290506 495.43396381 -131.34645333 492.75131024 -137.1875 490.0625 C-148.44915024 484.88650807 -159.75353247 479.8063976 -171.05813599 474.72515869 C-188.92461437 466.69445818 -206.77959639 458.63875258 -224.61767578 450.54515076 C-228.91726995 448.59596502 -233.22139147 446.6578576 -237.53497314 444.73982239 C-239.2525861 443.97545203 -240.96813469 443.20644798 -242.68359375 442.43725586 C-244.62796684 441.56553891 -246.57553769 440.70089185 -248.52734375 439.84594727 C-259.81772048 434.75465507 -268.4577685 427.60923073 -273 415.8125 C-275.81737189 407.76461594 -275.77134466 399.53456567 -275.75871277 391.11180115 C-275.76097833 389.99665589 -275.76324388 388.88151063 -275.76557809 387.73257309 C-275.77189459 384.00586819 -275.77109023 380.27919988 -275.77026367 376.55249023 C-275.77325668 373.87617355 -275.77663144 371.19985971 -275.78044128 368.52354431 C-275.78873112 362.01311153 -275.7914954 355.50268781 -275.79205366 348.9922502 C-275.79252975 343.69556217 -275.79458914 338.39887711 -275.79775429 333.10219002 C-275.80655744 318.06295585 -275.81117436 303.02372881 -275.81042381 287.98449206 C-275.81038386 287.17451935 -275.8103439 286.36454664 -275.81030273 285.5300293 C-275.81024141 284.31357463 -275.81024141 284.31357463 -275.81017885 283.07254512 C-275.8097728 269.94319309 -275.81933291 256.8138698 -275.8334411 243.68452608 C-275.8478353 230.18168016 -275.85470957 216.67884823 -275.85384732 203.17599446 C-275.85351633 195.60402116 -275.85622008 188.03207797 -275.86702538 180.46011162 C-275.87617067 174.0103585 -275.87827288 167.56064912 -275.87151595 161.11089229 C-275.86827053 157.82598612 -275.86922752 154.54118029 -275.8768692 151.25627899 C-275.95466463 115.48132605 -275.95466463 115.48132605 -269.625 104.375 C-269.068125 103.364375 -268.51125 102.35375 -267.9375 101.3125 C-259.98472444 91.21032563 -250.27488105 87.01020022 -238.625 82.375 C-237.89458496 82.08222168 -237.16416992 81.78944336 -236.41162109 81.48779297 C-221.62886979 75.61374247 -206.60447521 70.33119911 -191.66113281 64.88256836 C-182.00019017 61.35779 -172.35913392 57.79355877 -162.76725769 54.08403015 C-157.38862843 52.0163784 -151.97531252 50.0830746 -146.52734375 48.20703125 C-136.01314795 44.55461264 -125.59230174 40.66771077 -115.17321777 36.75372314 C-95.95392844 29.53881893 -76.69093163 22.45195512 -57.375 15.5 C-56.33172546 15.12386566 -55.28845093 14.74773132 -54.21356201 14.36019897 C-15.17341578 0.29403065 -15.17341578 0.29403065 0 0 Z " fill="#002147" transform="translate(388.625,72.625)"/>
<path d="M0 0 C3.18609282 0.32079653 5.87953535 1.85777926 8.71557617 3.27050781 C17.82548138 7.79557153 27.2200466 11.55512972 36.6875 15.25 C37.40600128 15.53050201 38.12450256 15.81100403 38.86477661 16.1000061 C41.8029318 17.24625631 44.74152467 18.39137287 47.68080139 19.53474426 C54.3451373 22.12860435 60.9879231 24.77467505 67.625 27.4375 C68.78612305 27.9025293 69.94724609 28.36755859 71.14355469 28.84667969 C77.48809487 31.38776062 83.83125682 33.93227669 90.17431641 36.47705078 C125.02121233 50.47782628 125.02121233 50.47782628 160 64.14404297 C178.99009027 71.44730626 197.8499069 79.06749821 216.59057617 86.98925781 C218.08531011 87.61629181 219.58474194 88.23239481 221.09106445 88.83105469 C232.38659069 93.38698179 238.73199469 104.75247431 243.54296875 115.421875 C249.93167111 131.98378962 249.28995819 149.09842121 249.25878906 166.56665039 C249.26150313 169.13052469 249.26506639 171.69439821 249.26940918 174.25827026 C249.27754276 180.464618 249.2764077 186.67090219 249.2705839 192.87725068 C249.26604839 197.92118158 249.26546261 202.96509893 249.26763153 208.0090313 C249.267938 208.72963589 249.26824446 209.45024049 249.26856022 210.19268159 C249.26919972 211.6569212 249.26984814 213.1211608 249.2705054 214.5854004 C249.27619097 228.27296502 249.26967684 241.96050273 249.25890467 255.64806294 C249.24995357 267.38542451 249.25153743 279.12274655 249.26074219 290.86010742 C249.27144664 304.51605248 249.27565983 318.1719741 249.26951766 331.82792276 C249.2688806 333.2837187 249.26825185 334.73951465 249.26763153 336.19531059 C249.2671687 337.26955613 249.2671687 337.26955613 249.26669653 338.3655036 C249.26497139 343.40632905 249.26788041 348.44713958 249.27259064 353.48796272 C249.2787865 360.2669977 249.27437291 367.04594634 249.26280212 373.82497787 C249.26015482 376.31387012 249.26092182 378.80276865 249.26532745 381.2916584 C249.27078085 384.68480455 249.26395125 388.07770971 249.25396729 391.47084045 C249.26065945 392.95258345 249.26065945 392.95258345 249.26748681 394.46426064 C249.23511863 400.12342014 248.86171648 404.89713921 245.875 409.875 C242.80865835 411.71480499 239.45708757 411.30997842 236 411 C232.5703125 409.96875 232.5703125 409.96875 229.125 408.5 C228.49207031 408.23372803 227.85914063 407.96745605 227.20703125 407.69311523 C225.13030655 406.81227145 223.06481413 405.90838568 221 405 C219.91090332 404.52651123 219.91090332 404.52651123 218.79980469 404.04345703 C209.96131727 400.19704265 201.19701106 396.19615777 192.47265625 392.09765625 C166.40227178 379.85275522 140.27924924 367.68306174 113.86328125 356.19921875 C113.18136719 355.90241211 112.49945313 355.60560547 111.796875 355.29980469 C109.97629716 354.50867761 108.15423605 353.7209662 106.33203125 352.93359375 C101.87729529 350.97176757 97.47498237 348.89757964 93.06677246 346.83407593 C85.666438 343.37136526 78.24209089 339.96190021 70.8125 336.5625 C70.07563965 336.2249469 69.3387793 335.8873938 68.57958984 335.53961182 C59.77855673 331.51003353 50.96042323 327.52307421 42.10546875 323.61328125 C41.29713089 323.2560347 40.48879303 322.89878815 39.65596008 322.53071594 C35.77086359 320.81487846 31.883267 319.10509072 27.99145508 317.40454102 C1.77668419 305.89660301 1.77668419 305.89660301 -3 295 C-5.29895154 281.63945635 -4.14833449 267.24358945 -4.14526367 253.74658203 C-4.14826007 251.10875819 -4.15163602 248.47093718 -4.15544128 245.83311462 C-4.16369225 239.44530365 -4.16649348 233.0575019 -4.16705366 226.66968603 C-4.16753096 221.47656544 -4.16959627 216.28344786 -4.17275429 211.09032822 C-4.18154144 196.33874474 -4.18617607 181.5871685 -4.18542381 166.83558239 C-4.18538386 166.04292614 -4.1853439 165.25026989 -4.18530273 164.43359375 C-4.18526185 163.63996169 -4.18522097 162.84632964 -4.18517885 162.02864812 C-4.18477172 149.14464882 -4.19436337 136.26067865 -4.2084411 123.37668778 C-4.22281108 110.1199919 -4.22971112 96.86331023 -4.22884732 83.60660636 C-4.22851584 76.17465663 -4.23124257 68.74273753 -4.24202538 61.31079483 C-4.25209128 54.32902794 -4.25178887 47.3473268 -4.24450874 40.36555672 C-4.24346266 37.80535729 -4.24582718 35.24515383 -4.2518692 32.68496132 C-4.25958781 29.18777599 -4.25494516 25.69081455 -4.24723816 22.19363403 C-4.25238172 21.18341631 -4.25752529 20.17319859 -4.26282471 19.13236821 C-4.19016322 4.19016322 -4.19016322 4.19016322 0 0 Z " fill="#002147" transform="translate(132,187)"/>
<path d="M0 0 C1.88525391 -0.05607422 1.88525391 -0.05607422 3.80859375 -0.11328125 C19.43035581 0.70837279 35.06630986 8.36173008 49.5 13.75 C52.01341069 14.68269937 54.52700166 15.61490106 57.04077148 16.54663086 C64.88577852 19.4567366 72.72461326 22.38328172 80.5625 25.3125 C81.84004254 25.78976671 83.1175897 26.26702105 84.3951416 26.7442627 C105.03302131 34.45473526 125.66200375 42.18920587 146.26953125 49.98046875 C159.20675464 54.86745539 172.17276018 59.62087974 185.26074219 64.09277344 C194.42489151 67.23305616 203.49456435 70.59497244 212.546875 74.04296875 C216.79070557 75.65722528 221.05171181 77.21247363 225.328125 78.73828125 C226.43397949 79.13789063 227.53983398 79.5375 228.67919922 79.94921875 C230.80698545 80.7170457 232.93871293 81.47406101 235.07470703 82.21875 C236.50339111 82.73888672 236.50339111 82.73888672 237.9609375 83.26953125 C238.80317871 83.56835205 239.64541992 83.86717285 240.51318359 84.17504883 C242.97104286 85.53925735 243.5780986 86.7253258 244.5625 89.3125 C235.12332382 93.32967349 225.58467728 97.06995717 216.02319336 100.78378296 C211.45822914 102.5570887 206.8952089 104.33538438 202.33203125 106.11328125 C201.41471222 106.47057816 200.49739319 106.82787506 199.55227661 107.19599915 C191.21477109 110.44481851 182.88644744 113.7166201 174.5625 117 C173.89629639 117.26274719 173.23009277 117.52549438 172.54370117 117.79620361 C169.86960196 118.85094766 167.19557831 119.90588278 164.521698 120.96118164 C159.85509512 122.80294266 155.18759653 124.64241761 150.51953125 126.48046875 C149.51610184 126.87557899 149.51610184 126.87557899 148.49240112 127.27867126 C147.13450147 127.81335533 145.77660149 128.34803856 144.41870117 128.88272095 C131.79739543 133.85280298 119.17929926 138.83099047 106.5625 143.8125 C91.18870867 149.88243629 75.81309341 155.94769904 60.43243408 162.00021362 C56.47794131 163.55686114 52.52501754 165.11742031 48.57327271 166.68103027 C46.63266013 167.44863687 44.6916485 168.21522481 42.75048828 168.98144531 C40.37572464 169.91902577 38.00164535 170.85834238 35.62841797 171.79980469 C7.06707321 183.06160482 -14.82335319 180.7743091 -42.8125 169.25 C-44.48037116 168.57569748 -46.1488388 167.90286864 -47.81787109 167.23144531 C-51.14599842 165.89119259 -54.47150115 164.54475064 -57.79492188 163.19287109 C-64.19571241 160.59376121 -70.6278964 158.07663703 -77.0625 155.5625 C-79.33085782 154.67220271 -81.59908869 153.78158191 -83.8671875 152.890625 C-88.14284642 151.2125641 -92.41896918 149.53569089 -96.6953125 147.859375 C-107.67397901 143.55344123 -118.64649419 139.23267925 -129.609375 134.88671875 C-130.60412842 134.49239655 -131.59888184 134.09807434 -132.6237793 133.69180298 C-133.63545166 133.29077362 -134.64712402 132.88974426 -135.68945312 132.4765625 C-154.50137841 125.01968949 -173.32777678 117.60447621 -192.19517517 110.28909302 C-192.89002518 110.01966888 -193.58487518 109.75024475 -194.30078125 109.47265625 C-194.98302261 109.20814667 -195.66526398 108.94363708 -196.36817932 108.67111206 C-204.64806027 105.45852296 -212.91233189 102.20628113 -221.17480469 98.94921875 C-222.20895508 98.541875 -223.24310547 98.13453125 -224.30859375 97.71484375 C-225.30358887 97.31894043 -226.29858398 96.92303711 -227.32373047 96.51513672 C-229.55888947 95.6518473 -231.81025032 94.83007263 -234.07080078 94.03564453 C-235.25528809 93.6126709 -236.43977539 93.18969727 -237.66015625 92.75390625 C-238.74176025 92.38080322 -239.82336426 92.0077002 -240.93774414 91.62329102 C-243.4375 90.3125 -243.4375 90.3125 -244.09373474 88.23057556 C-244.26389854 87.28112816 -244.26389854 87.28112816 -244.4375 86.3125 C-237.61605152 82.67840933 -230.58058911 80.03582585 -223.31640625 77.41796875 C-222.02693342 76.94932738 -220.73762027 76.48024644 -219.44845581 76.01075745 C-216.71686976 75.01696755 -213.98423986 74.02612791 -211.2507019 73.03771973 C-206.9643404 71.48783197 -202.68034711 69.93147337 -198.39672852 68.37402344 C-193.39368639 66.555451 -188.39013454 64.73829703 -183.3857832 62.92333031 C-173.36902995 59.29037968 -163.36004941 55.63641048 -153.35510254 51.97106934 C-150.88241063 51.06521483 -148.40950172 50.1599552 -145.93652344 49.25488281 C-142.13677717 47.86418573 -138.33719893 46.47303055 -134.53771973 45.081604 C-132.5053279 44.33733869 -130.47288485 43.59321342 -128.44042969 42.84912109 C-114.34791184 37.68937895 -100.26039606 32.51605858 -86.17715454 27.33105469 C-84.56439584 26.73731907 -82.95158288 26.14373084 -81.3387146 25.55029297 C-72.48415874 22.2918972 -63.63579067 19.01809136 -54.80078125 15.70703125 C-53.23203624 15.12022309 -51.66327026 14.53347099 -50.09448242 13.94677734 C-47.18007983 12.85677521 -44.26778983 11.76138337 -41.35668945 10.66259766 C-34.5566321 8.10965249 -27.73131871 5.69309505 -20.8046875 3.50390625 C-20.15396271 3.29660385 -19.50323792 3.08930145 -18.83279419 2.87571716 C-12.53021024 0.92556662 -6.58565018 0.12600942 0 0 Z " fill="#002147" transform="translate(388.4375,87.6875)"/>
<path d="M0 0 C1.17115356 -0.03927612 1.17115356 -0.03927612 2.3659668 -0.0793457 C17.88294075 -0.12155813 33.03938253 6.53260969 47.375 11.8125 C49.41969112 12.55900303 51.46453583 13.30508545 53.50952148 14.05078125 C73.10959558 21.2151622 92.64130093 28.56451061 112.17272949 35.91345215 C125.59930258 40.96490125 139.04115841 45.97270062 152.5 50.9375 C154.34147574 51.61725699 156.1829471 52.29702588 158.02441406 52.97680664 C166.08332039 55.9508837 174.1434194 58.92171378 182.20458984 61.88964844 C188.19435467 64.09516703 194.18279764 66.30424739 200.17059326 68.5151062 C202.46198937 69.36040672 204.75383772 70.20448264 207.04620361 71.04714966 C214.50246987 73.78823383 221.94612967 76.56048031 229.375 79.375 C230.50258728 79.801297 231.63017456 80.22759399 232.79193115 80.66680908 C236.1943088 81.96162528 239.58831519 83.27631474 242.98046875 84.59765625 C244.51988884 85.18225868 244.51988884 85.18225868 246.09040833 85.77867126 C256.2097943 89.77133021 265.72968991 95.9407767 270.6640625 106.00390625 C271.65063609 108.44194962 272.55011596 110.87817358 273.375 113.375 C273.705 114.365 274.035 115.355 274.375 116.375 C276.17277796 129.20170135 275.51906516 142.42019808 275.5078125 155.33203125 C275.50866655 157.29708133 275.50952763 159.26213144 275.51086229 161.22718126 C275.51663234 169.80062 275.51031817 178.37403205 275.50200987 186.94746685 C275.49933168 189.93234891 275.49749451 192.91723122 275.49567896 195.90211391 C275.4819422 218.22109104 275.44009252 240.53996434 275.38157177 262.85886669 C275.37497237 265.38557852 275.3685266 267.91229072 275.36209869 270.43900299 C275.31042816 290.55984178 275.24221532 310.6805209 275.13607025 330.80115223 C275.12755496 332.41580516 275.11904309 334.03045811 275.11053467 335.64511108 C275.10423538 336.83743384 275.10423538 336.83743384 275.09780884 338.05384392 C275.06895008 343.64612146 275.04749287 349.23839809 275.02911377 354.83071899 C275.00649226 361.66074848 274.97326944 368.49062772 274.92649907 375.3205362 C274.90283749 378.81035658 274.88373923 382.30003571 274.87735176 385.78993416 C274.86776464 389.58658629 274.83986364 393.38268371 274.80737305 397.17919922 C274.80880877 398.27639188 274.81024448 399.37358454 274.81172371 400.50402546 C274.69824616 409.8124624 273.17116271 417.87408355 267.375 425.375 C266.64023437 426.33792969 265.90546875 427.30085938 265.1484375 428.29296875 C262.49384855 431.44656239 259.48297767 433.4918865 255.875 435.4375 C255.19542236 435.81124756 254.51584473 436.18499512 253.81567383 436.57006836 C243.97002604 441.83516038 233.66412085 446.18011761 223.45353699 450.67880249 C216.51620029 453.74162312 209.62396424 456.90099072 202.73275757 460.06591797 C189.26545241 466.25010298 175.7681015 472.36521156 162.25 478.4375 C150.15515686 483.87078607 138.0675822 489.31891118 126 494.8125 C100.61780032 506.36366667 75.22968218 517.90336164 49.76528931 529.27249146 C48.23866214 529.95455718 46.71258004 530.63784446 45.18710327 531.32247925 C21.1447739 542.10654965 -2.82157494 548.33414967 -28.625 539.375 C-38.78610293 535.41631433 -48.71384624 530.91613727 -58.625 526.375 C-59.86636719 525.81063232 -59.86636719 525.81063232 -61.1328125 525.23486328 C-65.31987084 523.32853639 -69.47752705 521.36578702 -73.625 519.375 C-88.87139065 512.06919442 -104.24833137 505.06734746 -119.64659119 498.08937073 C-125.50290506 495.43396381 -131.34645333 492.75131024 -137.1875 490.0625 C-148.44915024 484.88650807 -159.75353247 479.8063976 -171.05813599 474.72515869 C-188.92461437 466.69445818 -206.77959639 458.63875258 -224.61767578 450.54515076 C-228.91726995 448.59596502 -233.22139147 446.6578576 -237.53497314 444.73982239 C-239.2525861 443.97545203 -240.96813469 443.20644798 -242.68359375 442.43725586 C-244.62796684 441.56553891 -246.57553769 440.70089185 -248.52734375 439.84594727 C-259.81772048 434.75465507 -268.4577685 427.60923073 -273 415.8125 C-275.81737189 407.76461594 -275.77134466 399.53456567 -275.75871277 391.11180115 C-275.76097833 389.99665589 -275.76324388 388.88151063 -275.76557809 387.73257309 C-275.77189459 384.00586819 -275.77109023 380.27919988 -275.77026367 376.55249023 C-275.77325668 373.87617355 -275.77663144 371.19985971 -275.78044128 368.52354431 C-275.78873112 362.01311153 -275.7914954 355.50268781 -275.79205366 348.9922502 C-275.79252975 343.69556217 -275.79458914 338.39887711 -275.79775429 333.10219002 C-275.80655744 318.06295585 -275.81117436 303.02372881 -275.81042381 287.98449206 C-275.81038386 287.17451935 -275.8103439 286.36454664 -275.81030273 285.5300293 C-275.81024141 284.31357463 -275.81024141 284.31357463 -275.81017885 283.07254512 C-275.8097728 269.94319309 -275.81933291 256.8138698 -275.8334411 243.68452608 C-275.8478353 230.18168016 -275.85470957 216.67884823 -275.85384732 203.17599446 C-275.85351633 195.60402116 -275.85622008 188.03207797 -275.86702538 180.46011162 C-275.87617067 174.0103585 -275.87827288 167.56064912 -275.87151595 161.11089229 C-275.86827053 157.82598612 -275.86922752 154.54118029 -275.8768692 151.25627899 C-275.95466463 115.48132605 -275.95466463 115.48132605 -269.625 104.375 C-269.068125 103.364375 -268.51125 102.35375 -267.9375 101.3125 C-259.98472444 91.21032563 -250.27488105 87.01020022 -238.625 82.375 C-237.89458496 82.08222168 -237.16416992 81.78944336 -236.41162109 81.48779297 C-221.62886979 75.61374247 -206.60447521 70.33119911 -191.66113281 64.88256836 C-182.00019017 61.35779 -172.35913392 57.79355877 -162.76725769 54.08403015 C-157.38862843 52.0163784 -151.97531252 50.0830746 -146.52734375 48.20703125 C-136.01314795 44.55461264 -125.59230174 40.66771077 -115.17321777 36.75372314 C-95.95392844 29.53881893 -76.69093163 22.45195512 -57.375 15.5 C-56.33172546 15.12386566 -55.28845093 14.74773132 -54.21356201 14.36019897 C-15.17341578 0.29403065 -15.17341578 0.29403065 0 0 Z M-47.31954956 28.02740479 C-54.48213085 30.70629527 -61.67687689 33.29379558 -68.87384033 35.87857056 C-81.93619127 40.57238256 -94.9773134 45.32228417 -108 50.125 C-108.77932892 50.41241058 -109.55865784 50.69982117 -110.36160278 50.99594116 C-118.77251768 54.09894803 -127.18055845 57.20969646 -135.58705139 60.32466125 C-140.24522803 62.05060149 -144.90382714 63.77539971 -149.5625 65.5 C-150.9683284 66.02063522 -150.9683284 66.02063522 -152.40255737 66.55178833 C-164.33784536 70.97009303 -176.28616944 75.35094963 -188.25 79.69140625 C-189.4840004 80.13921448 -190.71800079 80.58702271 -191.98939514 81.04840088 C-198.02071665 83.23627315 -204.05328726 85.42061804 -210.08764648 87.60009766 C-215.35923292 89.50618272 -220.62488842 91.42764631 -225.88446045 93.36663818 C-227.64215235 94.01336828 -229.40134945 94.65603055 -231.16241455 95.29351807 C-233.33455046 96.08244704 -235.49821433 96.8906667 -237.66015625 97.70703125 C-238.81008057 98.13346924 -239.96000488 98.55990723 -241.14477539 98.99926758 C-243.78883319 100.12537676 -243.78883319 100.12537676 -244.49780273 102.54174805 C-244.53977783 103.14672119 -244.58175293 103.75169434 -244.625 104.375 C-227.69549895 111.53218744 -210.56730021 118.1881322 -193.43344116 124.83636475 C-177.43602099 131.04479158 -161.47349681 137.33977848 -145.51664734 143.65161133 C-140.38830273 145.67961824 -135.25760599 147.70155397 -130.125 149.71875 C-116.00343531 155.26965723 -101.8968626 160.85528838 -87.8125 166.5 C-73.81043978 172.11087549 -59.79391954 177.6808492 -45.73779297 183.15527344 C-42.73710731 184.33107152 -39.74495226 185.52649215 -36.75390625 186.7265625 C-12.44564639 196.39077644 8.90082004 197.99623792 33.40512085 187.85186768 C35.41551172 187.01986867 37.43199639 186.20435075 39.45043945 185.39208984 C41.76089016 184.46220863 44.07090024 183.53135004 46.37919617 182.59613037 C57.01876383 178.28880975 67.71373487 174.1217817 78.40112305 169.93493652 C84.49281441 167.54753131 90.5823646 165.15468032 96.671875 162.76171875 C97.85394531 162.29726349 99.03601563 161.83280823 100.25390625 161.35427856 C114.17140115 155.88476808 128.07993061 150.39262271 141.98739624 144.89767456 C151.07249818 141.30853843 160.16109928 137.72827821 169.25073242 134.15063477 C175.38297706 131.73679756 181.51447544 129.32116595 187.64201355 126.895401 C190.44258271 125.78679456 193.24359504 124.67931166 196.04476929 123.57223511 C197.42201783 123.02786178 198.79915569 122.48320835 200.17617798 121.93826294 C207.71423028 118.95705167 215.26626745 116.0219681 222.859375 113.18359375 C223.54006042 112.92854065 224.22074585 112.67348755 224.92205811 112.41070557 C228.16291669 111.19732577 231.40638062 109.99199445 234.65527344 108.80029297 C235.7899707 108.3776416 236.92466797 107.95499023 238.09375 107.51953125 C239.09341797 107.15190674 240.09308594 106.78428223 241.12304688 106.40551758 C243.52929064 105.58910545 243.52929064 105.58910545 244.375 103.375 C241.16311919 99.59777552 237.74743113 98.08879494 233.1640625 96.52734375 C232.45305389 96.27466736 231.74204529 96.02199097 231.00949097 95.76165771 C228.67649988 94.93493209 226.33834078 94.1239564 224 93.3125 C222.35566517 92.73216219 220.71178985 92.15052084 219.06835938 91.56762695 C215.73740717 90.38675856 212.40491226 89.21041465 209.07128906 88.03710938 C202.65059908 85.77151795 196.26225597 83.42062352 189.875 81.0625 C181.26708255 77.89434485 172.65223656 74.74664131 164.02734375 71.625 C147.14763035 65.51348631 130.27731029 59.3880751 113.5 53 C97.07741669 46.75402209 80.63139162 40.57071714 64.17004204 34.42768669 C60.21438551 32.95145432 56.25963397 31.47291272 52.30718994 29.98809814 C48.53818362 28.57233009 44.76661806 27.1635915 40.99317932 25.7596817 C39.59400387 25.23784079 38.19569682 24.7136639 36.79838562 24.1868515 C4.92633785 12.1789533 -16.106627 16.33212402 -47.31954956 28.02740479 Z M-258.25 115.875 C-261.6994622 122.14674945 -260.76712374 130.6152403 -260.75198364 137.58918762 C-260.75354363 138.69898804 -260.75510362 139.80878846 -260.75671089 140.95221919 C-260.76069059 144.66062394 -260.75754294 148.36898754 -260.75439453 152.07739258 C-260.75574994 154.74049499 -260.7574946 157.40359459 -260.75970459 160.06669617 C-260.76414476 166.54370435 -260.76319348 173.02070092 -260.76029195 179.49770955 C-260.75803045 184.76487402 -260.75772863 190.03203524 -260.75881577 195.29920006 C-260.758969 196.04983844 -260.75912223 196.80047683 -260.75928011 197.57386183 C-260.75959985 199.09897052 -260.75992406 200.6240792 -260.7602527 202.14918789 C-260.76310251 216.44204236 -260.75982859 230.73489042 -260.75445233 245.02774384 C-260.74998749 257.27639299 -260.75075856 269.52503266 -260.75537109 281.77368164 C-260.76073039 296.01193116 -260.76282499 310.25017505 -260.75975883 324.48842543 C-260.7594403 326.0087345 -260.75912593 327.52904357 -260.75881577 329.04935265 C-260.75866149 329.7972829 -260.75850721 330.54521316 -260.75834826 331.31580797 C-260.75748697 336.57160685 -260.75893769 341.82740214 -260.76129532 347.08320045 C-260.76410868 353.49572939 -260.76332284 359.90824609 -260.75801457 366.32077364 C-260.75539783 369.58895498 -260.75488198 372.85711191 -260.75766373 376.12529373 C-260.76040733 379.67683642 -260.7569549 383.22832235 -260.75198364 386.77986145 C-260.75421436 387.80070117 -260.75644509 388.8215409 -260.75874341 389.87331516 C-261.17493357 404.41968632 -261.17493357 404.41968632 -255.625 417.375 C-247.82924606 424.22250567 -237.15673467 427.95614226 -227.8125 432.1875 C-226.04032347 432.99669003 -224.26843321 433.80650729 -222.49682617 434.61694336 C-217.54412901 436.87977589 -212.58540525 439.12912635 -207.625 441.375 C-206.48708008 441.89126953 -205.34916016 442.40753906 -204.17675781 442.93945312 C-199.39734069 445.10612222 -194.61140078 447.25757805 -189.81884766 449.39501953 C-185.75011013 451.21250367 -181.6881108 453.04498083 -177.625 454.875 C-172.6491191 457.11480004 -167.67287792 459.35378947 -162.6953125 461.58984375 C-151.40968702 466.6610556 -140.14107494 471.76882724 -128.87988281 476.89404297 C-123.2258914 479.46658362 -117.57068004 482.03644035 -111.9156189 484.60662842 C-108.36427211 486.22072236 -104.81299955 487.83497963 -101.26171875 489.44921875 C-99.81689488 490.1059578 -98.37207066 490.76269608 -96.92724609 491.41943359 C-92.68945312 493.34570312 -92.68945312 493.34570312 -88.45166016 495.27197266 C-87.77067261 495.58150879 -87.08968506 495.89104492 -86.38806152 496.20996094 C-85.01671249 496.83330881 -83.64537461 497.45668123 -82.27404785 498.08007812 C-78.87029706 499.62736625 -75.46635744 501.17423608 -72.06201172 502.72021484 C-65.61967763 505.64633819 -59.17940294 508.57678349 -52.74526978 511.52090454 C-49.70816016 512.91033074 -46.6700385 514.29753594 -43.63183594 515.68457031 C-42.1845506 516.34605765 -40.7377613 517.0086315 -39.29150391 517.67236328 C-37.28542912 518.59293028 -35.2776711 519.50972969 -33.26953125 520.42578125 C-31.55793823 521.20949097 -31.55793823 521.20949097 -29.81176758 522.0090332 C-23.77947525 524.59469746 -19.1495019 526.00640341 -12.625 525.375 C-9.856792 523.45854831 -8.85262424 522.28374923 -8.0353834 519.02106082 C-7.65023927 516.53773721 -7.49862402 514.23536892 -7.49636555 511.72552681 C-7.49152888 510.3607203 -7.49152888 510.3607203 -7.4865945 508.96834195 C-7.4881431 507.97760044 -7.4896917 506.98685894 -7.49128723 505.96609497 C-7.4878889 504.37685127 -7.4878889 504.37685127 -7.48442191 502.75550163 C-7.47808322 499.19913198 -7.47891121 495.64280046 -7.47973633 492.08642578 C-7.47674463 489.53862967 -7.47334207 486.990834 -7.46955872 484.44303894 C-7.46163195 478.23499186 -7.45850391 472.02695877 -7.45794634 465.8189071 C-7.45747075 460.76766597 -7.45541383 455.71642797 -7.45224571 450.66518784 C-7.4434371 436.32761702 -7.43882626 421.99005368 -7.43957619 407.65248014 C-7.43961614 406.87964216 -7.4396561 406.10680419 -7.43969727 405.31054688 C-7.43975859 404.14986444 -7.43975859 404.14986444 -7.43982115 402.96573387 C-7.44022691 390.44727725 -7.43067541 377.92885081 -7.4165589 365.41040291 C-7.40216132 352.54045881 -7.39529068 339.67052939 -7.39615268 326.80057704 C-7.39648364 319.58179188 -7.39378107 312.36303829 -7.38297462 305.14426041 C-7.37286344 298.34645856 -7.37323947 291.5487341 -7.38049126 284.75092506 C-7.38153279 282.26420685 -7.37920001 279.77748442 -7.3731308 277.29077339 C-7.31313339 250.99127247 -8.88816132 228.82070263 -27.4765625 208.50390625 C-31.12009448 204.89349729 -34.43086828 202.89487536 -39.25390625 201.12890625 C-40.41035645 200.69723145 -41.56680664 200.26555664 -42.75830078 199.82080078 C-43.38327454 199.58854797 -44.00824829 199.35629517 -44.65216064 199.11700439 C-48.1681909 197.79459064 -51.65904746 196.4084545 -55.15234375 195.02734375 C-55.90262848 194.73139313 -56.65291321 194.4354425 -57.42593384 194.13052368 C-59.80508494 193.1919297 -62.18382002 192.25228725 -64.5625 191.3125 C-65.39402588 190.98419189 -66.22555176 190.65588379 -67.08227539 190.31762695 C-79.13974621 185.55649539 -91.18280705 180.76094925 -103.21459961 175.93530273 C-113.33740847 171.87956253 -123.479408 167.87336035 -133.625 163.875 C-148.68683334 157.93833792 -163.72770648 151.9521619 -178.75390625 145.92578125 C-182.93847237 144.24851426 -187.12542561 142.57724352 -191.3125 140.90625 C-198.6889723 137.96222968 -206.06254993 135.01105481 -213.43408203 132.0546875 C-216.17374254 130.95606883 -218.91430696 129.85975835 -221.65576172 128.765625 C-225.35664972 127.2882091 -229.05351795 125.80090762 -232.75 124.3125 C-233.82725342 123.88380615 -234.90450684 123.4551123 -236.0144043 123.01342773 C-241.52279272 120.78534029 -246.69278 118.3736137 -251.78076172 115.29516602 C-254.48390393 113.94645765 -255.98446303 113.7837351 -258.25 115.875 Z M248.25970459 117.29006958 C245.4200267 118.9247305 242.44309464 120.12926931 239.4140625 121.37109375 C238.75993881 121.64049774 238.10581512 121.90990173 237.43186951 122.18746948 C235.28998634 123.06764034 233.14516607 123.9403639 231 124.8125 C229.47316998 125.43695637 227.94639693 126.06155203 226.41967773 126.6862793 C213.04445047 132.14735685 199.60822849 137.4502724 186.15510559 142.71583557 C177.55119039 146.08538706 168.96066167 149.48877693 160.36895752 152.88931274 C147.60573784 157.94050106 134.84028821 162.98576256 122.0625 168 C119.87108313 168.86065005 117.67967705 169.72132757 115.48828125 170.58203125 C111.67803781 172.07850313 107.86744969 173.57408588 104.05615234 175.06787109 C87.20623285 181.67387498 70.36800722 188.30996316 53.6116333 195.15048218 C52.13690201 195.75182403 50.66129207 196.35101621 49.18475342 196.94790649 C47.14120652 197.77501729 45.10144188 198.61083121 43.0625 199.44921875 C41.91136719 199.91932373 40.76023437 200.38942871 39.57421875 200.8737793 C25.70291309 207.38283443 17.75717192 219.96349755 11.9375 233.6875 C8.87806917 242.37504698 8.08068814 250.75005172 8.11430359 259.9147644 C8.11047804 261.03529618 8.10665249 262.15582796 8.10271102 263.31031525 C8.09244101 267.04270011 8.09636169 270.77492942 8.1003418 274.50732422 C8.09599221 277.19193527 8.09087237 279.87653514 8.08485413 282.56114197 C8.0721433 289.08098682 8.07030862 295.60079041 8.07265439 302.12064557 C8.07444049 307.41833711 8.07268167 312.71601616 8.06842995 318.01370621 C8.06783476 318.76887004 8.06723957 319.52403386 8.06662634 320.30208144 C8.06541456 321.83630418 8.06420043 323.37052691 8.06298397 324.90474965 C8.05212398 339.27037039 8.05426458 353.63596762 8.06036881 368.00158967 C8.06554588 381.14796272 8.054259 394.29426186 8.03527059 407.44062029 C8.01591197 420.94687141 8.00763212 434.45308752 8.01139385 447.95935261 C8.01330771 455.53934168 8.01079962 463.1192677 7.99667931 470.69924545 C7.98479028 477.14635699 7.98333323 483.59336659 7.99546947 490.04047947 C8.00137352 493.33015445 8.0007993 496.61960342 7.99046707 499.90927315 C7.98008067 503.47206992 7.98803496 507.03435949 8.0007782 510.59713745 C7.99340391 511.64089377 7.98602963 512.68465009 7.97843188 513.7600354 C7.98563842 514.71279959 7.99284497 515.66556379 8.00026989 516.64719963 C8.00021487 517.46956922 8.00015986 518.29193882 8.00010318 519.1392287 C8.46692704 521.92322505 9.47910243 523.31347823 11.375 525.375 C17.80591721 527.10468378 23.94049517 524.35044283 29.6875 521.6875 C30.58718506 521.28668213 31.48687012 520.88586426 32.41381836 520.47290039 C35.41117884 519.12841581 38.39424519 517.75588799 41.375 516.375 C42.40560547 515.89836914 43.43621094 515.42173828 44.49804688 514.93066406 C48.98199653 512.8526362 53.46301861 510.76852169 57.93920898 508.67382812 C67.82189809 504.05490818 77.77505022 499.60314428 87.75 495.1875 C90.81383816 493.83081062 93.87766589 492.47409773 96.94140625 491.1171875 C97.67326141 490.79308899 98.40511658 490.46899048 99.15914917 490.1350708 C105.34920298 487.39150378 111.52437976 484.6160915 117.6875 481.8125 C118.47237793 481.45583252 119.25725586 481.09916504 120.06591797 480.73168945 C124.86363255 478.54289151 129.64446376 476.31863231 134.421875 474.0859375 C142.70508693 470.21502345 151.00531883 466.38167509 159.3125 462.5625 C160.48662949 462.02249863 160.48662949 462.02249863 161.68447876 461.47158813 C174.4485133 455.60434131 187.24688064 449.81607056 200.0625 444.0625 C217.2358637 436.35031615 217.2358637 436.35031615 234.375 428.5625 C235.39424561 428.10125732 236.41349121 427.64001465 237.46362305 427.16479492 C245.70377926 423.37767025 253.00272865 419.86362067 258.375 412.375 C259.69767889 408.40696332 259.55298173 404.59262317 259.58032227 400.45361328 C259.59021337 399.52486484 259.60010447 398.59611639 259.6102953 397.63922405 C259.642312 394.49128006 259.66698511 391.34332403 259.69140625 388.1953125 C259.71227475 385.9147671 259.73341063 383.63422413 259.75479126 381.35368347 C259.81178224 375.06105666 259.86104287 368.76839152 259.9078331 362.4756813 C259.93745139 358.50651485 259.96845973 354.53736106 259.99966431 350.56820679 C260.37406741 302.40597784 260.51210473 254.24288637 260.55365521 206.0793159 C260.5596575 199.54401746 260.57052956 193.00873811 260.58328247 186.47344971 C260.59872021 178.44250028 260.60652433 170.41158479 260.60475016 162.38062006 C260.60394805 158.23953755 260.60623024 154.09851927 260.61687088 149.95744896 C260.62651076 146.13639539 260.62670225 142.31545951 260.61947334 138.49440169 C260.61845432 137.10746639 260.62080742 135.72052363 260.62687886 134.33360124 C260.69127521 124.66662247 260.69127521 124.66662247 258.375 115.375 C253.98680864 113.77929405 252.11111473 114.9835679 248.25970459 117.29006958 Z " fill="#FFFFFF" transform="translate(388.625,72.625)"/>
<path d="M0 0 C4.28320651 4.0871079 6.70612111 8.71188311 7.05859375 14.671875 C6.96152141 21.30515157 3.45003714 25.71793161 -1.1015625 30.26953125 C-13.35480202 40.44154113 -32.87353592 43.72843397 -48.37890625 42.546875 C-62.90407017 41.09793623 -77.91474154 37.56793956 -88.44140625 26.734375 C-91.35692575 21.93787518 -92.92744234 17.01885914 -92.03515625 11.37109375 C-91.34552028 9.2570311 -90.48895612 7.47230695 -89.37890625 5.546875 C-89.05535156 4.96292969 -88.73179687 4.37898438 -88.3984375 3.77734375 C-82.58056481 -4.56348991 -70.58598046 -9.0433231 -60.94848633 -11.07470703 C-40.79771407 -14.65122106 -16.56955063 -13.36587452 0 0 Z " fill="#FAFBFB" transform="translate(431.37890625,158.453125)"/>
<path d="M0 0 C7.55767607 6.10526554 10.25356364 14.69397347 11.61328125 24.02734375 C12.2152864 34.35852886 8.58973619 45.55161038 2.27734375 53.640625 C-4.11620728 60.79080929 -10.83365587 67.07423501 -20.69140625 68.1953125 C-28.98280038 68.45345055 -34.90742387 67.08390407 -41.28515625 61.44140625 C-49.01317125 52.79795145 -49.2527225 42.77845428 -48.83935547 31.77929688 C-48.28596293 23.96436284 -44.70106951 17.42526172 -40.703125 10.85546875 C-40.26097656 10.02917969 -39.81882812 9.20289063 -39.36328125 8.3515625 C-34.90895904 1.65435805 -26.82809546 -2.94836325 -19.1015625 -4.80078125 C-11.68276123 -5.86406221 -6.24922371 -4.08528444 0 0 Z " fill="#FBFCFC" transform="translate(482.703125,464.14453125)"/>
<path d="M0 0 C11.39632097 7.1439624 18.25501078 18.23152382 22 31 C23.81625456 42.67382974 22.89576257 52.20877911 16 62 C11.85377186 66.60437489 6.63334147 69.54164 0.4609375 70.3203125 C-8.64517484 70.70507781 -15.66598112 68.22342165 -22.6875 62.4375 C-32.04865854 53.50712044 -36.91787806 43.20315714 -37.40039062 30.38842773 C-37.57261695 19.30362447 -35.77396367 10.95657032 -27.9140625 2.6953125 C-19.60522514 -4.66394345 -9.76651027 -4.75674593 0 0 Z " fill="#FBFBFC" transform="translate(327,463)"/>
<path d="M0 0 C6.35704323 5.30182553 10.33401935 12.57790982 11.5625 20.7421875 C12.48249546 34.27378746 9.47556642 45.97510934 0.69921875 56.46484375 C-6.12216263 63.58696739 -13.25055698 68.44897759 -23.25 68.9375 C-29.68168911 68.72014645 -34.02751623 66.30899841 -38.9375 62.3125 C-46.98891922 52.52023338 -48.3379049 42.82563639 -47.25 30.5 C-44.99522925 19.39364353 -39.20934128 8.60307184 -30.25 1.5 C-27.6777221 -0.15101942 -25.09769167 -1.39713675 -22.25 -2.5 C-21.61191406 -2.74878906 -20.97382813 -2.99757813 -20.31640625 -3.25390625 C-13.17249334 -5.53938342 -6.18488555 -4.15473228 0 0 Z " fill="#FBFBFC" transform="translate(480.25,300.5)"/>
<path d="M0 0 C5.17850402 3.57681928 8.45780502 8.2788879 10.8125 14.05859375 C11.01875 15.25484375 11.225 16.45109375 11.4375 17.68359375 C11.58058594 18.47121094 11.72367188 19.25882812 11.87109375 20.0703125 C13.7696055 33.47732844 9.29892076 45.03799812 1.875 55.98828125 C1.400625 56.54773438 0.92625 57.1071875 0.4375 57.68359375 C-0.2225 57.68359375 -0.8825 57.68359375 -1.5625 57.68359375 C-1.5625 58.34359375 -1.5625 59.00359375 -1.5625 59.68359375 C-3.86328125 61.375 -3.86328125 61.375 -6.875 63.24609375 C-7.86113281 63.86613281 -8.84726562 64.48617187 -9.86328125 65.125 C-15.80483249 68.55579442 -21.87120696 68.33138408 -28.5625 67.68359375 C-35.52261269 65.73969307 -39.8285602 62.20791691 -43.4453125 55.99609375 C-48.44578289 45.64546973 -47.4514555 34.46721174 -43.83203125 23.80078125 C-40.97107859 16.7760421 -37.30631313 10.70943024 -31.5625 5.68359375 C-30.263125 4.41515625 -30.263125 4.41515625 -28.9375 3.12109375 C-20.23067301 -3.98835671 -9.75575507 -5.24966698 0 0 Z " fill="#FBFBFC" transform="translate(550.5625,351.31640625)"/>
<path d="M0 0 C7.03918161 3.9419417 11.16063522 8.53907961 13.875 16.1875 C16.84629725 27.1041446 16.07917352 38.57650001 11.125 48.75 C5.83297323 57.74525091 -1.456825 66.08765545 -11.71875 69.3046875 C-18.63486741 70.7330161 -24.08996448 70.61823458 -30.3125 67.0625 C-37.14958002 62.43232556 -40.54873487 57.0550605 -42.5625 49 C-44.00129097 34.03657393 -40.27004239 21.80964338 -31.625 9.5625 C-23.2975719 1.04581217 -11.87734407 -4.76656571 0 0 Z " fill="#FBFBFC" transform="translate(612.875,407.25)"/>
<path d="M0 0 C9.24056957 7.6720023 14.26520011 17.59000534 16.57421875 29.3046875 C17.58276801 40.56870958 16.6542223 49.20182579 9.57421875 58.3046875 C4.81574323 63.05001806 0.15491956 65.57971408 -6.61328125 65.6796875 C-15.29299173 65.48136078 -22.25752669 62.36869182 -28.54296875 56.4140625 C-38.15942912 45.6404347 -41.24504169 34.54687633 -40.77734375 20.4453125 C-40.2536381 12.19412269 -37.42435058 5.0242536 -31.42578125 -0.6953125 C-21.05318627 -7.93743962 -10.23076437 -7.15000279 0 0 Z " fill="#FBFBFC" transform="translate(260.42578125,353.6953125)"/>
<path d="M0 0 C7.23650886 7.72524911 8.17687789 16.99796375 8.0078125 27.0859375 C7.35614009 38.69755502 1.81703449 48.45300622 -5.94921875 56.8984375 C-12.08996615 62.38048882 -19.6339234 65.24836408 -27.796875 65.12890625 C-32.97912977 64.66695485 -36.87540738 62.99794239 -40.89453125 59.7265625 C-49.17422199 49.65666836 -50.23175714 40.68643387 -49.20703125 27.9140625 C-47.00242679 15.69746454 -39.2895182 5.02872063 -29.20703125 -2.0859375 C-19.39854362 -7.79346263 -8.73967789 -7.08245354 0 0 Z " fill="#FBFCFC" transform="translate(619.20703125,246.0859375)"/>
<path d="M0 0 C0.59554687 0.45890625 1.19109375 0.9178125 1.8046875 1.390625 C10.50870498 9.05016038 15.16443874 21.27302684 16.24609375 32.5703125 C16.63909213 40.93045995 14.84879478 49.71511911 9.6875 56.5 C4.68128909 61.15694038 -0.27050608 63.6194394 -7.0625 64.3125 C-16.91180165 63.53080939 -24.55207222 59.4333658 -31 52 C-38.60977767 41.65129457 -42.38209008 29.65361104 -40.71875 16.83203125 C-39.34755946 9.17182256 -36.31534995 2.52256715 -30.1875 -2.4375 C-19.9879653 -9.28167375 -9.45014798 -7.35450847 0 0 Z " fill="#FBFCFC" transform="translate(191,247)"/>
<path d="M0 0 C1.5 2.8125 1.5 2.8125 2 5 C-2.91260985 12.20516111 -9.42245501 14.2663892 -17.6875 16.25 C-32.72468099 18.86209247 -48.90422706 17.19838678 -62 9 C-64 7 -64 7 -64.125 3.6875 C-62.75483853 -0.80358481 -61.43961355 -1.76316186 -57.44140625 -3.9375 C-41.0023384 -11.09178233 -14.17945717 -12.73181625 0 0 Z " fill="#002147" transform="translate(420,169)"/>
<path d="M0 0 C6.35931917 3.5796594 10.34988961 10.03915856 12.61328125 16.84375 C13.71002625 22.95893423 14.72164889 31.3273746 11.1875 36.75 C9 39 9 39 6 41 C0.8367593 40.91535671 -2.68932319 40.39686193 -6.6171875 36.7265625 C-12.74561381 29.07468559 -14.80539703 20.59285396 -14 11 C-13.12638425 7.17793108 -11.86919353 3.99336403 -9.25 1 C-5.84002967 -0.51554237 -3.70203324 -0.56471694 0 0 Z " fill="#002147" transform="translate(320,476)"/>
<path d="M0 0 C4.53937595 4.53937595 5.19198319 7.70775412 5.3125 14 C5.3125 21.78415683 4.29632299 28.02545126 -0.765625 34.12890625 C-3.92565707 37.20807136 -6.80552242 39.34258183 -11.1875 40.1875 C-15 40 -15 40 -17.875 38.4375 C-21.65805896 34.09810884 -22.37435949 29.82846937 -22.1796875 24.12890625 C-21.38677384 14.73460315 -18.10617375 6.83837981 -11.125 0.3125 C-7.10222848 -1.37706404 -4.1061721 -1.54090893 0 0 Z " fill="#002147" transform="translate(472,476)"/>
<path d="M0 0 C4.18516335 2.7901089 6.01508145 7.1803576 7 12 C7.31685758 20.15298933 5.6809828 28.9982979 0.02734375 35.14453125 C-6.23567209 40.72554899 -6.23567209 40.72554899 -10.8125 41.4375 C-14.30586152 40.95801901 -14.67406005 40.67993842 -16.8125 38.125 C-21.41851792 31.5449744 -20.8483623 23.32771523 -19.609375 15.546875 C-17.74878144 9.67884916 -13.34254079 5.21346315 -9 1 C-5.90826248 -0.54586876 -3.40570448 -0.29359521 0 0 Z " fill="#002147" transform="translate(469,312)"/>
<path d="M0 0 C5.05867604 5.05867604 5.34033382 9.08386502 5.3894043 16.04272461 C5.25963571 22.40593889 3.52622998 26.80293929 0 32 C-0.39574219 32.61746094 -0.79148437 33.23492187 -1.19921875 33.87109375 C-3.33455397 36.82934886 -5.14066884 38.06028665 -8.5 39.5 C-12.26590505 40.03798644 -13.78447494 39.96504309 -17 38 C-20.99454437 33.72013104 -21.30348422 29.13218912 -21.2109375 23.49609375 C-20.52757951 15.40969083 -17.5526703 8.89176467 -12 3 C-8.11309729 -0.18925351 -4.97866973 -0.72417014 0 0 Z " fill="#002147" transform="translate(541,364)"/>
<path d="M0 0 C5.44458637 2.80039176 9.62392621 8.73954302 11.47265625 14.50390625 C12.59651196 20.92304608 13.38627316 28.84299276 10.5703125 34.8125 C8.35903187 37.69339378 6.7149142 38.87264686 3.09375 39.35546875 C-1.57032886 38.80675359 -4.45001483 36.89136749 -7.51171875 33.33203125 C-12.54895482 26.56647665 -14.62864148 19.77088128 -13.84765625 11.31640625 C-13.18913669 7.36528886 -12.59569439 4.64433069 -10.15625 1.41796875 C-6.59620792 -1.0632727 -4.12577393 -1.30241592 0 0 Z " fill="#002147" transform="translate(249.09375,364.01953125)"/>
<path d="M0 0 C4.39201424 4.54346301 4.34587025 9.94655262 4.28125 15.98046875 C3.6832095 22.40109804 1.62665163 27.99796722 -2.4375 33 C-3.283125 33.66 -4.12875 34.32 -5 35 C-6.175625 35.928125 -6.175625 35.928125 -7.375 36.875 C-11.04489433 38.44781186 -13.19527816 38.10682817 -17 37 C-20.87237471 33.12762529 -22.14726893 29.76838132 -22.25 24.375 C-22.15958483 16.62189923 -19.8463839 10.0925969 -15 4 C-9.9605434 -0.89357759 -6.76821724 -2.96109504 0 0 Z " fill="#002147" transform="translate(608,423)"/>
<path d="M0 0 C4.34971919 4.34971919 5.17674387 8.0677951 5.3125 14.0625 C5.25207028 21.80613644 3.25697223 27.46407683 -0.875 33.9375 C-4.28627079 37.24843929 -7.42080521 38.77891273 -12.125 39.4375 C-15 39 -15 39 -17.25 37.4375 C-21.213569 31.9168146 -21.37795161 26.37311808 -20.59765625 19.84375 C-18.88272745 11.68382732 -14.85881261 5.68196025 -8 1 C-5.12529507 -0.43735246 -3.18105412 -0.38172649 0 0 Z " fill="#002147" transform="translate(606,256)"/>
<path d="M0 0 C5.37217868 4.16280196 8.37442706 10.53444436 10 17 C10.78888019 23.94923675 10.57611035 29.90736755 7 36 C4 38 4 38 0.6875 37.9375 C-4.42812551 36.63691724 -7.51144539 34.43193795 -10.2265625 29.99609375 C-13.05855476 24.46454053 -14.19457245 19.96248716 -14.3125 13.6875 C-14.34988281 12.39199219 -14.38726562 11.09648437 -14.42578125 9.76171875 C-13.93439461 5.42038544 -12.78981889 3.32264917 -10 0 C-6.0756391 -1.3081203 -4.00215261 -1.08532952 0 0 Z " fill="#002147" transform="translate(181,257)"/>
</svg>
