<?xml version="1.0" encoding="UTF-8"?>
<svg version="1.1" xmlns="http://www.w3.org/2000/svg" width="529" height="680">
<path d="M0 0 C2.58955749 0.52186502 4.92462399 0.61088611 7.55859375 0.515625 C7.55859375 1.175625 7.55859375 1.835625 7.55859375 2.515625 C8.54085938 2.63035156 9.523125 2.74507812 10.53515625 2.86328125 C14.80701495 3.47431383 18.81968573 4.67779963 22.93359375 5.953125 C28.77430602 7.72159979 34.56909534 9.31772532 40.55859375 10.515625 C40.55859375 11.175625 40.55859375 11.835625 40.55859375 12.515625 C41.11804688 12.65097656 41.6775 12.78632812 42.25390625 12.92578125 C54.71812939 16.27228489 65.51287312 22.52362538 75.55859375 30.515625 C76.29980469 31.08023438 77.04101562 31.64484375 77.8046875 32.2265625 C85.75800165 38.63131076 91.29346354 47.85866518 92.43359375 58.078125 C93.17964776 69.35182997 88.1374061 78.66520479 81.55859375 87.515625 C79.96298593 89.28666615 78.29532917 90.8781316 76.55859375 92.515625 C74.02363691 96.33683772 73.85094502 100.70459387 73.24609375 105.140625 C72.01423638 113.2783741 70.25563391 120.48546169 64.54272461 126.71313477 C62.15750868 130.08213854 61.84535434 132.31204219 61.43359375 136.3984375 C61.35995605 137.05335175 61.28631836 137.70826599 61.21044922 138.38302612 C60.97710674 140.46753365 60.76558049 142.55334747 60.55859375 144.640625 C58.29345404 167.13325066 58.29345404 167.13325066 51.90625 174.96875 C48.39816321 179.4816387 48.43945818 184.73903582 47.99609375 190.265625 C47.15860458 200.09216463 44.78781722 208.06669352 41.06797791 217.15916443 C39.48643235 221.40491191 38.79795382 225.4895654 38.29101562 229.97583008 C38.19097733 230.78854213 38.09093903 231.60125418 37.98786926 232.43859386 C37.65821012 235.13639414 37.34278227 237.8356593 37.02734375 240.53515625 C36.79347434 242.47284305 36.55871052 244.41042208 36.32312012 246.34790039 C35.68899841 251.58307803 35.06707144 256.81964051 34.44720459 262.05652237 C33.79522616 267.5453408 33.13145842 273.03273229 32.46875 278.52026367 C31.37033845 287.62738462 30.27828809 296.73524603 29.19140625 305.84375 C27.01630451 324.07114192 24.82044204 342.29602198 22.62021637 360.52039623 C21.9244475 366.28596561 21.23211461 372.05193386 20.54264069 377.81825924 C19.32897771 387.96621046 18.09762643 398.11179674 16.83856201 408.25421906 C16.56365879 410.47471283 16.29165634 412.69554746 16.02001953 414.91644287 C15.52913865 418.91404722 15.01461094 422.90823004 14.49609375 426.90234375 C14.35800293 428.03573685 14.21991211 429.16912994 14.07763672 430.33686829 C12.98970523 438.47047898 11.04674031 446.0602015 7.02134705 453.26831055 C5.18173747 457.35224649 4.64365935 461.14251621 4.08813477 465.55932617 C3.96732544 466.44961517 3.84651611 467.33990417 3.7220459 468.25717163 C3.46202623 470.1831538 3.20688689 472.10979986 2.95611763 474.03700829 C2.55764871 477.09583441 2.14549398 480.15254155 1.72972107 483.20906067 C0.699347 490.8035972 -0.30922963 498.4009909 -1.31530762 505.9987793 C-2.16584796 512.418294 -3.02628955 518.83632316 -3.90034676 525.25267982 C-4.30440325 528.2485603 -4.69398046 531.24609288 -5.08311462 534.24394226 C-6.50811065 544.90353348 -8.46538197 554.2499439 -13.109375 564.02734375 C-14.90929387 568.74091427 -15.25375038 573.33418288 -15.75390625 578.328125 C-17.19423087 590.26812214 -20.36277461 597.78691464 -29.7890625 605.58203125 C-51.27612997 621.24638824 -77.61341908 626.90948402 -103.44140625 630.828125 C-104.4893335 630.98756592 -105.53726074 631.14700684 -106.61694336 631.3112793 C-121.94786331 633.47447938 -137.35981569 633.72483682 -152.81640625 633.703125 C-154.122005 633.70172012 -154.122005 633.70172012 -155.45397949 633.70028687 C-196.73081658 633.60465575 -249.9103341 631.49717699 -281.94140625 601.515625 C-290.01863695 592.83511566 -290.54018436 583.53558952 -291.828125 572.07421875 C-291.96863281 570.98238281 -292.10914063 569.89054688 -292.25390625 568.765625 C-292.41826172 567.31929687 -292.41826172 567.31929687 -292.5859375 565.84375 C-293.37680493 562.76695068 -294.36784791 560.6678601 -295.8671875 557.90234375 C-298.86294446 552.10511419 -299.87069245 546.49296202 -300.81640625 540.078125 C-301.01282715 538.83401855 -301.20924805 537.58991211 -301.41162109 536.30810547 C-303.83624995 520.75669788 -305.87635593 505.13952845 -307.94287109 489.53735352 C-309.73078132 476.04569772 -309.73078132 476.04569772 -311.83984375 462.6015625 C-312.02981934 461.45478027 -312.21979492 460.30799805 -312.41552734 459.12646484 C-313.31663013 455.95480606 -314.35738009 453.69765505 -315.91333008 450.83398438 C-318.86887172 445.13217806 -319.71783391 439.66111254 -320.4921875 433.3359375 C-320.6502034 432.16636505 -320.8082193 430.9967926 -320.97102356 429.79177856 C-321.30571307 427.30104154 -321.63260452 424.80924585 -321.95220947 422.31652832 C-322.43258812 418.58413907 -322.93740178 414.85592462 -323.45068359 411.12792969 C-324.4392012 403.92477498 -325.39901435 396.71803389 -326.34937286 389.50977325 C-326.63481196 387.3458537 -326.92107337 385.18204406 -327.2074585 383.01824951 C-330.18411311 360.51004129 -333.02303629 337.98634075 -335.78341293 315.45066071 C-336.25262755 311.620526 -336.72266225 307.79049194 -337.19262695 303.96044922 C-337.28469012 303.21008329 -337.37675329 302.45971737 -337.47160625 301.68661308 C-340.63540689 275.8557311 -340.63540689 275.8557311 -343.87176514 250.03387451 C-344.16417012 247.72020249 -344.45336603 245.40612224 -344.73907471 243.09161377 C-345.12860348 239.94012025 -345.5295753 236.79028901 -345.93359375 233.640625 C-346.04262024 232.73790863 -346.15164673 231.83519226 -346.26397705 230.90512085 C-347.17109236 223.99154881 -348.83442378 217.64272602 -352.03125 211.421875 C-353.70813924 207.96590383 -354.34224662 204.79653717 -355.00390625 201.015625 C-355.19376099 199.97220947 -355.19376099 199.97220947 -355.38745117 198.90771484 C-356.20067306 194.33184777 -356.74833684 189.76152945 -357.25390625 185.140625 C-358.24417744 177.74321457 -361.15026639 171.80676486 -366.44140625 166.515625 C-366.89527364 163.77122766 -367.23989251 161.08716954 -367.51953125 158.32421875 C-367.71262237 156.63986832 -367.90666422 154.95562666 -368.1015625 153.27148438 C-368.39913226 150.62194086 -368.68943631 147.9722654 -368.96240234 145.32006836 C-370.01753436 135.22054167 -370.82986766 127.5791358 -377.44140625 119.515625 C-379.87134355 114.82931735 -380.79239696 110.8174655 -381.31420898 105.65136719 C-382.35635344 95.53459599 -384.87664131 90.51749454 -392.44140625 83.515625 C-398.31494267 75.51690588 -400.96693515 65.85018051 -400.26171875 56.0078125 C-399.22102713 49.23269766 -396.33086835 44.08548578 -392.44140625 38.515625 C-392.0340625 37.89945313 -391.62671875 37.28328125 -391.20703125 36.6484375 C-386.44472574 30.26929987 -379.20282712 26.45440156 -372.44140625 22.515625 C-370.80365234 21.54302734 -370.80365234 21.54302734 -369.1328125 20.55078125 C-336.8497403 2.95164825 -298.32326968 -3.04729155 -262.44140625 -8.484375 C-261.35037598 -8.65066406 -260.2593457 -8.81695313 -259.13525391 -8.98828125 C-180.05153473 -20.71416915 -95.88650283 -18.45226088 0 0 Z M-192.44140625 -0.484375 C-193.47690613 -0.43893555 -193.47690613 -0.43893555 -194.5333252 -0.39257812 C-294.34486434 2.95371275 -294.34486434 2.95371275 -379.37890625 46.640625 C-383.49522729 51.62404144 -384.94554853 55.59776003 -384.7421875 62.0625 C-383.46081028 72.51321292 -376.98974149 79.81642628 -369.1953125 86.41796875 C-330.51371965 115.18454961 -274.10089468 120.56357142 -227.44140625 125.515625 C-226.39388184 125.62890137 -225.34635742 125.74217773 -224.26708984 125.85888672 C-199.71577847 128.46862309 -175.04840614 128.75270993 -150.37890625 128.765625 C-149.70693584 128.76621414 -149.03496544 128.76680328 -148.34263229 128.76741028 C-124.93401438 128.7818107 -101.72410941 128.05241314 -78.44140625 125.515625 C-77.74539307 125.44065796 -77.04937988 125.36569092 -76.33227539 125.28845215 C-48.3866988 122.25145771 -20.62521694 117.72775131 6.55859375 110.515625 C7.45932617 110.27730957 8.36005859 110.03899414 9.28808594 109.79345703 C26.75824938 105.08149329 51.03219898 98.24915472 62.55859375 83.515625 C63.88000934 82.82563728 65.21323092 82.15766944 66.55859375 81.515625 C72.27470088 75.70117624 76.18626288 69.26405034 76.71875 61.04296875 C76.41531381 53.19004011 73.0038001 48.02284507 67.60546875 42.52734375 C37.18759049 15.99146743 -27.41393061 2.39182955 -67.37890625 3.515625 C-68.73256323 3.55277511 -70.08806877 3.56300662 -71.44140625 3.515625 C-71.77140625 3.185625 -72.10140625 2.855625 -72.44140625 2.515625 C-75.22870911 2.22137332 -77.99797877 1.98905178 -80.79296875 1.796875 C-82.09630913 1.70294464 -82.09630913 1.70294464 -83.42597961 1.6071167 C-86.30568881 1.40301567 -89.18589368 1.20804306 -92.06640625 1.015625 C-93.54948776 0.9157428 -93.54948776 0.9157428 -95.06253052 0.81384277 C-127.56344086 -1.34827921 -159.89834518 -1.92737935 -192.44140625 -0.484375 Z M-364.44140625 105.515625 C-363.75952502 114.03914032 -359.79926018 118.91445785 -353.484375 124.3125 C-319.72830451 148.75206837 -271.27623763 156.9081816 -230.63525391 161.17578125 C-228.42754173 161.41069452 -226.22150819 161.66174141 -224.01708984 161.92578125 C-201.47998869 164.57474827 -178.9305924 164.81175133 -156.26667404 164.82614517 C-153.91614589 164.82809412 -151.56564058 164.83320416 -149.21511841 164.8387146 C-117.9058356 166.95086394 -117.9058356 166.95086394 -88.44140625 161.515625 C-86.07663735 161.34406914 -83.70851412 161.21799071 -81.33984375 161.11328125 C-72.79361672 160.65417943 -64.48676656 159.4435493 -56.06640625 157.953125 C-55.32483276 157.82379578 -54.58325928 157.69446655 -53.81921387 157.56121826 C6.67016992 148.34692114 6.67016992 148.34692114 54.55859375 114.515625 C56.13911563 111.42329959 56.55859375 109.97789632 56.55859375 106.515625 C52.52136889 107.75688358 48.76830229 109.31273521 44.95751953 111.12890625 C-1.1035497 132.81455393 -59.01937868 139.81235162 -109.44140625 141.515625 C-110.69872559 141.55929199 -111.95604492 141.60295898 -113.25146484 141.64794922 C-117.73115791 141.80092434 -122.21120033 141.94109735 -126.69140625 142.078125 C-127.40523468 142.1005426 -128.11906311 142.12296021 -128.85452271 142.14605713 C-148.35946692 142.74627823 -167.8223072 142.66326622 -187.31640625 141.765625 C-188.24342346 141.72405273 -189.17044067 141.68248047 -190.12554932 141.63964844 C-204.23096974 140.99193679 -218.2692365 139.94745131 -232.31640625 138.515625 C-233.13735779 138.43203735 -233.95830933 138.34844971 -234.80413818 138.2623291 C-243.71584686 137.34229759 -252.57838772 136.2740562 -261.43017578 134.8828125 C-264.43491797 134.44299466 -264.43491797 134.44299466 -267.45654297 134.5859375 C-270.82776023 134.50652391 -273.27528445 133.64634655 -276.44140625 132.515625 C-278.68405653 132.01167196 -280.93505989 131.54404607 -283.19140625 131.10546875 C-284.52061737 130.84096421 -285.8496294 130.57545773 -287.1784668 130.30908203 C-287.87273773 130.17036682 -288.56700867 130.03165161 -289.28231812 129.88873291 C-344.63257165 118.72151473 -344.63257165 118.72151473 -364.44140625 105.515625 Z M-353.44140625 141.515625 C-352.92070345 151.96559157 -352.26541445 161.7270098 -344.69921875 169.578125 C-335.82803315 177.1907687 -325.33823084 181.64242059 -314.44140625 185.515625 C-313.7438623 185.76554199 -313.04631836 186.01545898 -312.32763672 186.27294922 C-296.87479212 191.75285386 -281.12248711 195.77019607 -265.12890625 199.328125 C-264.15606689 199.54734619 -263.18322754 199.76656738 -262.1809082 199.99243164 C-254.2129025 202.03301204 -254.2129025 202.03301204 -246.44140625 200.515625 C-246.44140625 201.175625 -246.44140625 201.835625 -246.44140625 202.515625 C-203.92808245 209.12496047 -160.493122 211.19382543 -117.50390625 208.765625 C-116.73849518 208.72272339 -115.97308411 208.67982178 -115.18447876 208.63562012 C-32.93773724 204.31378839 -32.93773724 204.31378839 37.515625 168 C43.82349764 160.32924092 44.72449822 152.13808434 44.55859375 142.515625 C39.7308373 144.43312117 34.90851222 146.35856015 30.12109375 148.375 C-58.730733 185.45742523 -168.50618517 186.7161122 -336.44140625 149.515625 C-342.21581958 147.06433788 -347.85669694 144.37020483 -353.44140625 141.515625 Z M-340.44140625 189.515625 C-339.97440965 196.76212394 -339.00031777 202.34017181 -333.50390625 207.515625 C-308.50673701 227.66102299 -264.80935085 234.79399803 -233.62426758 238.25366211 C-231.78179432 238.47477539 -229.94374706 238.73231787 -228.10717773 238.99804688 C-221.98698253 239.86217034 -215.84199819 240.47474443 -209.69140625 241.078125 C-208.99375153 241.1466568 -208.2960968 241.2151886 -207.57730103 241.28579712 C-194.2783694 242.56353054 -181.11635894 242.84309375 -167.75268555 242.56323242 C-162.56010362 242.45627631 -162.56010362 242.45627631 -160.44140625 243.515625 C-159.06797794 243.5845722 -157.69138523 243.60030208 -156.31640625 243.578125 C-154.39828125 243.5471875 -154.39828125 243.5471875 -152.44140625 243.515625 C-152.44140625 242.855625 -152.44140625 242.195625 -152.44140625 241.515625 C-152.11140625 242.175625 -151.78140625 242.835625 -151.44140625 243.515625 C-149.02494843 243.68249948 -149.02494843 243.68249948 -146.44140625 243.515625 C-145.45140625 242.525625 -145.45140625 242.525625 -144.44140625 241.515625 C-144.11140625 241.845625 -143.78140625 242.175625 -143.44140625 242.515625 C-141.64675336 242.61532794 -139.84820041 242.64643081 -138.05078125 242.6484375 C-136.39755859 242.65037109 -136.39755859 242.65037109 -134.7109375 242.65234375 C-133.54949219 242.64847656 -132.38804687 242.64460938 -131.19140625 242.640625 C-130.04542969 242.64449219 -128.89945313 242.64835937 -127.71875 242.65234375 C-126.61144531 242.65105469 -125.50414062 242.64976562 -124.36328125 242.6484375 C-123.3484668 242.64730957 -122.33365234 242.64618164 -121.28808594 242.64501953 C-118.5613564 242.52107728 -116.11053749 242.05223466 -113.44140625 241.515625 C-111.81532629 241.48630362 -110.18806169 241.50033333 -108.5625 241.55078125 C-101.47710528 241.60871289 -94.52712092 240.81877873 -87.50390625 239.953125 C-86.44817917 239.8244957 -86.44817917 239.8244957 -85.37112427 239.69326782 C-59.61594917 236.50916296 -34.13106706 231.58354417 -9.44140625 223.515625 C-8.65830078 223.26989746 -7.87519531 223.02416992 -7.06835938 222.77099609 C13.88090458 216.4857709 13.88090458 216.4857709 29.6875 202.5703125 C31.4614688 198.38597354 32.55859375 194.07307274 32.55859375 189.515625 C28.37030844 190.82115064 24.40465844 192.41605047 20.3972168 194.17993164 C-60.90111086 229.74954133 -160.14049842 228.87674259 -261.44140625 213.515625 C-262.59543945 213.30180176 -263.74947266 213.08797852 -264.93847656 212.86767578 C-291.01934008 207.94669261 -316.43759939 201.0089732 -340.44140625 189.515625 Z M21.55859375 225.515625 C19.81449219 226.27746094 19.81449219 226.27746094 18.03515625 227.0546875 C-22.75102305 244.68323235 -66.33816911 252.20644014 -110.44140625 255.515625 C-111.6111499 255.6098877 -112.78089355 255.70415039 -113.98608398 255.80126953 C-126.64709406 256.72323978 -139.31399383 256.75811245 -152.00390625 256.765625 C-153.18926971 256.76663208 -154.37463318 256.76763916 -155.59591675 256.76867676 C-186.8118327 256.75085242 -217.62125939 254.57389338 -248.44140625 249.515625 C-249.53130859 249.33805664 -250.62121094 249.16048828 -251.74414062 248.97753906 C-277.2320671 244.71435279 -302.48304539 237.88740646 -326.11328125 227.3359375 C-326.8815625 227.06523437 -327.64984375 226.79453125 -328.44140625 226.515625 C-329.43140625 227.010625 -329.43140625 227.010625 -330.44140625 227.515625 C-327.73517716 249.51423257 -325.02333887 271.51214356 -322.30639935 293.50943089 C-321.69982224 298.42105756 -321.09418179 303.33279836 -320.48925781 308.24462891 C-318.59262829 323.63707349 -316.66854451 339.02586404 -314.70941925 354.41048431 C-314.42238841 356.66500293 -314.13573429 358.91956931 -313.84906006 361.1741333 C-312.64306359 370.6520988 -311.42819975 380.12887159 -310.19946003 389.60391712 C-309.64254879 393.89842483 -309.08811752 398.1932111 -308.54055786 402.48892212 C-308.02519262 406.53014755 -307.50155144 410.57021929 -306.97182655 414.60958672 C-306.77748943 416.10183183 -306.58596877 417.59444698 -306.39754295 419.08745003 C-304.48508506 436.67204247 -304.48508506 436.67204247 -294.44140625 450.515625 C-268.55628639 469.09505917 -233.24106008 473.91911017 -202.44140625 477.515625 C-201.45994629 477.63421875 -200.47848633 477.7528125 -199.46728516 477.875 C-183.62706187 479.69864743 -167.7404125 479.71936005 -151.81640625 479.765625 C-150.79044342 479.77098267 -149.76448059 479.77634033 -148.70742798 479.78186035 C-128.482395 479.86189626 -108.38790223 478.75364507 -88.44140625 475.265625 C-87.1879541 475.05019043 -85.93450195 474.83475586 -84.64306641 474.61279297 C-42.61064565 467.71594897 -42.61064565 467.71594897 -7.44140625 445.515625 C-4.10231512 440.21843671 -2.69906294 435.09700688 -1.96459961 428.93969727 C-1.85471018 428.11719168 -1.74482075 427.29468609 -1.63160133 426.44725609 C-1.27150021 423.72298402 -0.93245047 420.99654012 -0.59375 418.26953125 C-0.3403547 416.31435789 -0.08584705 414.35932841 0.16969299 412.4044342 C0.84810003 407.17862642 1.50671623 401.95052716 2.15860748 396.72135162 C2.55355762 393.55598749 2.95191036 390.39106949 3.35125732 387.22625732 C5.12994382 373.11197702 6.86321438 358.99232473 8.58037567 344.87044144 C9.00228636 341.40222001 9.42510327 337.93411019 9.84820557 334.46603394 C11.38210092 321.8925186 12.9117352 309.3184928 14.43745804 296.74398327 C15.33702983 289.33270975 16.24173257 281.92207664 17.14920902 274.51176739 C17.93239821 268.11361896 18.70886786 261.71468006 19.48123169 255.31521606 C19.78054325 252.84251854 20.08200357 250.37008008 20.38571167 247.8979187 C20.7908069 244.59543049 21.18770035 241.29206925 21.58203125 237.98828125 C21.75749733 236.58076096 21.75749733 236.58076096 21.93650818 235.14480591 C22.03528763 234.30174896 22.13406708 233.45869202 22.23583984 232.59008789 C22.32320404 231.86833878 22.41056824 231.14658966 22.50057983 230.40296936 C22.67430542 228.28738383 22.67430542 228.28738383 21.55859375 225.515625 Z M-294.44140625 467.515625 C-293.28250391 480.17205848 -291.57821392 492.68854301 -289.578125 505.23828125 C-288.85236302 509.80848269 -288.16786672 514.38186481 -287.5247345 518.9642334 C-287.10703944 521.93922149 -286.67971419 524.9128012 -286.25234985 527.88641357 C-286.04754688 529.32998406 -285.84721613 530.7741972 -285.65170288 532.21905518 C-284.07031977 543.87663261 -281.91222224 554.68341051 -272.44140625 562.515625 C-246.88432082 579.93951678 -210.74461562 584.89205701 -180.44140625 586.515625 C-179.30928711 586.58120605 -178.17716797 586.64678711 -177.01074219 586.71435547 C-133.78277503 589.0719362 -67.59904058 590.79856457 -32.97265625 560.97265625 C-32.2146875 560.25142578 -32.2146875 560.25142578 -31.44140625 559.515625 C-30.89484375 559.06574219 -30.34828125 558.61585938 -29.78515625 558.15234375 C-25.90471361 554.47162977 -24.62463095 550.32699877 -23.41699219 545.23535156 C-23.24586788 544.52999393 -23.07474358 543.82463631 -22.89843369 543.09790421 C-21.17352764 535.75688196 -20.07294414 528.34647032 -19.08203125 520.875 C-18.88666036 519.4500389 -18.69057966 518.02517497 -18.49383545 516.60040283 C-18.08867527 513.65340955 -17.68914881 510.70573437 -17.29443359 507.75732422 C-16.78918535 503.98375459 -16.27366076 500.21167965 -15.75452042 496.43999863 C-15.2559917 492.81464558 -14.76261492 489.1885969 -14.26953125 485.5625 C-14.17593575 484.87766289 -14.08234024 484.19282578 -13.98590851 483.48723602 C-13.72244702 481.55275032 -13.46317881 479.61769493 -13.20410156 477.68261719 C-12.98237274 476.03625275 -12.98237274 476.03625275 -12.75616455 474.35662842 C-12.3679946 471.32941036 -12.3679946 471.32941036 -12.44140625 467.515625 C-16.99923654 468.9718528 -21.50027132 470.49918652 -25.9296875 472.3125 C-72.99142483 491.49777622 -126.49741852 495.60963289 -176.81640625 492.765625 C-177.57097107 492.72305573 -178.32553589 492.68048645 -179.10296631 492.6366272 C-216.33259084 490.47318004 -256.24265443 485.88953502 -289.87890625 468.765625 C-292.26580845 467.36948379 -292.26580845 467.36948379 -294.44140625 467.515625 Z M-275.44140625 577.515625 C-274.1117807 586.26733947 -271.33601743 591.55316759 -264.25390625 596.953125 C-259.48787147 600.11851858 -254.45388539 602.53748496 -249.25390625 604.890625 C-248.49376221 605.23665771 -247.73361816 605.58269043 -246.95043945 605.93920898 C-242.39648309 607.92154276 -238.38956807 608.85437574 -233.44140625 609.515625 C-232.15916988 609.96059586 -230.88836366 610.43945065 -229.62890625 610.9453125 C-225.0016005 612.7762128 -220.32381815 613.73547143 -215.44140625 614.640625 C-214.5294751 614.81311768 -213.61754395 614.98561035 -212.67797852 615.16333008 C-205.64469236 616.43311805 -198.73026815 617.08207478 -191.59375 617.33984375 C-188.44140625 617.515625 -188.44140625 617.515625 -186.51538086 618.02270508 C-184.29344675 618.55079042 -182.38608186 618.61403231 -180.10546875 618.578125 C-178.87957031 618.56652344 -178.87957031 618.56652344 -177.62890625 618.5546875 C-175.9283836 618.5287649 -174.22786274 618.50272433 -172.52734375 618.4765625 C-171.29757813 618.46496094 -171.29757813 618.46496094 -170.04296875 618.453125 C-169.30385254 618.44152344 -168.56473633 618.42992187 -167.80322266 618.41796875 C-165.44140625 618.515625 -165.44140625 618.515625 -162.60913086 619.02270508 C-159.05218446 619.57619061 -155.75443424 619.56313718 -152.15625 619.46484375 C-151.12257042 619.43790184 -151.12257042 619.43790184 -150.06800842 619.41041565 C-147.83799754 619.34908484 -145.6085196 619.27746135 -143.37890625 619.203125 C-142.61408936 619.17851196 -141.84927246 619.15389893 -141.0612793 619.12854004 C-108.63350065 618.06118929 -69.72265507 616.03665994 -42.44140625 596.515625 C-41.81492187 596.08636719 -41.1884375 595.65710938 -40.54296875 595.21484375 C-35.60135128 591.51465701 -32.5948021 586.70389136 -31.69140625 580.578125 C-31.60890625 579.5675 -31.52640625 578.556875 -31.44140625 577.515625 C-35.63467664 578.84245086 -39.56850464 580.43857414 -43.56640625 582.265625 C-75.92412929 596.40766588 -112.52459004 599.77071503 -147.44140625 600.515625 C-148.62089844 600.54527344 -149.80039062 600.57492187 -151.015625 600.60546875 C-154.16236081 600.64327999 -157.29521555 600.59160326 -160.44140625 600.515625 C-161.25851074 600.50305664 -162.07561523 600.49048828 -162.91748047 600.47753906 C-199.35509825 599.85510808 -238.14003833 594.97531879 -271.140625 578.58203125 C-273.32118265 577.37545071 -273.32118265 577.37545071 -275.44140625 577.515625 Z " fill="#090909" transform="translate(417.44140625,32.484375)"/>
<path d="M0 0 C0.86374237 -0.00137466 1.72748474 -0.00274933 2.61740112 -0.00416565 C3.55679535 -0.00057037 4.49618958 0.0030249 5.46405029 0.00672913 C6.4594986 0.0065831 7.4549469 0.00643707 8.4805603 0.00628662 C11.77032654 0.0069832 15.06003613 0.01476372 18.34979248 0.02259827 C20.63094044 0.02446335 22.9120888 0.02588683 25.1932373 0.02688599 C31.19705308 0.03070404 37.20084466 0.04052828 43.20465088 0.05158997 C49.33115308 0.06181937 55.4576592 0.06638689 61.58416748 0.07142639 C73.60501144 0.08215115 85.62583745 0.09921907 97.64666748 0.12025452 C97.64666748 0.78025452 97.64666748 1.44025452 97.64666748 2.12025452 C98.536604 2.10140198 99.42654053 2.08254944 100.34344482 2.06312561 C110.1005916 1.9479485 119.58555504 2.61654796 129.27166748 3.74525452 C130.41254822 3.8748053 130.41254822 3.8748053 131.57647705 4.00697327 C143.89628456 5.41385896 156.15397953 7.15617178 168.39666748 9.12025452 C169.15086975 9.23959351 169.90507202 9.3589325 170.68212891 9.48188782 C179.40061323 10.87316834 187.95656391 12.54749429 196.48449707 14.85047913 C199.71478606 15.71093766 202.26190771 16.12025452 205.64666748 16.12025452 C205.64666748 16.78025452 205.64666748 17.44025452 205.64666748 18.12025452 C206.73721436 18.21177795 207.82776123 18.30330139 208.95135498 18.39759827 C214.46455796 19.09432172 219.54525115 20.84830269 224.77166748 22.68275452 C225.7855957 23.0377301 226.79952393 23.39270569 227.84417725 23.75843811 C236.08167818 26.73682862 243.32762368 30.31175409 250.64666748 35.12025452 C251.46522217 35.5984967 252.28377686 36.07673889 253.12713623 36.56947327 C258.29332891 39.85362854 260.3222325 43.5520622 262.08026123 49.38587952 C263.30251636 55.28642151 262.38659425 59.31013811 259.45916748 64.55775452 C241.60675783 89.00505432 194.69926018 94.03415413 167.07977295 98.78041077 C164.2468939 99.17609285 161.50279538 99.27648715 158.64666748 99.12025452 C158.31666748 99.78025452 157.98666748 100.44025452 157.64666748 101.12025452 C155.16229248 101.48377991 155.16229248 101.48377991 151.89666748 101.65541077 C147.33680872 101.93916015 142.81103686 102.28500285 138.27166748 102.80384827 C82.93570446 109.10536372 27.06396693 109.86373704 -28.42166138 104.93504333 C-29.14161285 104.87112396 -29.86156433 104.80720459 -30.60333252 104.74134827 C-31.63576584 104.64921555 -31.63576584 104.64921555 -32.6890564 104.55522156 C-37.93366326 104.10729821 -43.09343825 104.00023709 -48.35333252 104.12025452 C-48.35333252 103.46025452 -48.35333252 102.80025452 -48.35333252 102.12025452 C-50.05888306 102.16110168 -50.05888306 102.16110168 -51.79888916 102.20277405 C-56.37579262 102.1988826 -60.72256836 101.57745973 -65.22442627 100.79994202 C-66.05592194 100.6608844 -66.8874176 100.52182678 -67.74411011 100.3785553 C-70.4278802 99.92594717 -73.10946243 99.4618578 -75.79083252 98.99525452 C-77.16451492 98.75866119 -77.16451492 98.75866119 -78.56594849 98.51728821 C-93.31677053 95.96734128 -107.9107946 93.09900141 -122.35333252 89.12025452 C-123.49197754 88.80773743 -123.49197754 88.80773743 -124.65362549 88.48890686 C-138.42428792 84.62765412 -152.92124537 79.93410856 -164.35333252 71.12025452 C-165.74552002 70.16119202 -165.74552002 70.16119202 -167.16583252 69.18275452 C-171.9887593 64.63542355 -173.62140066 60.76963682 -173.97833252 54.24525452 C-173.72066955 47.7956284 -171.81458133 43.74210828 -167.35333252 39.12025452 C-129.50316795 6.50468718 -58.29364087 4.37809223 -10.3916626 1.33802795 C-8.36424144 1.1761166 -8.36424144 1.1761166 -6.49802017 0.61415958 C-4.25409749 0.09740145 -2.30024842 -0.00283282 0 0 Z M-156.66583252 49.12025452 C-158.66310517 51.99672102 -158.66310517 51.99672102 -158.04083252 55.18275452 C-150.29648221 68.66366062 -129.05421426 72.69877813 -115.09161377 76.62025452 C-75.96993735 87.17493534 -34.74365985 91.54051778 5.64666748 93.12025452 C6.50520325 93.15419312 7.36373901 93.18813171 8.24829102 93.22309875 C73.48842171 95.73633634 141.37580353 93.83287106 204.64666748 76.12025452 C205.65697021 75.84036682 205.65697021 75.84036682 206.68768311 75.55482483 C210.37963518 74.51585415 214.01697815 73.35775934 217.64666748 72.12025452 C218.82358154 71.73095764 220.00049561 71.34166077 221.21307373 70.94056702 C229.76911507 68.01899192 239.20282375 64.76546837 245.64666748 58.12025452 C247.071045 55.32543643 247.071045 55.32543643 246.64666748 52.12025452 C242.02973742 44.18490598 233.81442721 41.36886101 225.64666748 38.12025452 C224.72071777 37.74368713 224.72071777 37.74368713 223.77606201 37.35951233 C196.79787317 26.65966407 166.30987508 22.62358422 137.64666748 19.12025452 C136.39740479 18.96717834 135.14814209 18.81410217 133.86102295 18.65638733 C51.10069087 8.90182561 -37.1274712 11.29837228 -156.66583252 49.12025452 Z " fill="#0A0A0A" transform="translate(219.35333251953125,40.87974548339844)"/>
<path d="M0 0 C0.66 0.33 1.32 0.66 2 1 C2 1.66 2 2.32 2 3 C5.93075644 2.42547254 5.93075644 2.42547254 9 0 C9.495 0.495 9.495 0.495 10 1 C11.55948542 1.15686249 13.12542668 1.25076639 14.69140625 1.31640625 C16.10776367 1.37924805 16.10776367 1.37924805 17.55273438 1.44335938 C19.04256836 1.50233398 19.04256836 1.50233398 20.5625 1.5625 C22.05813477 1.62727539 22.05813477 1.62727539 23.58398438 1.69335938 C26.0558415 1.79980298 28.5278031 1.90181928 31 2 C31 2.33 31 2.66 31 3 C7.95805754 4.29293465 -14.96009648 4.36967579 -38 3 C-38 2.67 -38 2.34 -38 2 C-33.52084435 1.83303633 -29.0416737 1.66647858 -24.5625 1.5 C-23.28310547 1.45230469 -22.00371094 1.40460938 -20.68554688 1.35546875 C-19.47060547 1.31035156 -18.25566406 1.26523437 -17.00390625 1.21875 C-15.87799072 1.17685547 -14.7520752 1.13496094 -13.59204102 1.09179688 C-10.77716394 0.99210828 -8.24177618 1.18402522 -5.4375 1.5 C-4.61121094 1.5928125 -3.78492188 1.685625 -2.93359375 1.78125 C-2.29550781 1.8534375 -1.65742188 1.925625 -1 2 C-0.67 1.34 -0.34 0.68 0 0 Z " fill="#3D3C3C" transform="translate(264,273)"/>
<path d="M0 0 C0.66 0.33 1.32 0.66 2 1 C-1.3 4.3 -4.6 7.6 -8 11 C-8 7.0234755 -6.61988497 5.9109833 -4 3 C-1.75 1.1875 -1.75 1.1875 0 0 Z " fill="#2A2929" transform="translate(57,76)"/>
<path d="M0 0 C6.28260706 -0.23268915 11.88019467 0.59545452 18 2 C18 2.33 18 2.66 18 3 C5.33029613 3.3690205 5.33029613 3.3690205 0 1 C0 0.67 0 0.34 0 0 Z " fill="#3E3D3D" transform="translate(141,165)"/>
<path d="M0 0 C1.65 0 3.3 0 5 0 C4.34 0.66 3.68 1.32 3 2 C2.01 1.34 1.02 0.68 0 0 Z " fill="#2E2D2D" transform="translate(352,207)"/>
<path d="M0 0 C0.33 0.66 0.66 1.32 1 2 C-0.65 2 -2.3 2 -4 2 C-2.68 1.34 -1.36 0.68 0 0 Z " fill="#292728" transform="translate(294,194)"/>
<path d="M0 0 C0.66 0.33 1.32 0.66 2 1 C0.68 1.33 -0.64 1.66 -2 2 C-1.34 1.34 -0.68 0.68 0 0 Z " fill="#2E2E2E" transform="translate(93,263)"/>
<path d="M0 0 C1.65 0 3.3 0 5 0 C5 0.33 5 0.66 5 1 C3.35 1 1.7 1 0 1 C0 0.67 0 0.34 0 0 Z " fill="#2D2C2C" transform="translate(304,256)"/>
<path d="M0 0 C1.32 0.33 2.64 0.66 4 1 C3.01 1.495 3.01 1.495 2 2 C1.34 1.34 0.68 0.68 0 0 Z " fill="#2C2D2C" transform="translate(345,233)"/>
<path d="M0 0 C0.99 0.33 1.98 0.66 3 1 C2.01 1.33 1.02 1.66 0 2 C0 1.34 0 0.68 0 0 Z " fill="#282827" transform="translate(311,193)"/>
<path d="M0 0 C0.99 0.33 1.98 0.66 3 1 C2.01 1.33 1.02 1.66 0 2 C0 1.34 0 0.68 0 0 Z " fill="#2B2A29" transform="translate(215,193)"/>
<path d="M0 0 C0.33 1.32 0.66 2.64 1 4 C0.34 3.01 -0.32 2.02 -1 1 C-0.67 0.67 -0.34 0.34 0 0 Z " fill="#2D2D2C" transform="translate(464,93)"/>
<path d="M0 0 C4 1 4 1 4 1 Z " fill="#2A2A29" transform="translate(235,195)"/>
<path d="M0 0 C0.66 0.66 1.32 1.32 2 2 C1.01 1.67 0.02 1.34 -1 1 C-0.67 0.67 -0.34 0.34 0 0 Z " fill="#2C2A2A" transform="translate(307,193)"/>
<path d="M0 0 C4 1 4 1 4 1 Z " fill="#2B2B2B" transform="translate(375,185)"/>
<path d="M0 0 C0.99 0 1.98 0 3 0 C2.67 0.66 2.34 1.32 2 2 C1.34 1.34 0.68 0.68 0 0 Z " fill="#2B2A29" transform="translate(127,164)"/>
<path d="M0 0 C4 1 4 1 4 1 Z " fill="#292627" transform="translate(357,153)"/>
<path d="M0 0 C4 1 4 1 4 1 Z " fill="#2B2A29" transform="translate(168,153)"/>
<path d="M0 0 C4 1 4 1 4 1 Z " fill="#282727" transform="translate(242,149)"/>
<path d="M0 0 C4 1 4 1 4 1 Z " fill="#303030" transform="translate(160,63)"/>
<path d="M0 0 C0.66 0.66 1.32 1.32 2 2 C1.01 1.67 0.02 1.34 -1 1 C-0.67 0.67 -0.34 0.34 0 0 Z " fill="#373737" transform="translate(333,17)"/>
<path d="M0 0 C3 1 3 1 3 1 Z " fill="#2B2B2A" transform="translate(283,649)"/>
<path d="M0 0 C3 1 3 1 3 1 Z " fill="#2C2C2A" transform="translate(279,649)"/>
<path d="M0 0 C3 1 3 1 3 1 Z " fill="#312F2F" transform="translate(283,617)"/>
<path d="" fill="#333130" transform="translate(0,0)"/>
<path d="M0 0 C3 1 3 1 3 1 Z " fill="#292929" transform="translate(293,273)"/>
<path d="M0 0 C3 1 3 1 3 1 Z " fill="#2D2A2C" transform="translate(287,273)"/>
<path d="M0 0 C3 1 3 1 3 1 Z " fill="#30302E" transform="translate(383,260)"/>
<path d="M0 0 C3 1 3 1 3 1 Z " fill="#2F2C2C" transform="translate(328,254)"/>
<path d="M0 0 C3 1 3 1 3 1 Z " fill="#2D2B2B" transform="translate(354,233)"/>
<path d="M0 0 C3 1 3 1 3 1 Z " fill="#2C2C2A" transform="translate(172,233)"/>
<path d="M0 0 C3 1 3 1 3 1 Z " fill="#2D2C2B" transform="translate(419,217)"/>
<path d="M0 0 C0.66 0 1.32 0 2 0 C1.67 0.66 1.34 1.32 1 2 C0.67 1.34 0.34 0.68 0 0 Z " fill="#2C2C2C" transform="translate(455,194)"/>
<path d="M0 0 C3 1 3 1 3 1 Z " fill="#292828" transform="translate(319,193)"/>
<path d="M0 0 C0.33 0.66 0.66 1.32 1 2 C0.34 1.67 -0.32 1.34 -1 1 C-0.67 0.67 -0.34 0.34 0 0 Z " fill="#2C2B2A" transform="translate(220,193)"/>
<path d="M0 0 C0.66 0.66 1.32 1.32 2 2 C1.34 2 0.68 2 0 2 C0 1.34 0 0.68 0 0 Z " fill="#2C2D2B" transform="translate(370,185)"/>
<path d="M0 0 C3 1 3 1 3 1 Z " fill="#2B2A29" transform="translate(444,184)"/>
<path d="M0 0 C0.66 0.66 1.32 1.32 2 2 C1.34 2 0.68 2 0 2 C0 1.34 0 0.68 0 0 Z " fill="#2B2B2A" transform="translate(125,179)"/>
<path d="M0 0 C3 1 3 1 3 1 Z " fill="#2D2B2B" transform="translate(410,177)"/>
<path d="M0 0 C3 1 3 1 3 1 Z " fill="#2B292A" transform="translate(234,176)"/>
<path d="M0 0 C3 1 3 1 3 1 Z " fill="#2D2D2C" transform="translate(226,176)"/>
<path d="M0 0 C3 1 3 1 3 1 Z " fill="#292928" transform="translate(328,174)"/>
<path d="M0 0 C3 1 3 1 3 1 Z " fill="#2C2C2B" transform="translate(349,172)"/>
<path d="M0 0 C3 1 3 1 3 1 Z " fill="#2B2A2B" transform="translate(141,167)"/>
<path d="M0 0 C0.99 0.495 0.99 0.495 2 1 C1.01 1.495 1.01 1.495 0 2 C0 1.34 0 0.68 0 0 Z " fill="#2A292A" transform="translate(346,153)"/>
<path d="M0 0 C3 1 3 1 3 1 Z " fill="#2C2A29" transform="translate(295,149)"/>
<path d="M0 0 C0.66 0.66 1.32 1.32 2 2 C1.34 2 0.68 2 0 2 C0 1.34 0 0.68 0 0 Z " fill="#2B2828" transform="translate(126,145)"/>
<path d="M0 0 C3 1 3 1 3 1 Z " fill="#292828" transform="translate(120,145)"/>
<path d="M0 0 C0.33 0.66 0.66 1.32 1 2 C0.34 1.67 -0.32 1.34 -1 1 C-0.67 0.67 -0.34 0.34 0 0 Z " fill="#292827" transform="translate(472,140)"/>
<path d="M0 0 C3 1 3 1 3 1 Z " fill="#2A2828" transform="translate(455,129)"/>
<path d="M0 0 C0.66 0 1.32 0 2 0 C1.67 0.66 1.34 1.32 1 2 C0.67 1.34 0.34 0.68 0 0 Z " fill="#2E2C2B" transform="translate(61,122)"/>
<path d="M0 0 C3 1 3 1 3 1 Z " fill="#2E2B2A" transform="translate(55,121)"/>
<path d="M0 0 C3 1 3 1 3 1 Z " fill="#292A2A" transform="translate(451,65)"/>
<path d="M0 0 C3 1 3 1 3 1 Z " fill="#292828" transform="translate(426,57)"/>
<path d="M0 0 C3 1 3 1 3 1 Z " fill="#2D2C2D" transform="translate(137,49)"/>
<path d="M0 0 C3 1 3 1 3 1 Z " fill="#313131" transform="translate(139,25)"/>
<path d="M0 0 C3 1 3 1 3 1 Z " fill="#383736" transform="translate(135,25)"/>
<path d="M0 0 C0.66 0.66 1.32 1.32 2 2 C1.34 2 0.68 2 0 2 C0 1.34 0 0.68 0 0 Z " fill="#363535" transform="translate(195,17)"/>
<path d="M0 0 C2 1 2 1 2 1 Z " fill="#292929" transform="translate(287,649)"/>
<path d="M0 0 C2 1 2 1 2 1 Z " fill="#2D2B2A" transform="translate(276,649)"/>
<path d="M0 0 C2 1 2 1 2 1 Z " fill="#2C2B2B" transform="translate(340,641)"/>
<path d="" fill="#312F2F" transform="translate(0,0)"/>
<path d="M0 0 C2 1 2 1 2 1 Z " fill="#343131" transform="translate(168,635)"/>
<path d="M0 0 C2 1 2 1 2 1 Z " fill="#302F2F" transform="translate(210,631)"/>
<path d="M0 0 C2 1 2 1 2 1 Z " fill="#312F2F" transform="translate(192,628)"/>
<path d="M0 0 C2 1 2 1 2 1 Z " fill="#373737" transform="translate(127,625)"/>
<path d="M0 0 C2 1 2 1 2 1 Z " fill="#333030" transform="translate(247,617)"/>
<path d="M0 0 C2 1 2 1 2 1 Z " fill="#2F2F2F" transform="translate(242,617)"/>
<path d="M0 0 C2 1 2 1 2 1 Z " fill="#2D2D2C" transform="translate(358,604)"/>
<path d="" fill="#373636" transform="translate(0,0)"/>
<path d="M0 0 C2 1 2 1 2 1 Z " fill="#363635" transform="translate(112,558)"/>
<path d="" fill="#363533" transform="translate(0,0)"/>
<path d="" fill="#363636" transform="translate(0,0)"/>
<path d="" fill="#313133" transform="translate(0,0)"/>
<path d="" fill="#333233" transform="translate(0,0)"/>
<path d="" fill="#343433" transform="translate(0,0)"/>
<path d="" fill="#313031" transform="translate(0,0)"/>
<path d="" fill="#333332" transform="translate(0,0)"/>
<path d="M0 0 C2 1 2 1 2 1 Z " fill="#343233" transform="translate(384,278)"/>
<path d="M0 0 C2 1 2 1 2 1 Z " fill="#2A2B2C" transform="translate(267,274)"/>
<path d="M0 0 C2 1 2 1 2 1 Z " fill="#2B2A2B" transform="translate(279,273)"/>
<path d="M0 0 C2 1 2 1 2 1 Z " fill="#2B2A2A" transform="translate(276,273)"/>
<path d="M0 0 C2 1 2 1 2 1 Z " fill="#2A2829" transform="translate(261,273)"/>
<path d="M0 0 C2 1 2 1 2 1 Z " fill="#292829" transform="translate(231,273)"/>
<path d="M0 0 C2 1 2 1 2 1 Z " fill="#2C2C2D" transform="translate(162,265)"/>
<path d="M0 0 C2 1 2 1 2 1 Z " fill="#313031" transform="translate(225,256)"/>
<path d="M0 0 C2 1 2 1 2 1 Z " fill="#2E2C2E" transform="translate(201,254)"/>
<path d="" fill="#2F2D2D" transform="translate(0,0)"/>
<path d="M0 0 C2 1 2 1 2 1 Z " fill="#2B2A2A" transform="translate(107,250)"/>
<path d="M0 0 C2 1 2 1 2 1 Z " fill="#2C2A28" transform="translate(371,248)"/>
<path d="M0 0 C2 1 2 1 2 1 Z " fill="#2B2A28" transform="translate(368,248)"/>
<path d="M0 0 C2 1 2 1 2 1 Z " fill="#2E2D2C" transform="translate(151,247)"/>
<path d="" fill="#2E2E2D" transform="translate(0,0)"/>
<path d="" fill="#2B292A" transform="translate(0,0)"/>
<path d="M0 0 C2 1 2 1 2 1 Z " fill="#2B2929" transform="translate(78,226)"/>
<path d="M0 0 C2 1 2 1 2 1 Z " fill="#2A292B" transform="translate(391,225)"/>
<path d="M0 0 C2 1 2 1 2 1 Z " fill="#2A2A2A" transform="translate(133,225)"/>
<path d="M0 0 C2 1 2 1 2 1 Z " fill="#2D2C2C" transform="translate(93,212)"/>
<path d="M0 0 C2 1 2 1 2 1 Z " fill="#2E2E2D" transform="translate(434,209)"/>
<path d="" fill="#2D2B2B" transform="translate(0,0)"/>
<path d="" fill="#383635" transform="translate(0,0)"/>
<path d="M0 0 C2 1 2 1 2 1 Z " fill="#2C2929" transform="translate(286,195)"/>
<path d="M0 0 C2 1 2 1 2 1 Z " fill="#2B292A" transform="translate(303,194)"/>
<path d="M0 0 C2 1 2 1 2 1 Z " fill="#2B2B29" transform="translate(205,193)"/>
<path d="M0 0 C2 1 2 1 2 1 Z " fill="#2C2B2A" transform="translate(354,189)"/>
<path d="M0 0 C2 1 2 1 2 1 Z " fill="#2D2C2B" transform="translate(77,183)"/>
<path d="" fill="#302E2D" transform="translate(0,0)"/>
<path d="M0 0 C2 1 2 1 2 1 Z " fill="#2A2929" transform="translate(114,177)"/>
<path d="M0 0 C2 1 2 1 2 1 Z " fill="#2A2A2A" transform="translate(319,175)"/>
<path d="M0 0 C2 1 2 1 2 1 Z " fill="#2C2B29" transform="translate(97,171)"/>
<path d="M0 0 C2 1 2 1 2 1 Z " fill="#29292A" transform="translate(432,170)"/>
<path d="" fill="#2B2C2A" transform="translate(0,0)"/>
<path d="M0 0 C2 1 2 1 2 1 Z " fill="#282827" transform="translate(450,162)"/>
<path d="M0 0 C2 1 2 1 2 1 Z " fill="#2B2A29" transform="translate(419,160)"/>
<path d="M0 0 C2 1 2 1 2 1 Z " fill="#2E2A2C" transform="translate(106,159)"/>
<path d="" fill="#2B2A28" transform="translate(0,0)"/>
<path d="M0 0 C2 1 2 1 2 1 Z " fill="#292726" transform="translate(183,155)"/>
<path d="M0 0 C2 1 2 1 2 1 Z " fill="#272624" transform="translate(164,153)"/>
<path d="M0 0 C2 1 2 1 2 1 Z " fill="#2C2A2A" transform="translate(451,152)"/>
<path d="M0 0 C2 1 2 1 2 1 Z " fill="#2A2A28" transform="translate(405,145)"/>
<path d="M0 0 C2 1 2 1 2 1 Z " fill="#2B2A2B" transform="translate(57,142)"/>
<path d="M0 0 C2 1 2 1 2 1 Z " fill="#272628" transform="translate(91,137)"/>
<path d="M0 0 C2 1 2 1 2 1 Z " fill="#313031" transform="translate(293,132)"/>
<path d="M0 0 C2 1 2 1 2 1 Z " fill="#2F2E2E" transform="translate(343,129)"/>
<path d="M0 0 C2 1 2 1 2 1 Z " fill="#2B2B2B" transform="translate(335,129)"/>
<path d="M0 0 C2 1 2 1 2 1 Z " fill="#2F2D2E" transform="translate(186,129)"/>
<path d="M0 0 C2 1 2 1 2 1 Z " fill="#2E2C2A" transform="translate(391,121)"/>
<path d="" fill="#2E2D2D" transform="translate(0,0)"/>
<path d="" fill="#2F2C2C" transform="translate(0,0)"/>
<path d="" fill="#32312F" transform="translate(0,0)"/>
<path d="" fill="#32302F" transform="translate(0,0)"/>
<path d="M0 0 C2 1 2 1 2 1 Z " fill="#333131" transform="translate(436,80)"/>
<path d="M0 0 C2 1 2 1 2 1 Z " fill="#303130" transform="translate(440,79)"/>
<path d="M0 0 C2 1 2 1 2 1 Z " fill="#333232" transform="translate(431,76)"/>
<path d="" fill="#3E3E3E" transform="translate(0,0)"/>
<path d="M0 0 C2 1 2 1 2 1 Z " fill="#2C2B2B" transform="translate(74,65)"/>
<path d="M0 0 C2 1 2 1 2 1 Z " fill="#2A2828" transform="translate(71,65)"/>
<path d="" fill="#343433" transform="translate(0,0)"/>
<path d="M0 0 C2 1 2 1 2 1 Z " fill="#303230" transform="translate(367,63)"/>
<path d="M0 0 C2 1 2 1 2 1 Z " fill="#32312F" transform="translate(360,62)"/>
<path d="M0 0 C2 1 2 1 2 1 Z " fill="#323131" transform="translate(352,61)"/>
<path d="" fill="#323331" transform="translate(0,0)"/>
<path d="M0 0 C2 1 2 1 2 1 Z " fill="#31312F" transform="translate(177,61)"/>
<path d="" fill="#2D2C2C" transform="translate(0,0)"/>
<path d="M0 0 C2 1 2 1 2 1 Z " fill="#302F2D" transform="translate(392,49)"/>
<path d="M0 0 C2 1 2 1 2 1 Z " fill="#29292A" transform="translate(389,49)"/>
<path d="M0 0 C2 1 2 1 2 1 Z " fill="#2E2C2B" transform="translate(197,41)"/>
<path d="M0 0 C2 1 2 1 2 1 Z " fill="#31302F" transform="translate(347,37)"/>
<path d="M0 0 C2 1 2 1 2 1 Z " fill="#2F2F2E" transform="translate(189,36)"/>
<path d="M0 0 C2 1 2 1 2 1 Z " fill="#363434" transform="translate(430,34)"/>
<path d="M0 0 C2 1 2 1 2 1 Z " fill="#363635" transform="translate(394,26)"/>
<path d="M0 0 C2 1 2 1 2 1 Z " fill="#353434" transform="translate(390,25)"/>
<path d="" fill="#343332" transform="translate(0,0)"/>
<path d="" fill="#363636" transform="translate(0,0)"/>
<path d="" fill="#373535" transform="translate(0,0)"/>
<path d="" fill="#3A3739" transform="translate(0,0)"/>
<path d="" fill="#373835" transform="translate(0,0)"/>
<path d="" fill="#363634" transform="translate(0,0)"/>
<path d="" fill="#393736" transform="translate(0,0)"/>
<path d="" fill="#2A2C29" transform="translate(0,0)"/>
<path d="" fill="#272728" transform="translate(0,0)"/>
<path d="" fill="#2E2B2B" transform="translate(0,0)"/>
<path d="" fill="#2D2D2C" transform="translate(0,0)"/>
<path d="" fill="#2E2C2C" transform="translate(0,0)"/>
<path d="" fill="#2B2929" transform="translate(0,0)"/>
<path d="" fill="#2D2929" transform="translate(0,0)"/>
<path d="" fill="#2E2D2C" transform="translate(0,0)"/>
<path d="" fill="#2D2C2D" transform="translate(0,0)"/>
<path d="" fill="#2B2A29" transform="translate(0,0)"/>
<path d="" fill="#2A2A28" transform="translate(0,0)"/>
<path d="" fill="#383737" transform="translate(0,0)"/>
<path d="" fill="#2E2C2B" transform="translate(0,0)"/>
<path d="" fill="#312D2E" transform="translate(0,0)"/>
<path d="" fill="#2E2B2B" transform="translate(0,0)"/>
<path d="" fill="#2F2C2D" transform="translate(0,0)"/>
<path d="" fill="#2E2D2C" transform="translate(0,0)"/>
<path d="" fill="#2C2B2A" transform="translate(0,0)"/>
<path d="" fill="#2C2A2A" transform="translate(0,0)"/>
<path d="" fill="#2D2C2D" transform="translate(0,0)"/>
<path d="" fill="#302D2B" transform="translate(0,0)"/>
<path d="" fill="#383638" transform="translate(0,0)"/>
<path d="" fill="#2F2C2A" transform="translate(0,0)"/>
<path d="" fill="#302F30" transform="translate(0,0)"/>
<path d="" fill="#323130" transform="translate(0,0)"/>
<path d="" fill="#323232" transform="translate(0,0)"/>
<path d="" fill="#333030" transform="translate(0,0)"/>
<path d="" fill="#2E2C2D" transform="translate(0,0)"/>
<path d="" fill="#302E2E" transform="translate(0,0)"/>
<path d="" fill="#312F2F" transform="translate(0,0)"/>
<path d="" fill="#303031" transform="translate(0,0)"/>
<path d="" fill="#373837" transform="translate(0,0)"/>
<path d="" fill="#302E2F" transform="translate(0,0)"/>
<path d="" fill="#313230" transform="translate(0,0)"/>
<path d="" fill="#373735" transform="translate(0,0)"/>
<path d="" fill="#393737" transform="translate(0,0)"/>
<path d="" fill="#2F2D2B" transform="translate(0,0)"/>
<path d="" fill="#302F30" transform="translate(0,0)"/>
<path d="" fill="#2F2E2F" transform="translate(0,0)"/>
<path d="" fill="#2F2D2D" transform="translate(0,0)"/>
<path d="" fill="#333232" transform="translate(0,0)"/>
<path d="" fill="#323231" transform="translate(0,0)"/>
<path d="" fill="#353331" transform="translate(0,0)"/>
<path d="" fill="#313031" transform="translate(0,0)"/>
<path d="" fill="#373536" transform="translate(0,0)"/>
<path d="" fill="#2F2D2D" transform="translate(0,0)"/>
<path d="" fill="#333130" transform="translate(0,0)"/>
<path d="" fill="#32332F" transform="translate(0,0)"/>
<path d="" fill="#313330" transform="translate(0,0)"/>
<path d="" fill="#333130" transform="translate(0,0)"/>
<path d="" fill="#313331" transform="translate(0,0)"/>
<path d="" fill="#373634" transform="translate(0,0)"/>
<path d="" fill="#373432" transform="translate(0,0)"/>
<path d="" fill="#333432" transform="translate(0,0)"/>
<path d="" fill="#353433" transform="translate(0,0)"/>
<path d="" fill="#343534" transform="translate(0,0)"/>
<path d="" fill="#333232" transform="translate(0,0)"/>
<path d="" fill="#333131" transform="translate(0,0)"/>
<path d="" fill="#323231" transform="translate(0,0)"/>
<path d="" fill="#363637" transform="translate(0,0)"/>
<path d="" fill="#312E30" transform="translate(0,0)"/>
<path d="" fill="#333433" transform="translate(0,0)"/>
<path d="" fill="#353134" transform="translate(0,0)"/>
<path d="" fill="#353433" transform="translate(0,0)"/>
<path d="" fill="#333231" transform="translate(0,0)"/>
<path d="" fill="#373335" transform="translate(0,0)"/>
<path d="" fill="#353434" transform="translate(0,0)"/>
<path d="" fill="#313233" transform="translate(0,0)"/>
<path d="" fill="#373435" transform="translate(0,0)"/>
<path d="" fill="#373734" transform="translate(0,0)"/>
<path d="" fill="#383737" transform="translate(0,0)"/>
<path d="" fill="#393638" transform="translate(0,0)"/>
<path d="" fill="#343434" transform="translate(0,0)"/>
<path d="" fill="#343535" transform="translate(0,0)"/>
<path d="" fill="#30302F" transform="translate(0,0)"/>
<path d="" fill="#343434" transform="translate(0,0)"/>
<path d="" fill="#313231" transform="translate(0,0)"/>
<path d="" fill="#353433" transform="translate(0,0)"/>
<path d="" fill="#302C2C" transform="translate(0,0)"/>
<path d="" fill="#333132" transform="translate(0,0)"/>
<path d="" fill="#323130" transform="translate(0,0)"/>
<path d="" fill="#2E2D2C" transform="translate(0,0)"/>
<path d="" fill="#30302F" transform="translate(0,0)"/>
<path d="" fill="#2F2D2F" transform="translate(0,0)"/>
<path d="" fill="#353432" transform="translate(0,0)"/>
<path d="" fill="#373533" transform="translate(0,0)"/>
<path d="" fill="#343432" transform="translate(0,0)"/>
<path d="" fill="#343132" transform="translate(0,0)"/>
<path d="" fill="#343434" transform="translate(0,0)"/>
<path d="" fill="#343332" transform="translate(0,0)"/>
<path d="" fill="#333232" transform="translate(0,0)"/>
<path d="" fill="#353334" transform="translate(0,0)"/>
<path d="" fill="#393638" transform="translate(0,0)"/>
<path d="" fill="#353433" transform="translate(0,0)"/>
<path d="" fill="#373435" transform="translate(0,0)"/>
<path d="" fill="#363536" transform="translate(0,0)"/>
<path d="" fill="#363635" transform="translate(0,0)"/>
<path d="" fill="#343434" transform="translate(0,0)"/>
<path d="" fill="#353433" transform="translate(0,0)"/>
<path d="" fill="#353534" transform="translate(0,0)"/>
<path d="" fill="#353635" transform="translate(0,0)"/>
<path d="" fill="#383739" transform="translate(0,0)"/>
<path d="" fill="#343232" transform="translate(0,0)"/>
<path d="" fill="#323032" transform="translate(0,0)"/>
<path d="" fill="#373835" transform="translate(0,0)"/>
<path d="" fill="#363334" transform="translate(0,0)"/>
<path d="" fill="#343332" transform="translate(0,0)"/>
<path d="" fill="#343234" transform="translate(0,0)"/>
<path d="" fill="#343333" transform="translate(0,0)"/>
<path d="" fill="#343233" transform="translate(0,0)"/>
<path d="" fill="#343234" transform="translate(0,0)"/>
<path d="" fill="#363435" transform="translate(0,0)"/>
<path d="" fill="#363535" transform="translate(0,0)"/>
<path d="" fill="#393735" transform="translate(0,0)"/>
<path d="" fill="#363234" transform="translate(0,0)"/>
<path d="" fill="#373537" transform="translate(0,0)"/>
<path d="" fill="#393735" transform="translate(0,0)"/>
<path d="" fill="#343133" transform="translate(0,0)"/>
<path d="" fill="#343131" transform="translate(0,0)"/>
<path d="" fill="#343332" transform="translate(0,0)"/>
<path d="" fill="#363634" transform="translate(0,0)"/>
<path d="" fill="#343333" transform="translate(0,0)"/>
<path d="" fill="#343232" transform="translate(0,0)"/>
<path d="" fill="#353233" transform="translate(0,0)"/>
<path d="" fill="#363534" transform="translate(0,0)"/>
<path d="" fill="#353634" transform="translate(0,0)"/>
<path d="" fill="#343433" transform="translate(0,0)"/>
<path d="" fill="#353434" transform="translate(0,0)"/>
<path d="" fill="#353436" transform="translate(0,0)"/>
<path d="" fill="#353532" transform="translate(0,0)"/>
<path d="" fill="#353331" transform="translate(0,0)"/>
<path d="" fill="#343433" transform="translate(0,0)"/>
<path d="" fill="#313231" transform="translate(0,0)"/>
<path d="" fill="#363635" transform="translate(0,0)"/>
<path d="" fill="#2C2C2B" transform="translate(0,0)"/>
<path d="" fill="#2B2B2C" transform="translate(0,0)"/>
<path d="" fill="#2B292B" transform="translate(0,0)"/>
<path d="" fill="#2C2E2B" transform="translate(0,0)"/>
<path d="" fill="#272525" transform="translate(0,0)"/>
<path d="" fill="#2F2C2C" transform="translate(0,0)"/>
<path d="" fill="#353331" transform="translate(0,0)"/>
<path d="" fill="#313030" transform="translate(0,0)"/>
<path d="" fill="#2D2E2C" transform="translate(0,0)"/>
<path d="" fill="#2F2F2E" transform="translate(0,0)"/>
<path d="" fill="#313131" transform="translate(0,0)"/>
<path d="" fill="#2E2C2D" transform="translate(0,0)"/>
<path d="" fill="#2F2D2F" transform="translate(0,0)"/>
<path d="" fill="#2B2729" transform="translate(0,0)"/>
<path d="" fill="#2C2B2B" transform="translate(0,0)"/>
<path d="" fill="#2C2A2B" transform="translate(0,0)"/>
<path d="" fill="#2C2E2E" transform="translate(0,0)"/>
<path d="" fill="#31312F" transform="translate(0,0)"/>
<path d="" fill="#2D2E2E" transform="translate(0,0)"/>
<path d="" fill="#2F2C2D" transform="translate(0,0)"/>
<path d="" fill="#2F2E2F" transform="translate(0,0)"/>
<path d="" fill="#262628" transform="translate(0,0)"/>
<path d="" fill="#2D2C2C" transform="translate(0,0)"/>
<path d="" fill="#2F312F" transform="translate(0,0)"/>
<path d="" fill="#2E2F2E" transform="translate(0,0)"/>
<path d="" fill="#292829" transform="translate(0,0)"/>
<path d="" fill="#302B2E" transform="translate(0,0)"/>
<path d="" fill="#2F2F2D" transform="translate(0,0)"/>
<path d="" fill="#2E2D2D" transform="translate(0,0)"/>
<path d="" fill="#2E2E2C" transform="translate(0,0)"/>
<path d="" fill="#312F30" transform="translate(0,0)"/>
<path d="" fill="#322F2E" transform="translate(0,0)"/>
<path d="" fill="#30322E" transform="translate(0,0)"/>
<path d="" fill="#2D2D2E" transform="translate(0,0)"/>
<path d="" fill="#2F2D2C" transform="translate(0,0)"/>
<path d="" fill="#2B2C2A" transform="translate(0,0)"/>
<path d="" fill="#2B2A2B" transform="translate(0,0)"/>
<path d="" fill="#292929" transform="translate(0,0)"/>
<path d="" fill="#2D2E2E" transform="translate(0,0)"/>
<path d="" fill="#2C2B29" transform="translate(0,0)"/>
<path d="" fill="#2D2B2D" transform="translate(0,0)"/>
<path d="" fill="#302F2E" transform="translate(0,0)"/>
<path d="" fill="#2D2C2B" transform="translate(0,0)"/>
<path d="" fill="#2F2B2D" transform="translate(0,0)"/>
<path d="" fill="#2E2B2A" transform="translate(0,0)"/>
<path d="" fill="#2B2C2A" transform="translate(0,0)"/>
<path d="" fill="#2C2B2B" transform="translate(0,0)"/>
<path d="" fill="#2E2F2B" transform="translate(0,0)"/>
<path d="" fill="#333231" transform="translate(0,0)"/>
<path d="" fill="#312F2D" transform="translate(0,0)"/>
<path d="" fill="#2D2D2A" transform="translate(0,0)"/>
<path d="" fill="#292727" transform="translate(0,0)"/>
<path d="" fill="#2D2D2D" transform="translate(0,0)"/>
<path d="" fill="#2B2A2C" transform="translate(0,0)"/>
<path d="" fill="#2E2E2C" transform="translate(0,0)"/>
<path d="" fill="#2B2929" transform="translate(0,0)"/>
<path d="" fill="#2F2D2E" transform="translate(0,0)"/>
<path d="" fill="#2A2B2B" transform="translate(0,0)"/>
<path d="" fill="#2C2C2C" transform="translate(0,0)"/>
<path d="" fill="#2F2D2F" transform="translate(0,0)"/>
<path d="" fill="#2C2D2A" transform="translate(0,0)"/>
<path d="" fill="#2A2728" transform="translate(0,0)"/>
<path d="" fill="#2F2C2D" transform="translate(0,0)"/>
<path d="" fill="#2E2D2D" transform="translate(0,0)"/>
<path d="" fill="#2D2E2B" transform="translate(0,0)"/>
<path d="" fill="#2C2C2B" transform="translate(0,0)"/>
<path d="" fill="#2C2F2E" transform="translate(0,0)"/>
<path d="" fill="#2D2C2C" transform="translate(0,0)"/>
<path d="" fill="#2D2A29" transform="translate(0,0)"/>
<path d="" fill="#2B292A" transform="translate(0,0)"/>
<path d="" fill="#30332F" transform="translate(0,0)"/>
<path d="" fill="#2F2C2C" transform="translate(0,0)"/>
<path d="" fill="#2B2928" transform="translate(0,0)"/>
<path d="" fill="#2E2D2C" transform="translate(0,0)"/>
<path d="" fill="#302D2F" transform="translate(0,0)"/>
<path d="" fill="#2F2E2E" transform="translate(0,0)"/>
<path d="" fill="#2D2D2B" transform="translate(0,0)"/>
<path d="" fill="#302E2E" transform="translate(0,0)"/>
<path d="" fill="#2F2E2F" transform="translate(0,0)"/>
<path d="" fill="#303030" transform="translate(0,0)"/>
<path d="" fill="#2E302E" transform="translate(0,0)"/>
<path d="" fill="#272426" transform="translate(0,0)"/>
<path d="" fill="#353231" transform="translate(0,0)"/>
<path d="" fill="#302E2E" transform="translate(0,0)"/>
<path d="" fill="#2E2B2B" transform="translate(0,0)"/>
<path d="" fill="#2B2C2C" transform="translate(0,0)"/>
<path d="" fill="#2B2C2A" transform="translate(0,0)"/>
<path d="" fill="#353232" transform="translate(0,0)"/>
<path d="" fill="#2E2C2C" transform="translate(0,0)"/>
<path d="" fill="#2E2D2C" transform="translate(0,0)"/>
<path d="" fill="#2F2C2E" transform="translate(0,0)"/>
<path d="" fill="#2C2C2B" transform="translate(0,0)"/>
<path d="" fill="#2D2F2C" transform="translate(0,0)"/>
<path d="" fill="#302E2F" transform="translate(0,0)"/>
<path d="" fill="#2C2B2A" transform="translate(0,0)"/>
<path d="" fill="#2D2B2C" transform="translate(0,0)"/>
<path d="" fill="#2B2A2A" transform="translate(0,0)"/>
<path d="" fill="#2F2D2C" transform="translate(0,0)"/>
<path d="" fill="#2F2C2A" transform="translate(0,0)"/>
<path d="" fill="#2E2C2C" transform="translate(0,0)"/>
<path d="" fill="#2C2C2D" transform="translate(0,0)"/>
<path d="" fill="#2D2B2B" transform="translate(0,0)"/>
<path d="" fill="#2D2F2C" transform="translate(0,0)"/>
<path d="" fill="#2F2D2E" transform="translate(0,0)"/>
<path d="" fill="#302F2F" transform="translate(0,0)"/>
<path d="" fill="#302D2D" transform="translate(0,0)"/>
<path d="" fill="#2B2A29" transform="translate(0,0)"/>
<path d="" fill="#2D2C29" transform="translate(0,0)"/>
<path d="" fill="#383635" transform="translate(0,0)"/>
<path d="" fill="#2E2E2D" transform="translate(0,0)"/>
<path d="" fill="#302F2E" transform="translate(0,0)"/>
<path d="" fill="#2E2C2B" transform="translate(0,0)"/>
<path d="" fill="#2F2D2E" transform="translate(0,0)"/>
<path d="" fill="#2D2C2B" transform="translate(0,0)"/>
<path d="" fill="#32302E" transform="translate(0,0)"/>
<path d="" fill="#2F2F2E" transform="translate(0,0)"/>
<path d="" fill="#333234" transform="translate(0,0)"/>
<path d="" fill="#2D2F2D" transform="translate(0,0)"/>
<path d="" fill="#2E2C2A" transform="translate(0,0)"/>
<path d="" fill="#2D2C2C" transform="translate(0,0)"/>
<path d="" fill="#2B2C2D" transform="translate(0,0)"/>
<path d="" fill="#272525" transform="translate(0,0)"/>
<path d="" fill="#2D2D2C" transform="translate(0,0)"/>
<path d="" fill="#2C2B2D" transform="translate(0,0)"/>
<path d="" fill="#2C2D2A" transform="translate(0,0)"/>
<path d="" fill="#2B2929" transform="translate(0,0)"/>
<path d="" fill="#2F2D2D" transform="translate(0,0)"/>
<path d="" fill="#292927" transform="translate(0,0)"/>
<path d="" fill="#2A2928" transform="translate(0,0)"/>
<path d="" fill="#2A2827" transform="translate(0,0)"/>
<path d="" fill="#292829" transform="translate(0,0)"/>
<path d="" fill="#302F2D" transform="translate(0,0)"/>
<path d="" fill="#302C2C" transform="translate(0,0)"/>
<path d="" fill="#2E2D2C" transform="translate(0,0)"/>
<path d="" fill="#2C2B2A" transform="translate(0,0)"/>
<path d="" fill="#2B2A28" transform="translate(0,0)"/>
<path d="" fill="#2D2B2B" transform="translate(0,0)"/>
<path d="" fill="#333234" transform="translate(0,0)"/>
<path d="" fill="#2F2E2E" transform="translate(0,0)"/>
<path d="" fill="#2C2B2A" transform="translate(0,0)"/>
<path d="" fill="#2D2C29" transform="translate(0,0)"/>
<path d="" fill="#302F30" transform="translate(0,0)"/>
<path d="" fill="#2D2B2B" transform="translate(0,0)"/>
<path d="" fill="#292927" transform="translate(0,0)"/>
<path d="" fill="#2F2E2F" transform="translate(0,0)"/>
<path d="" fill="#292829" transform="translate(0,0)"/>
<path d="" fill="#2B2C2C" transform="translate(0,0)"/>
<path d="" fill="#2C2B2C" transform="translate(0,0)"/>
<path d="" fill="#2A282A" transform="translate(0,0)"/>
<path d="" fill="#2B2C2B" transform="translate(0,0)"/>
<path d="" fill="#2B2B2A" transform="translate(0,0)"/>
<path d="" fill="#2D2B29" transform="translate(0,0)"/>
<path d="" fill="#2A2A2A" transform="translate(0,0)"/>
<path d="" fill="#2D2D2A" transform="translate(0,0)"/>
<path d="" fill="#2B2928" transform="translate(0,0)"/>
<path d="" fill="#2C2A2C" transform="translate(0,0)"/>
<path d="" fill="#2C2D2D" transform="translate(0,0)"/>
<path d="" fill="#2C2B2C" transform="translate(0,0)"/>
<path d="" fill="#2F2B2C" transform="translate(0,0)"/>
<path d="" fill="#2D2D2D" transform="translate(0,0)"/>
<path d="" fill="#2E2D2D" transform="translate(0,0)"/>
<path d="" fill="#2E2B2E" transform="translate(0,0)"/>
<path d="" fill="#2E2D2C" transform="translate(0,0)"/>
<path d="" fill="#2E2D2C" transform="translate(0,0)"/>
<path d="" fill="#2C2A2A" transform="translate(0,0)"/>
<path d="" fill="#2E2A29" transform="translate(0,0)"/>
<path d="" fill="#2F2F2C" transform="translate(0,0)"/>
<path d="" fill="#2C2D2C" transform="translate(0,0)"/>
<path d="" fill="#2E2C2C" transform="translate(0,0)"/>
<path d="" fill="#2C2D2A" transform="translate(0,0)"/>
<path d="" fill="#2D2E2E" transform="translate(0,0)"/>
<path d="" fill="#2A292A" transform="translate(0,0)"/>
<path d="" fill="#282728" transform="translate(0,0)"/>
<path d="" fill="#2B2A29" transform="translate(0,0)"/>
<path d="" fill="#2A2928" transform="translate(0,0)"/>
<path d="" fill="#2C2D2B" transform="translate(0,0)"/>
<path d="" fill="#282728" transform="translate(0,0)"/>
<path d="" fill="#292B28" transform="translate(0,0)"/>
<path d="" fill="#2C2B2B" transform="translate(0,0)"/>
<path d="" fill="#2C2A2A" transform="translate(0,0)"/>
<path d="" fill="#2B2A2B" transform="translate(0,0)"/>
<path d="" fill="#2A2B2A" transform="translate(0,0)"/>
<path d="" fill="#2D2C2B" transform="translate(0,0)"/>
<path d="" fill="#2A2A27" transform="translate(0,0)"/>
<path d="" fill="#2A2828" transform="translate(0,0)"/>
<path d="" fill="#292527" transform="translate(0,0)"/>
<path d="" fill="#282626" transform="translate(0,0)"/>
<path d="" fill="#262526" transform="translate(0,0)"/>
<path d="" fill="#323031" transform="translate(0,0)"/>
<path d="" fill="#262525" transform="translate(0,0)"/>
<path d="" fill="#2A292B" transform="translate(0,0)"/>
<path d="" fill="#2C2C29" transform="translate(0,0)"/>
<path d="" fill="#2A2928" transform="translate(0,0)"/>
<path d="" fill="#292727" transform="translate(0,0)"/>
<path d="" fill="#292B29" transform="translate(0,0)"/>
<path d="" fill="#2B2829" transform="translate(0,0)"/>
<path d="" fill="#272827" transform="translate(0,0)"/>
<path d="" fill="#272823" transform="translate(0,0)"/>
<path d="" fill="#2E2F2D" transform="translate(0,0)"/>
<path d="" fill="#262525" transform="translate(0,0)"/>
<path d="" fill="#2A2B2A" transform="translate(0,0)"/>
<path d="" fill="#262423" transform="translate(0,0)"/>
<path d="" fill="#292728" transform="translate(0,0)"/>
<path d="" fill="#2C282A" transform="translate(0,0)"/>
<path d="" fill="#292A2A" transform="translate(0,0)"/>
<path d="" fill="#2C2A28" transform="translate(0,0)"/>
<path d="" fill="#2D2C29" transform="translate(0,0)"/>
<path d="" fill="#2A2A28" transform="translate(0,0)"/>
<path d="" fill="#2A2927" transform="translate(0,0)"/>
<path d="" fill="#29282C" transform="translate(0,0)"/>
<path d="" fill="#2D2C2C" transform="translate(0,0)"/>
<path d="" fill="#2D2B2C" transform="translate(0,0)"/>
<path d="" fill="#2C2929" transform="translate(0,0)"/>
<path d="" fill="#2C2A29" transform="translate(0,0)"/>
<path d="" fill="#2D2A2A" transform="translate(0,0)"/>
<path d="" fill="#292729" transform="translate(0,0)"/>
<path d="" fill="#2A2928" transform="translate(0,0)"/>
<path d="" fill="#2C292A" transform="translate(0,0)"/>
<path d="" fill="#292727" transform="translate(0,0)"/>
<path d="" fill="#292927" transform="translate(0,0)"/>
<path d="" fill="#2E2C2B" transform="translate(0,0)"/>
<path d="" fill="#2C2829" transform="translate(0,0)"/>
<path d="" fill="#292829" transform="translate(0,0)"/>
<path d="" fill="#2B2929" transform="translate(0,0)"/>
<path d="" fill="#2D2E2D" transform="translate(0,0)"/>
<path d="" fill="#2C2A2A" transform="translate(0,0)"/>
<path d="" fill="#2C2A2A" transform="translate(0,0)"/>
<path d="" fill="#2E2E2B" transform="translate(0,0)"/>
<path d="" fill="#2C2B2C" transform="translate(0,0)"/>
<path d="" fill="#2E2B2C" transform="translate(0,0)"/>
<path d="" fill="#2D2C2A" transform="translate(0,0)"/>
<path d="" fill="#2C2A29" transform="translate(0,0)"/>
<path d="" fill="#2D2A2C" transform="translate(0,0)"/>
<path d="" fill="#2F2D2E" transform="translate(0,0)"/>
<path d="" fill="#2C2B2C" transform="translate(0,0)"/>
<path d="" fill="#2D2E2B" transform="translate(0,0)"/>
<path d="" fill="#272623" transform="translate(0,0)"/>
<path d="" fill="#2C2B2A" transform="translate(0,0)"/>
<path d="" fill="#2B2B2C" transform="translate(0,0)"/>
<path d="" fill="#2B2A2B" transform="translate(0,0)"/>
<path d="" fill="#2C2928" transform="translate(0,0)"/>
<path d="" fill="#2B282B" transform="translate(0,0)"/>
<path d="" fill="#2C2B2C" transform="translate(0,0)"/>
<path d="" fill="#333334" transform="translate(0,0)"/>
<path d="" fill="#2B2928" transform="translate(0,0)"/>
<path d="" fill="#323232" transform="translate(0,0)"/>
<path d="" fill="#323332" transform="translate(0,0)"/>
<path d="" fill="#2B2A29" transform="translate(0,0)"/>
<path d="" fill="#343332" transform="translate(0,0)"/>
<path d="" fill="#343334" transform="translate(0,0)"/>
<path d="" fill="#323332" transform="translate(0,0)"/>
<path d="" fill="#2B2C2A" transform="translate(0,0)"/>
<path d="" fill="#30302F" transform="translate(0,0)"/>
<path d="" fill="#343233" transform="translate(0,0)"/>
<path d="" fill="#343232" transform="translate(0,0)"/>
<path d="" fill="#302F2F" transform="translate(0,0)"/>
<path d="" fill="#2D2B2D" transform="translate(0,0)"/>
<path d="" fill="#2F2E2E" transform="translate(0,0)"/>
<path d="" fill="#2F2E2D" transform="translate(0,0)"/>
<path d="" fill="#2F302D" transform="translate(0,0)"/>
<path d="" fill="#343533" transform="translate(0,0)"/>
<path d="" fill="#2E2B2A" transform="translate(0,0)"/>
<path d="" fill="#2F302F" transform="translate(0,0)"/>
<path d="" fill="#2A2A29" transform="translate(0,0)"/>
<path d="" fill="#332F2F" transform="translate(0,0)"/>
<path d="" fill="#353333" transform="translate(0,0)"/>
<path d="" fill="#2D2C2A" transform="translate(0,0)"/>
<path d="" fill="#302E2F" transform="translate(0,0)"/>
<path d="" fill="#302E2D" transform="translate(0,0)"/>
<path d="" fill="#302E2F" transform="translate(0,0)"/>
<path d="" fill="#2F302F" transform="translate(0,0)"/>
<path d="" fill="#2E2C2D" transform="translate(0,0)"/>
<path d="" fill="#2F2E2F" transform="translate(0,0)"/>
<path d="" fill="#2D2A2B" transform="translate(0,0)"/>
<path d="" fill="#2B292B" transform="translate(0,0)"/>
<path d="" fill="#2D2E2A" transform="translate(0,0)"/>
<path d="" fill="#373535" transform="translate(0,0)"/>
<path d="" fill="#2E2E2B" transform="translate(0,0)"/>
<path d="" fill="#312F2D" transform="translate(0,0)"/>
<path d="" fill="#373735" transform="translate(0,0)"/>
<path d="" fill="#2E2D2C" transform="translate(0,0)"/>
<path d="" fill="#2D2D2B" transform="translate(0,0)"/>
<path d="" fill="#2F2F2C" transform="translate(0,0)"/>
<path d="" fill="#2B2929" transform="translate(0,0)"/>
<path d="" fill="#3C3B3A" transform="translate(0,0)"/>
<path d="" fill="#2E2D2B" transform="translate(0,0)"/>
<path d="" fill="#2D2D2C" transform="translate(0,0)"/>
<path d="" fill="#3C3A3B" transform="translate(0,0)"/>
<path d="" fill="#2E2B2B" transform="translate(0,0)"/>
<path d="" fill="#2B2A27" transform="translate(0,0)"/>
<path d="" fill="#302F2D" transform="translate(0,0)"/>
<path d="" fill="#2F2D2B" transform="translate(0,0)"/>
<path d="" fill="#30302D" transform="translate(0,0)"/>
<path d="" fill="#30302E" transform="translate(0,0)"/>
<path d="" fill="#2F2E2C" transform="translate(0,0)"/>
<path d="" fill="#3D3C3B" transform="translate(0,0)"/>
<path d="" fill="#343331" transform="translate(0,0)"/>
<path d="" fill="#2E2C2C" transform="translate(0,0)"/>
<path d="" fill="#2F2E2E" transform="translate(0,0)"/>
<path d="" fill="#2F2E2F" transform="translate(0,0)"/>
<path d="" fill="#333030" transform="translate(0,0)"/>
<path d="" fill="#31322F" transform="translate(0,0)"/>
<path d="" fill="#353032" transform="translate(0,0)"/>
<path d="" fill="#343231" transform="translate(0,0)"/>
<path d="" fill="#313030" transform="translate(0,0)"/>
<path d="" fill="#343534" transform="translate(0,0)"/>
<path d="" fill="#302C2E" transform="translate(0,0)"/>
<path d="" fill="#403F3E" transform="translate(0,0)"/>
<path d="" fill="#272629" transform="translate(0,0)"/>
<path d="" fill="#282829" transform="translate(0,0)"/>
<path d="" fill="#302E2F" transform="translate(0,0)"/>
<path d="" fill="#424040" transform="translate(0,0)"/>
<path d="" fill="#27272A" transform="translate(0,0)"/>
<path d="" fill="#302E2F" transform="translate(0,0)"/>
<path d="" fill="#312F2E" transform="translate(0,0)"/>
<path d="" fill="#312F2F" transform="translate(0,0)"/>
<path d="" fill="#323131" transform="translate(0,0)"/>
<path d="" fill="#343232" transform="translate(0,0)"/>
<path d="" fill="#313130" transform="translate(0,0)"/>
<path d="" fill="#2F2E2F" transform="translate(0,0)"/>
<path d="" fill="#313030" transform="translate(0,0)"/>
<path d="" fill="#2F2D2C" transform="translate(0,0)"/>
<path d="" fill="#292927" transform="translate(0,0)"/>
<path d="" fill="#2E2C2D" transform="translate(0,0)"/>
<path d="" fill="#303030" transform="translate(0,0)"/>
<path d="" fill="#2E2E2D" transform="translate(0,0)"/>
<path d="" fill="#312F2F" transform="translate(0,0)"/>
<path d="" fill="#2E2E2E" transform="translate(0,0)"/>
<path d="" fill="#333232" transform="translate(0,0)"/>
<path d="" fill="#31322F" transform="translate(0,0)"/>
<path d="" fill="#333231" transform="translate(0,0)"/>
<path d="" fill="#322F30" transform="translate(0,0)"/>
<path d="" fill="#2D2D2C" transform="translate(0,0)"/>
<path d="" fill="#313130" transform="translate(0,0)"/>
<path d="" fill="#333132" transform="translate(0,0)"/>
<path d="" fill="#30322F" transform="translate(0,0)"/>
<path d="" fill="#2E2D2C" transform="translate(0,0)"/>
<path d="" fill="#3E3F3B" transform="translate(0,0)"/>
<path d="" fill="#2E2A2B" transform="translate(0,0)"/>
<path d="" fill="#2B2828" transform="translate(0,0)"/>
<path d="" fill="#2E2D2C" transform="translate(0,0)"/>
<path d="" fill="#2A2927" transform="translate(0,0)"/>
<path d="" fill="#2E2C2C" transform="translate(0,0)"/>
<path d="" fill="#3C3A3A" transform="translate(0,0)"/>
<path d="" fill="#2F2E2D" transform="translate(0,0)"/>
<path d="" fill="#2F2D2D" transform="translate(0,0)"/>
<path d="" fill="#2D2D2B" transform="translate(0,0)"/>
<path d="" fill="#2F2F2C" transform="translate(0,0)"/>
<path d="" fill="#3E3C39" transform="translate(0,0)"/>
<path d="" fill="#2A2B2A" transform="translate(0,0)"/>
<path d="" fill="#323030" transform="translate(0,0)"/>
<path d="" fill="#3B3B3A" transform="translate(0,0)"/>
<path d="" fill="#2E2D2F" transform="translate(0,0)"/>
<path d="" fill="#2F2F2D" transform="translate(0,0)"/>
<path d="" fill="#2F2D2E" transform="translate(0,0)"/>
<path d="" fill="#2E2E2D" transform="translate(0,0)"/>
<path d="" fill="#2D2D2B" transform="translate(0,0)"/>
<path d="" fill="#2E2D2E" transform="translate(0,0)"/>
<path d="" fill="#2D2B2A" transform="translate(0,0)"/>
<path d="" fill="#2F2B2B" transform="translate(0,0)"/>
<path d="" fill="#302F2E" transform="translate(0,0)"/>
<path d="" fill="#272825" transform="translate(0,0)"/>
<path d="" fill="#302F2F" transform="translate(0,0)"/>
<path d="" fill="#2F2E2D" transform="translate(0,0)"/>
<path d="" fill="#2B2A29" transform="translate(0,0)"/>
<path d="" fill="#2E2A2C" transform="translate(0,0)"/>
<path d="" fill="#2B272A" transform="translate(0,0)"/>
<path d="" fill="#2E2C2F" transform="translate(0,0)"/>
<path d="" fill="#2E2D2C" transform="translate(0,0)"/>
<path d="" fill="#2E2D2E" transform="translate(0,0)"/>
<path d="" fill="#2D2C2C" transform="translate(0,0)"/>
<path d="" fill="#383737" transform="translate(0,0)"/>
<path d="" fill="#302B2C" transform="translate(0,0)"/>
<path d="" fill="#2E2D2D" transform="translate(0,0)"/>
<path d="" fill="#2F2D2E" transform="translate(0,0)"/>
<path d="" fill="#2D2A2C" transform="translate(0,0)"/>
<path d="" fill="#2E2D2B" transform="translate(0,0)"/>
<path d="" fill="#2F2F2F" transform="translate(0,0)"/>
<path d="" fill="#2E2E2C" transform="translate(0,0)"/>
<path d="" fill="#2C2B2A" transform="translate(0,0)"/>
<path d="" fill="#322F2F" transform="translate(0,0)"/>
<path d="" fill="#312D2F" transform="translate(0,0)"/>
<path d="" fill="#363737" transform="translate(0,0)"/>
<path d="" fill="#2E2F2B" transform="translate(0,0)"/>
<path d="" fill="#3A3A39" transform="translate(0,0)"/>
<path d="" fill="#3C3939" transform="translate(0,0)"/>
<path d="" fill="#383A36" transform="translate(0,0)"/>
<path d="" fill="#383634" transform="translate(0,0)"/>
<path d="" fill="#303031" transform="translate(0,0)"/>
<path d="" fill="#3A3937" transform="translate(0,0)"/>
<path d="" fill="#3A3738" transform="translate(0,0)"/>
<path d="" fill="#3B3837" transform="translate(0,0)"/>
<path d="" fill="#363535" transform="translate(0,0)"/>
<path d="" fill="#373734" transform="translate(0,0)"/>
<path d="" fill="#3A3839" transform="translate(0,0)"/>
<path d="" fill="#383B37" transform="translate(0,0)"/>
<path d="" fill="#3B3939" transform="translate(0,0)"/>
<path d="" fill="#383638" transform="translate(0,0)"/>
<path d="" fill="#303531" transform="translate(0,0)"/>
<path d="" fill="#2B2A29" transform="translate(0,0)"/>
<path d="" fill="#343334" transform="translate(0,0)"/>
</svg>
