<?xml version="1.0" encoding="UTF-8"?>
<svg version="1.1" xmlns="http://www.w3.org/2000/svg" width="1024" height="1024">
<path d="M0 0 C0 0.66 0 1.32 0 2 C1.28060303 2.2578125 2.56120605 2.515625 3.88061523 2.78125 C9.06427867 3.93723113 13.94147609 5.64304371 18.91015625 7.5 C19.8539212 7.84752823 20.79768616 8.19505646 21.77005005 8.55311584 C24.86968441 9.69634922 27.96610283 10.84803065 31.0625 12 C33.25482061 12.81085381 35.44728738 13.62131253 37.63989258 14.43139648 C54.51208909 20.67296258 71.35611442 26.9901974 88.19506836 33.32080078 C101.65649225 38.38047504 115.13361414 43.39578932 128.625 48.375 C130.4978847 49.06656741 132.37076882 49.75813643 134.24365234 50.44970703 C142.44950679 53.47894553 150.65633168 56.5055368 158.86474609 59.52783203 C164.84545367 61.73002817 170.82487466 63.93569095 176.8036499 66.14312744 C179.09163168 66.98713638 181.38006304 67.82992789 183.66900635 68.67132568 C191.12600533 71.41268333 198.57039834 74.18520324 206 77 C207.12758728 77.426297 208.25517456 77.85259399 209.41693115 78.29180908 C212.8193088 79.58662528 216.21331519 80.90131474 219.60546875 82.22265625 C221.14488884 82.80725868 221.14488884 82.80725868 222.71540833 83.40367126 C232.8347943 87.39633021 242.35468991 93.5657767 247.2890625 103.62890625 C248.27563609 106.06694962 249.17511596 108.50317358 250 111 C250.33 111.99 250.66 112.98 251 114 C252.79777796 126.82670135 252.14406516 140.04519808 252.1328125 152.95703125 C252.13366655 154.92208133 252.13452763 156.88713144 252.13586229 158.85218126 C252.14163234 167.42562 252.13531817 175.99903205 252.12700987 184.57246685 C252.12433168 187.55734891 252.12249451 190.54223122 252.12067896 193.52711391 C252.1069422 215.84609104 252.06509252 238.16496434 252.00657177 260.48386669 C251.99997237 263.01057852 251.9935266 265.53729072 251.98709869 268.06400299 C251.93542816 288.18484178 251.86721532 308.3055209 251.76107025 328.42615223 C251.75255496 330.04080516 251.74404309 331.65545811 251.73553467 333.27011108 C251.72923538 334.46243384 251.72923538 334.46243384 251.72280884 335.67884392 C251.69395008 341.27112146 251.67249287 346.86339809 251.65411377 352.45571899 C251.63149226 359.28574848 251.59826944 366.11562772 251.55149907 372.9455362 C251.52783749 376.43535658 251.50873923 379.92503571 251.50235176 383.41493416 C251.49276464 387.21158629 251.46486364 391.00768371 251.43237305 394.80419922 C251.43380877 395.90139188 251.43524448 396.99858454 251.43672371 398.12902546 C251.32324616 407.4374624 249.79616271 415.49908355 244 423 C243.26523437 423.96292969 242.53046875 424.92585938 241.7734375 425.91796875 C239.11884855 429.07156239 236.10797767 431.1168865 232.5 433.0625 C231.82042236 433.43624756 231.14084473 433.80999512 230.44067383 434.19506836 C220.59502604 439.46016038 210.28912085 443.80511761 200.07853699 448.30380249 C193.14120029 451.36662312 186.24896424 454.52599072 179.35775757 457.69091797 C165.89045241 463.87510298 152.3931015 469.99021156 138.875 476.0625 C126.78015686 481.49578607 114.6925822 486.94391118 102.625 492.4375 C77.24280032 503.98866667 51.85468218 515.52836164 26.39028931 526.89749146 C24.86366214 527.57955718 23.33758004 528.26284446 21.81210327 528.94747925 C-2.81417457 539.9934769 -25.55373852 545.21577891 -52 537 C-55.10941507 535.80933136 -58.00841153 534.46955223 -61 533 C-61.99 533 -62.98 533 -64 533 C-64 532.34 -64 531.68 -64 531 C-64.80953125 530.74992188 -65.6190625 530.49984375 -66.453125 530.2421875 C-70.67187394 528.76469613 -74.68520888 526.97800066 -78.75 525.125 C-79.61923096 524.73135254 -80.48846191 524.33770508 -81.3840332 523.93212891 C-89.42197791 520.2832088 -97.43284692 516.57551533 -105.44384766 512.86791992 C-115.91242518 508.02769952 -126.41198021 503.25685047 -136.91455078 498.4909668 C-144.80628755 494.90931406 -152.68952854 491.31026864 -160.5625 487.6875 C-172.66500936 482.12526747 -184.81533545 476.66970558 -196.96606445 471.21386719 C-206.24433916 467.0466444 -215.5146886 462.86279166 -224.7734375 458.65234375 C-226.71108386 457.77209932 -228.64874644 456.89189058 -230.58642578 456.01171875 C-233.40323482 454.73212381 -236.21950749 453.45141499 -239.03411865 452.16699219 C-241.63079168 450.98207928 -244.2292702 449.80121194 -246.828125 448.62109375 C-247.59917572 448.26780502 -248.37022644 447.9145163 -249.16464233 447.55052185 C-252.41995136 446.07621361 -255.51943389 444.79576998 -259 444 C-260.33333333 443.66666667 -261.66666667 443.33333333 -263 443 C-262.67 442.67 -262.34 442.34 -262 442 C-263.134375 441.49210937 -264.26875 440.98421875 -265.4375 440.4609375 C-279.105139 434.25457448 -290.67173454 428.24957792 -296.375 413.4375 C-298.98350342 405.37688857 -299.11531078 398.37341014 -298 390 C-298.66 389.67 -299.32 389.34 -300 389 C-299.34 389 -298.68 389 -298 389 C-298.03029297 388.12569336 -298.06058594 387.25138672 -298.09179688 386.35058594 C-298.7374947 366.68660372 -299.04385893 347.033302 -299.03125 327.359375 C-299.03074142 326.50485497 -299.03023285 325.65033493 -299.02970886 324.76992035 C-299.02299871 316.06057328 -299.00456936 307.35130566 -298.97194672 298.64201736 C-298.96025005 295.32928469 -298.95215035 292.01654836 -298.94456482 288.70380402 C-298.93761667 286.38272312 -298.92499845 284.06171667 -298.91223145 281.74066162 C-298.90864097 280.33947826 -298.9053287 278.93829415 -298.90234375 277.53710938 C-298.89710693 276.31809937 -298.89187012 275.09908936 -298.88647461 273.84313965 C-298.80278504 271.05178671 -298.80278504 271.05178671 -300 269 C-299.34 269 -298.68 269 -298 269 C-298.24300591 267.67095642 -298.24300591 267.67095642 -298.49092102 266.31506348 C-299.30562198 260.55833801 -299.14741369 254.76101432 -299.14526367 248.95898438 C-299.14862228 247.65557098 -299.1519809 246.35215759 -299.15544128 245.00924683 C-299.16424274 241.44677959 -299.1666179 237.88433642 -299.16725707 234.32185936 C-299.16797028 232.08896514 -299.17010981 229.85607693 -299.17275429 227.6231842 C-299.18199815 219.81226212 -299.18609077 212.00135706 -299.18530273 204.19042969 C-299.18470366 196.94523594 -299.19522445 189.70011706 -299.2110464 182.45494223 C-299.22419439 176.2083303 -299.22948354 169.96174261 -299.22884732 163.71511698 C-299.22859427 159.99626436 -299.23133731 156.27747819 -299.24202538 152.55863953 C-299.2536575 148.39776647 -299.24891553 144.23705692 -299.24291992 140.07617188 C-299.24853943 138.86939789 -299.25415894 137.6626239 -299.25994873 136.41928101 C-299.21749927 124.73207333 -298.91042224 112.3707037 -293 102 C-292.443125 100.989375 -291.88625 99.97875 -291.3125 98.9375 C-283.35972444 88.83532563 -273.64988105 84.63520022 -262 80 C-261.26958496 79.70722168 -260.53916992 79.41444336 -259.78662109 79.11279297 C-245.00386979 73.23874247 -229.97947521 67.95619911 -215.03613281 62.50756836 C-205.37519017 58.98279 -195.73413392 55.41855877 -186.14225769 51.70903015 C-180.76362843 49.6413784 -175.35031252 47.7080746 -169.90234375 45.83203125 C-159.38814795 42.17961264 -148.96730174 38.29271077 -138.54821777 34.37872314 C-119.32892844 27.16381893 -100.06593163 20.07695512 -80.75 13.125 C-79.70672546 12.74886566 -78.66345093 12.37273132 -77.58856201 11.98519897 C-28.28146366 -5.78015316 -28.28146366 -5.78015316 0 0 Z M-70.69454956 25.65240479 C-77.85713085 28.33129527 -85.05187689 30.91879558 -92.24884033 33.50357056 C-105.31119127 38.19738256 -118.3523134 42.94728417 -131.375 47.75 C-132.15432892 48.03741058 -132.93365784 48.32482117 -133.73660278 48.62094116 C-142.14751768 51.72394803 -150.55555845 54.83469646 -158.96205139 57.94966125 C-163.62022803 59.67560149 -168.27882714 61.40039971 -172.9375 63.125 C-174.3433284 63.64563522 -174.3433284 63.64563522 -175.77755737 64.17678833 C-187.71284536 68.59509303 -199.66116944 72.97594963 -211.625 77.31640625 C-212.8590004 77.76421448 -214.09300079 78.21202271 -215.36439514 78.67340088 C-221.39571665 80.86127315 -227.42828726 83.04561804 -233.46264648 85.22509766 C-238.73423292 87.13118272 -243.99988842 89.05264631 -249.25946045 90.99163818 C-251.01715235 91.63836828 -252.77634945 92.28103055 -254.53741455 92.91851807 C-256.70955046 93.70744704 -258.87321433 94.5156667 -261.03515625 95.33203125 C-262.18508057 95.75846924 -263.33500488 96.18490723 -264.51977539 96.62426758 C-267.16383319 97.75037676 -267.16383319 97.75037676 -267.87280273 100.16674805 C-267.91477783 100.77172119 -267.95675293 101.37669434 -268 102 C-265.0173094 103.52448631 -262.181798 104.93940067 -259 106 C-257.64580079 106.51261917 -256.29449753 107.03291926 -254.9453125 107.55859375 C-253.77548828 108.01395508 -253.77548828 108.01395508 -252.58203125 108.47851562 C-251.36580078 108.95321289 -251.36580078 108.95321289 -250.125 109.4375 C-249.32191406 109.75009766 -248.51882813 110.06269531 -247.69140625 110.38476562 C-244.67983946 111.55813555 -241.66890687 112.73165253 -238.66918945 113.93505859 C-235.44515934 115.22136787 -232.20944579 116.47673628 -228.97265625 117.73046875 C-227.54489258 118.28426692 -226.11715965 118.83814436 -224.68945312 119.39208984 C-223.93672119 119.68412292 -223.18398926 119.97615601 -222.40844727 120.27703857 C-197.9365494 129.77457475 -173.49707238 139.35912123 -149.14013672 149.14819336 C-142.15118212 151.95242227 -135.13743531 154.69262711 -128.125 157.4375 C-119.47002338 160.82552548 -110.84215607 164.26817878 -102.25 167.8125 C-94.86500415 170.85740081 -87.44615671 173.76035957 -79.953125 176.52734375 C-74.70565389 178.46912159 -69.49828039 180.51400085 -64.28808594 182.55322266 C-38.21968581 192.74533421 -16.66614597 196.52867514 10.03012085 185.47686768 C12.04051172 184.64486867 14.05699639 183.82935075 16.07543945 183.01708984 C18.38589016 182.08720863 20.69590024 181.15635004 23.00419617 180.22113037 C33.64376383 175.91380975 44.33873487 171.7467817 55.02612305 167.55993652 C61.11781441 165.17253131 67.2073646 162.77968032 73.296875 160.38671875 C74.47894531 159.92226349 75.66101563 159.45780823 76.87890625 158.97927856 C90.79640115 153.50976808 104.70493061 148.01762271 118.61239624 142.52267456 C127.69749818 138.93353843 136.78609928 135.35327821 145.87573242 131.77563477 C152.00796921 129.36180065 158.13944362 126.94613159 164.26699829 124.52043152 C182.78661146 117.18921969 201.35459265 110.00559831 220 103 C220.28333512 100.10672668 220.28333512 100.10672668 218.9621582 98.4909668 C216.11837869 96.33009066 212.94458805 95.30244122 209.60546875 94.14453125 C208.86940399 93.88160278 208.13333923 93.61867432 207.37496948 93.34777832 C204.9818519 92.49484063 202.58476279 91.65370813 200.1875 90.8125 C198.54647899 90.22964484 196.90577309 89.64590175 195.26538086 89.0612793 C192.01317085 87.90306314 188.7596373 86.74870194 185.50488281 85.59765625 C179.67892166 83.53497843 173.86911085 81.42903279 168.0625 79.3125 C167.19584717 78.99837158 166.32919434 78.68424316 165.4362793 78.3605957 C164.64390869 78.07273193 163.85153809 77.78486816 163.03515625 77.48828125 C162.3687915 77.24634033 161.70242676 77.00439941 161.01586914 76.75512695 C159.52155419 76.19536964 158.03601092 75.61207431 156.55566406 75.01635742 C154.07927982 74.03152865 151.58999741 73.12882415 149.07421875 72.25 C137.27876873 68.09700677 125.52890871 63.84421124 113.82421875 59.44140625 C112.76146225 59.04166595 111.69870575 58.64192566 110.60374451 58.23007202 C105.24360327 56.21198509 99.88577882 54.18791446 94.5300293 52.15820312 C92.51742901 51.39840135 90.50481563 50.63863427 88.4921875 49.87890625 C87.58260788 49.53235489 86.67302826 49.18580353 85.73588562 48.82875061 C81.49227185 47.22934961 77.26740997 45.75621214 72.90673828 44.50756836 C68.85980929 43.3285496 65.13214653 41.80279266 61.30969238 40.03775024 C57.07135339 38.13345452 52.70924091 36.54693752 48.359375 34.91796875 C47.35650452 34.54070145 46.35363403 34.16343414 45.32037354 33.7747345 C43.20303357 32.97921845 41.08516489 32.18510837 38.96679688 31.39233398 C35.79894475 30.20583199 32.63376617 29.01240222 29.46875 27.81835938 C19.45212712 24.05366283 9.41335741 20.38592468 -0.734375 16.98828125 C-1.59855042 16.69817673 -2.46272583 16.4080722 -3.35308838 16.10917664 C-27.27774832 8.21679743 -48.29007704 17.25759344 -70.69454956 25.65240479 Z M-281.625 113.5 C-285.0744622 119.77174945 -284.14212374 128.2402403 -284.12698364 135.21418762 C-284.12854363 136.32398804 -284.13010362 137.43378846 -284.13171089 138.57721919 C-284.13569059 142.28562394 -284.13254294 145.99398754 -284.12939453 149.70239258 C-284.13074994 152.36549499 -284.1324946 155.02859459 -284.13470459 157.69169617 C-284.13914476 164.16870435 -284.13819348 170.64570092 -284.13529195 177.12270955 C-284.13303045 182.38987402 -284.13272863 187.65703524 -284.13381577 192.92420006 C-284.133969 193.67483844 -284.13412223 194.42547683 -284.13428011 195.19886183 C-284.13459985 196.72397052 -284.13492406 198.2490792 -284.1352527 199.77418789 C-284.13810251 214.06704236 -284.13482859 228.35989042 -284.12945233 242.65274384 C-284.12498749 254.90139299 -284.12575856 267.15003266 -284.13037109 279.39868164 C-284.13573039 293.63693116 -284.13782499 307.87517505 -284.13475883 322.11342543 C-284.1344403 323.6337345 -284.13412593 325.15404357 -284.13381577 326.67435265 C-284.13366149 327.4222829 -284.13350721 328.17021316 -284.13334826 328.94080797 C-284.13248697 334.19660685 -284.13393769 339.45240214 -284.13629532 344.70820045 C-284.13910868 351.12072939 -284.13832284 357.53324609 -284.13301457 363.94577364 C-284.13039783 367.21395498 -284.12988198 370.48211191 -284.13266373 373.75029373 C-284.13540733 377.30183642 -284.1319549 380.85332235 -284.12698364 384.40486145 C-284.12921436 385.42570117 -284.13144509 386.4465409 -284.13374341 387.49831516 C-284.54993357 402.04468632 -284.54993357 402.04468632 -279 415 C-271.20424606 421.84750567 -260.53173467 425.58114226 -251.1875 429.8125 C-249.41532347 430.62169003 -247.64343321 431.43150729 -245.87182617 432.24194336 C-240.91912901 434.50477589 -235.96040525 436.75412635 -231 439 C-229.86208008 439.51626953 -228.72416016 440.03253906 -227.55175781 440.56445312 C-222.77234069 442.73112222 -217.98640078 444.88257805 -213.19384766 447.02001953 C-209.12511013 448.83750367 -205.0631108 450.66998083 -201 452.5 C-196.0241191 454.73980004 -191.04787792 456.97878947 -186.0703125 459.21484375 C-174.78468702 464.2860556 -163.51607494 469.39382724 -152.25488281 474.51904297 C-146.6008914 477.09158362 -140.94568004 479.66144035 -135.2906189 482.23162842 C-131.73927211 483.84572236 -128.18799955 485.45997963 -124.63671875 487.07421875 C-123.19189488 487.7309578 -121.74707066 488.38769608 -120.30224609 489.04443359 C-116.06445312 490.97070312 -116.06445312 490.97070312 -111.82666016 492.89697266 C-111.14567261 493.20650879 -110.46468506 493.51604492 -109.76306152 493.83496094 C-108.39171249 494.45830881 -107.02037461 495.08168123 -105.64904785 495.70507812 C-102.24529706 497.25236625 -98.84135744 498.79923608 -95.43701172 500.34521484 C-88.99467763 503.27133819 -82.55440294 506.20178349 -76.12026978 509.14590454 C-73.08316016 510.53533074 -70.0450385 511.92253594 -67.00683594 513.30957031 C-65.5595506 513.97105765 -64.1127613 514.6336315 -62.66650391 515.29736328 C-60.66042912 516.21793028 -58.6526711 517.13472969 -56.64453125 518.05078125 C-54.93293823 518.83449097 -54.93293823 518.83449097 -53.18676758 519.6340332 C-47.15447525 522.21969746 -42.5245019 523.63140341 -36 523 C-33.231792 521.08354831 -32.22762424 519.90874923 -31.4103834 516.64606082 C-31.02523927 514.16273721 -30.87362402 511.86036892 -30.87136555 509.35052681 C-30.86652888 507.9857203 -30.86652888 507.9857203 -30.8615945 506.59334195 C-30.8631431 505.60260044 -30.8646917 504.61185894 -30.86628723 503.59109497 C-30.8628889 502.00185127 -30.8628889 502.00185127 -30.85942191 500.38050163 C-30.85308322 496.82413198 -30.85391121 493.26780046 -30.85473633 489.71142578 C-30.85174463 487.16362967 -30.84834207 484.615834 -30.84455872 482.06803894 C-30.83663195 475.85999186 -30.83350391 469.65195877 -30.83294634 463.4439071 C-30.83247075 458.39266597 -30.83041383 453.34142797 -30.82724571 448.29018784 C-30.8184371 433.95261702 -30.81382626 419.61505368 -30.81457619 405.27748014 C-30.81461614 404.50464216 -30.8146561 403.73180419 -30.81469727 402.93554688 C-30.81475859 401.77486444 -30.81475859 401.77486444 -30.81482115 400.59073387 C-30.81522691 388.07227725 -30.80567541 375.55385081 -30.7915589 363.03540291 C-30.77716132 350.16545881 -30.77029068 337.29552939 -30.77115268 324.42557704 C-30.77148364 317.20679188 -30.76878107 309.98803829 -30.75797462 302.76926041 C-30.74786344 295.97145856 -30.74823947 289.1737341 -30.75549126 282.37592506 C-30.75653279 279.88920685 -30.75420001 277.40248442 -30.7481308 274.91577339 C-30.68813339 248.61627247 -32.26316132 226.44570263 -50.8515625 206.12890625 C-54.71286793 202.3027036 -58.20801034 200.35093385 -63.3125 198.4375 C-64.4675 198.004375 -65.6225 197.57125 -66.8125 197.125 C-69.11774561 196.3113839 -71.45762634 195.59377626 -73.8125 194.9375 C-77 194 -77 194 -80.5078125 192.21484375 C-85.55708168 189.65444946 -90.78247756 187.65577786 -96.0625 185.625 C-98.54370762 184.66069993 -101.02428108 183.69491291 -103.50390625 182.7265625 C-104.20500519 182.45289856 -104.90610413 182.17923462 -105.62844849 181.89727783 C-117.28097408 177.3373828 -128.88523748 172.65496936 -140.5 168 C-155.90147021 161.82989978 -171.30501611 155.66875917 -186.75683594 149.62573242 C-196.45213973 145.83188477 -206.12006118 141.97114029 -215.78118896 138.09115601 C-221.74744817 135.69574974 -227.72005008 133.3175239 -233.70132446 130.95982361 C-237.30878073 129.53702903 -240.91404414 128.10872317 -244.51916504 126.68002319 C-246.27541274 125.98562684 -248.03263335 125.2936853 -249.79089355 124.60440063 C-258.47267968 121.19964998 -266.93132481 117.8456562 -274.9621582 113.04443359 C-277.7353691 111.62310902 -279.26023029 111.31713565 -281.625 113.5 Z M224.88470459 114.91506958 C222.0450267 116.5497305 219.06809464 117.75426931 216.0390625 118.99609375 C215.38493881 119.26549774 214.73081512 119.53490173 214.05686951 119.81246948 C211.91498634 120.69264034 209.77016607 121.5653639 207.625 122.4375 C206.09816998 123.06195637 204.57139693 123.68655203 203.04467773 124.3112793 C189.66945047 129.77235685 176.23322849 135.0752724 162.78010559 140.34083557 C154.17619039 143.71038706 145.58566167 147.11377693 136.99395752 150.51431274 C124.23073784 155.56550106 111.46528821 160.61076256 98.6875 165.625 C96.49608313 166.48565005 94.30467705 167.34632757 92.11328125 168.20703125 C88.30303781 169.70350313 84.49244969 171.19908588 80.68115234 172.69287109 C63.83123285 179.29887498 46.99300722 185.93496316 30.2366333 192.77548218 C28.76190201 193.37682403 27.28629207 193.97601621 25.80975342 194.57290649 C23.76620652 195.40001729 21.72644188 196.23583121 19.6875 197.07421875 C18.53636719 197.54432373 17.38523437 198.01442871 16.19921875 198.4987793 C2.32791309 205.00783443 -5.61782808 217.58849755 -11.4375 231.3125 C-14.49693083 240.00004698 -15.29431186 248.37505172 -15.26069641 257.5397644 C-15.26452196 258.66029618 -15.26834751 259.78082796 -15.27228898 260.93531525 C-15.28255899 264.66770011 -15.27863831 268.39992942 -15.2746582 272.13232422 C-15.27900779 274.81693527 -15.28412763 277.50153514 -15.29014587 280.18614197 C-15.3028567 286.70598682 -15.30469138 293.22579041 -15.30234561 299.74564557 C-15.30055951 305.04333711 -15.30231833 310.34101616 -15.30657005 315.63870621 C-15.30716524 316.39387004 -15.30776043 317.14903386 -15.30837366 317.92708144 C-15.30958544 319.46130418 -15.31079957 320.99552691 -15.31201603 322.52974965 C-15.32287602 336.89537039 -15.32073542 351.26096762 -15.31463119 365.62658967 C-15.30945412 378.77296272 -15.320741 391.91926186 -15.33972941 405.06562029 C-15.35908803 418.57187141 -15.36736788 432.07808752 -15.36360615 445.58435261 C-15.36169229 453.16434168 -15.36420038 460.7442677 -15.37832069 468.32424545 C-15.39020972 474.77135699 -15.39166677 481.21836659 -15.37953053 487.66547947 C-15.37362648 490.95515445 -15.3742007 494.24460342 -15.38453293 497.53427315 C-15.39491933 501.09706992 -15.38696504 504.65935949 -15.3742218 508.22213745 C-15.38159609 509.26589377 -15.38897037 510.30965009 -15.39656812 511.3850354 C-15.38936158 512.33779959 -15.38215503 513.29056379 -15.37473011 514.27219963 C-15.37478513 515.09456922 -15.37484014 515.91693882 -15.37489682 516.7642287 C-14.90807296 519.54822505 -13.89589757 520.93847823 -12 523 C-5.56908279 524.72968378 0.56549517 521.97544283 6.3125 519.3125 C7.21218506 518.91168213 8.11187012 518.51086426 9.03881836 518.09790039 C12.03617884 516.75341581 15.01924519 515.38088799 18 514 C19.03060547 513.52336914 20.06121094 513.04673828 21.12304688 512.55566406 C25.60699653 510.4776362 30.08801861 508.39352169 34.56420898 506.29882812 C44.44691635 501.67989965 54.40036574 497.22888833 64.375 492.8125 C65.91660615 492.12936022 67.45819162 491.4461738 68.99975586 490.76293945 C71.24155108 489.76946598 73.48335648 488.77601562 75.72523499 487.7827301 C82.19939345 484.91355536 88.66862204 482.03403165 95.125 479.125 C96.46570557 478.52715698 96.46570557 478.52715698 97.83349609 477.91723633 C98.63352051 477.55525146 99.43354492 477.1932666 100.2578125 476.8203125 C100.9398877 476.51367676 101.62196289 476.20704102 102.32470703 475.89111328 C104.19256183 475.00225053 104.19256183 475.00225053 106 473 C108.08079035 472.32068945 110.16238825 471.643772 112.24755859 470.97802734 C117.13470096 469.2414749 121.76436798 466.93974369 126.44024658 464.70602417 C129.73899114 463.13171379 133.04669085 461.57652792 136.35546875 460.0234375 C137.05341553 459.69582932 137.7513623 459.36822113 138.47045898 459.03068542 C146.63542093 455.21342188 154.87952551 451.57661817 163.125 447.9375 C177.48494293 441.59287042 191.75661178 435.091652 205.96289062 428.40917969 C208.86229185 427.06389481 211.77719662 425.76294435 214.703125 424.4765625 C226.59914533 419.47162636 226.59914533 419.47162636 235 410 C236.32267889 406.03196332 236.17798173 402.21762317 236.20532227 398.07861328 C236.21521337 397.14986484 236.22510447 396.22111639 236.2352953 395.26422405 C236.267312 392.11628006 236.29198511 388.96832403 236.31640625 385.8203125 C236.33727475 383.5397671 236.35841063 381.25922413 236.37979126 378.97868347 C236.43678224 372.68605666 236.48604287 366.39339152 236.5328331 360.1006813 C236.56245139 356.13151485 236.59345973 352.16236106 236.62466431 348.19320679 C236.99906741 300.03097784 237.13710473 251.86788637 237.17865521 203.7043159 C237.1846575 197.16901746 237.19552956 190.63373811 237.20828247 184.09844971 C237.22372021 176.06750028 237.23152433 168.03658479 237.22975016 160.00562006 C237.22894805 155.86453755 237.23123024 151.72351927 237.24187088 147.58244896 C237.25151076 143.76139539 237.25170225 139.94045951 237.24447334 136.11940169 C237.24345432 134.73246639 237.24580742 133.34552363 237.25187886 131.95860124 C237.31627521 122.29162247 237.31627521 122.29162247 235 113 C230.61180864 111.40429405 228.73611473 112.6085679 224.88470459 114.91506958 Z " fill="#FEFEFE" transform="translate(535,216)"/>
<path d="M0 0 C4.28320651 4.0871079 6.70612111 8.71188311 7.05859375 14.671875 C6.96152141 21.30515157 3.45003714 25.71793161 -1.1015625 30.26953125 C-13.35480202 40.44154113 -32.87353592 43.72843397 -48.37890625 42.546875 C-62.90407017 41.09793623 -77.91474154 37.56793956 -88.44140625 26.734375 C-91.35692575 21.93787518 -92.92744234 17.01885914 -92.03515625 11.37109375 C-91.34552028 9.2570311 -90.48895612 7.47230695 -89.37890625 5.546875 C-89.05535156 4.96292969 -88.73179687 4.37898438 -88.3984375 3.77734375 C-82.58056481 -4.56348991 -70.58598046 -9.0433231 -60.94848633 -11.07470703 C-40.79771407 -14.65122106 -16.56955063 -13.36587452 0 0 Z M-73.50390625 9.984375 C-75.5130982 12.38751598 -75.5130982 12.38751598 -76.00390625 15.109375 C-75.05939474 18.79296989 -73.63887134 19.5653276 -70.37890625 21.546875 C-55.99329775 27.86081571 -41.11301328 29.51344192 -25.81640625 25.796875 C-25.1620459 25.64009277 -24.50768555 25.48331055 -23.83349609 25.32177734 C-18.48640143 23.88551164 -14.34467736 21.45121576 -10.37890625 17.609375 C-9.15163976 15.55725553 -9.15163976 15.55725553 -9.69140625 13.109375 C-13.87392708 6.75813966 -20.91295243 4.68364157 -28.046875 3.11328125 C-43.15061624 0.54582231 -60.82896276 0.09791908 -73.50390625 9.984375 Z " fill="#FEFEFE" transform="translate(554.37890625,299.453125)"/>
<path d="M0 0 C7.55767607 6.10526554 10.25356364 14.69397347 11.61328125 24.02734375 C12.2152864 34.35852886 8.58973619 45.55161038 2.27734375 53.640625 C-4.11620728 60.79080929 -10.83365587 67.07423501 -20.69140625 68.1953125 C-28.98280038 68.45345055 -34.90742387 67.08390407 -41.28515625 61.44140625 C-49.01317125 52.79795145 -49.2527225 42.77845428 -48.83935547 31.77929688 C-48.28596293 23.96436284 -44.70106951 17.42526172 -40.703125 10.85546875 C-40.26097656 10.02917969 -39.81882812 9.20289063 -39.36328125 8.3515625 C-34.90895904 1.65435805 -26.82809546 -2.94836325 -19.1015625 -4.80078125 C-11.68276123 -5.86406221 -6.24922371 -4.08528444 0 0 Z M-24.703125 14.85546875 C-30.89202762 23.11720957 -33.53104701 31.58923583 -32.703125 41.85546875 C-31.75565411 45.30647587 -30.34177389 48.09855155 -28.015625 50.85546875 C-24.37442166 52.43004317 -21.34707232 52.12953004 -17.703125 50.85546875 C-12.03985394 47.48007712 -8.49662736 43.02039211 -6.3125 36.83203125 C-5.09668342 30.89323489 -5.41391374 24.88070333 -5.703125 18.85546875 C-6.693125 18.85546875 -7.683125 18.85546875 -8.703125 18.85546875 C-8.3628125 17.95828125 -8.3628125 17.95828125 -8.015625 17.04296875 C-7.47876941 14.85890276 -7.47876941 14.85890276 -8.640625 13.16796875 C-14.56950657 9.39504412 -19.76394609 10.23841021 -24.703125 14.85546875 Z " fill="#FEFEFE" transform="translate(605.703125,605.14453125)"/>
<path d="M0 0 C11.39632097 7.1439624 18.25501078 18.23152382 22 31 C23.81625456 42.67382974 22.89576257 52.20877911 16 62 C11.85377186 66.60437489 6.63334147 69.54164 0.4609375 70.3203125 C-8.64517484 70.70507781 -15.66598112 68.22342165 -22.6875 62.4375 C-32.04865854 53.50712044 -36.91787806 43.20315714 -37.40039062 30.38842773 C-37.57261695 19.30362447 -35.77396367 10.95657032 -27.9140625 2.6953125 C-19.60522514 -4.66394345 -9.76651027 -4.75674593 0 0 Z M-16.8125 15.125 C-21.24033799 20.94444422 -21.81725997 26.88983822 -21 34 C-19.05609011 42.04071817 -15.77680571 49.06042725 -8.5625 53.5 C-5.00878897 54.19340703 -2.49578755 53.9533966 1 53 C6.37188581 47.48674878 6.33134811 43.16407269 6.29296875 35.703125 C5.82910757 29.83991971 4.22955172 24.22955172 0 20 C-0.639375 19.175 -1.27875 18.35 -1.9375 17.5 C-4.61156353 14.25871087 -6.17680535 13.10671042 -10.375 12.5625 C-14.09772821 12.70354017 -14.09772821 12.70354017 -16.8125 15.125 Z " fill="#FEFEFE" transform="translate(450,604)"/>
<path d="M0 0 C6.35704323 5.30182553 10.33401935 12.57790982 11.5625 20.7421875 C12.48249546 34.27378746 9.47556642 45.97510934 0.69921875 56.46484375 C-6.12216263 63.58696739 -13.25055698 68.44897759 -23.25 68.9375 C-29.68168911 68.72014645 -34.02751623 66.30899841 -38.9375 62.3125 C-46.98891922 52.52023338 -48.3379049 42.82563639 -47.25 30.5 C-44.99522925 19.39364353 -39.20934128 8.60307184 -30.25 1.5 C-27.6777221 -0.15101942 -25.09769167 -1.39713675 -22.25 -2.5 C-21.61191406 -2.74878906 -20.97382812 -2.99757813 -20.31640625 -3.25390625 C-13.17249334 -5.53938342 -6.18488555 -4.15473228 0 0 Z M-26.25 18.5 C-30.55490643 24.46254281 -31.42515016 29.63160315 -31.5625 36.875 C-31.59988281 38.16148437 -31.63726563 39.44796875 -31.67578125 40.7734375 C-31.08569135 45.93807752 -28.8626703 48.8873297 -25.25 52.5 C-21.47116707 53.0152954 -19.57765638 52.67385849 -16.1875 50.875 C-8.68407451 44.80840067 -5.6432519 38.46661485 -4.3125 29.125 C-3.90050826 23.33288076 -5.25277661 18.47266607 -8.25 13.5 C-15.80910151 8.46059899 -20.98195454 12.61353181 -26.25 18.5 Z " fill="#FEFEFE" transform="translate(603.25,441.5)"/>
<path d="M0 0 C5.17850402 3.57681928 8.45780502 8.2788879 10.8125 14.05859375 C11.01875 15.25484375 11.225 16.45109375 11.4375 17.68359375 C11.58058594 18.47121094 11.72367188 19.25882812 11.87109375 20.0703125 C13.7696055 33.47732844 9.29892076 45.03799812 1.875 55.98828125 C1.400625 56.54773438 0.92625 57.1071875 0.4375 57.68359375 C-0.2225 57.68359375 -0.8825 57.68359375 -1.5625 57.68359375 C-1.5625 58.34359375 -1.5625 59.00359375 -1.5625 59.68359375 C-3.86328125 61.375 -3.86328125 61.375 -6.875 63.24609375 C-7.86113281 63.86613281 -8.84726562 64.48617187 -9.86328125 65.125 C-16.3754867 68.88530387 -24.21104601 68.80596878 -31.39453125 66.953125 C-39.35197384 63.56723929 -42.82432189 57.15994998 -46.5625 49.68359375 C-46.83274708 47.38434878 -47.00747841 45.08557888 -47.18359375 42.77734375 C-47.39568777 40.47048277 -47.39568777 40.47048277 -49.5625 38.68359375 C-48.5725 38.18859375 -48.5725 38.18859375 -47.5625 37.68359375 C-46.90972036 35.41073374 -46.34118638 33.11348086 -45.8125 30.80859375 C-42.73785943 18.32233538 -36.76322643 7.497369 -25.5625 0.68359375 C-16.29955923 -3.64177371 -9.23864651 -4.97140582 0 0 Z M-22.5625 16.68359375 C-28.58646272 24.0014864 -31.03624912 31.07670969 -30.82421875 40.50390625 C-30.29709245 44.89400289 -28.7164439 48.52964985 -25.5625 51.68359375 C-22.07143649 52.71504433 -20.05508381 52.83752619 -16.5625 51.74609375 C-10.98046078 47.90844179 -5.97564725 41.4106418 -4.5625 34.68359375 C-3.85029089 26.66464668 -3.34706534 20.3405305 -8.5625 13.68359375 C-9.70537386 12.32914008 -9.70537386 12.32914008 -12.75 12.37109375 C-17.39177705 12.75156728 -19.05882727 13.62719839 -22.5625 16.68359375 Z " fill="#FDFDFD" transform="translate(673.5625,492.31640625)"/>
<path d="M0 0 C7.03918161 3.9419417 11.16063522 8.53907961 13.875 16.1875 C16.84629725 27.1041446 16.07917352 38.57650001 11.125 48.75 C5.83297323 57.74525091 -1.456825 66.08765545 -11.71875 69.3046875 C-18.63486741 70.7330161 -24.08996448 70.61823458 -30.3125 67.0625 C-37.14958002 62.43232556 -40.54873487 57.0550605 -42.5625 49 C-44.00129097 34.03657393 -40.27004239 21.80964338 -31.625 9.5625 C-23.2975719 1.04581217 -11.87734407 -4.76656571 0 0 Z M-18.49609375 18.296875 C-25.02838938 25.65996135 -27.22011664 32.58545721 -27.08984375 42.3125 C-26.68334722 46.92438795 -25.08932265 49.70433327 -21.625 52.6875 C-17.87253045 54.13731778 -15.72904289 53.85115511 -11.875 52.75 C-6.01513973 47.98034629 -2.33173239 42.15505633 -0.875 34.75 C-0.31339555 28.07971551 -0.36460405 22.56031055 -3.875 16.75 C-9.40153529 12.57140015 -13.4149333 13.448346 -18.49609375 18.296875 Z " fill="#FEFEFE" transform="translate(735.875,548.25)"/>
<path d="M0 0 C9.23883575 10.43272108 12.6995123 23.07097989 12.2890625 36.828125 C11.52576552 44.81055611 8.09319744 51.63390945 2.02734375 56.96875 C-4.10716019 61.47573249 -9.59629367 62.00862923 -17.03515625 61.21875 C-27.37037106 58.68054283 -34.48892527 52.05805562 -40.03515625 43.21875 C-40.03515625 42.55875 -40.03515625 41.89875 -40.03515625 41.21875 C-40.69515625 40.88875 -41.35515625 40.55875 -42.03515625 40.21875 C-46.54933444 30.11361718 -46.85295623 16.47590401 -43.34765625 6.03125 C-40.31704166 -0.96247599 -36.24113468 -5.78345038 -29.03515625 -8.78125 C-17.84707884 -13.07389776 -8.18891305 -7.93717431 0 0 Z M-23.78515625 6.34375 C-27.48964732 9.43082589 -29.11249205 11.54405728 -29.84765625 16.34375 C-30.56980217 25.28951676 -28.12421038 33.41646006 -22.59765625 40.46875 C-19.36100253 43.94223204 -17.75547117 44.99913533 -13.09765625 45.59375 C-9.27757318 45.12598473 -7.72993009 43.91352384 -5.03515625 41.21875 C-2.75231488 34.37022589 -2.86568524 24.9208423 -5.66015625 18.21875 C-8.66532687 12.64073155 -11.74987063 8.26116099 -17.59765625 5.59375 C-20.99403109 4.94683446 -20.99403109 4.94683446 -23.78515625 6.34375 Z " fill="#FEFEFE" transform="translate(388.03515625,498.78125)"/>
<path d="M0 0 C7.23650886 7.72524911 8.17687789 16.99796375 8.0078125 27.0859375 C7.35614009 38.69755502 1.81703449 48.45300622 -5.94921875 56.8984375 C-12.08996615 62.38048882 -19.6339234 65.24836408 -27.796875 65.12890625 C-32.97912977 64.66695485 -36.87540738 62.99794239 -40.89453125 59.7265625 C-49.19181171 49.63527545 -50.13827292 40.70015848 -49.20703125 27.9140625 C-48.50702599 24.11342044 -47.51055866 20.54772957 -46.20703125 16.9140625 C-45.87703125 15.9240625 -45.54703125 14.9340625 -45.20703125 13.9140625 C-44.87703125 14.2440625 -44.54703125 14.5740625 -44.20703125 14.9140625 C-43.87832031 14.3571875 -43.54960938 13.8003125 -43.2109375 13.2265625 C-37.16685163 3.52981768 -30.05754286 -3.19599952 -18.83203125 -5.8984375 C-11.51050761 -6.277137 -5.73546021 -4.64789789 0 0 Z M-27.33203125 16.1640625 C-32.09343934 23.14746104 -34.53646293 29.30003425 -34.20703125 37.9140625 C-33.58615421 41.10849856 -32.78831839 44.05896072 -31.20703125 46.9140625 C-27.45816357 49.41330762 -25.73281589 49.11650169 -21.421875 48.515625 C-15.92582491 47.02287066 -12.95271723 41.55332502 -10.20703125 36.9140625 C-7.61283428 30.27514984 -6.57189687 22.39033535 -9.0703125 15.55078125 C-10.24522418 13.4872091 -11.51991593 11.60117782 -13.20703125 9.9140625 C-19.56299848 9.17499654 -23.06011269 11.64085462 -27.33203125 16.1640625 Z " fill="#FEFEFE" transform="translate(742.20703125,387.0859375)"/>
<path d="M0 0 C0.59554687 0.45890625 1.19109375 0.9178125 1.8046875 1.390625 C10.50870498 9.05016038 15.16443874 21.27302684 16.24609375 32.5703125 C16.63909213 40.93045995 14.84879478 49.71511911 9.6875 56.5 C4.68128909 61.15694038 -0.27050608 63.6194394 -7.0625 64.3125 C-16.91180884 63.53080882 -24.52351602 59.40889607 -31 52 C-32.75333506 49.42643523 -34.32229216 46.83703494 -35.80859375 44.1015625 C-36.94778237 41.87461412 -36.94778237 41.87461412 -39 40 C-39 38.68 -39 37.36 -39 36 C-39.30195787 34.63849351 -39.63753412 33.28416141 -40 31.9375 C-41.07646816 27.39073937 -41.127143 23.13522166 -40.97265625 18.48046875 C-40.99854511 16.13197896 -41.32659854 14.23945137 -42 12 C-41.01 12 -40.02 12 -39 12 C-38.7525 11.13375 -38.505 10.2675 -38.25 9.375 C-35.77971762 2.70523757 -32.18653274 -1.62207722 -26 -5 C-16.77580351 -9.0463731 -7.60542153 -5.91886362 0 0 Z M-22 12 C-25.61606163 17.40506054 -24.5205283 24.79221801 -24 31 C-22.28701655 37.57415268 -18.53242611 43.29180665 -13.125 47.4375 C-9.80197473 48.31712433 -7.30080822 47.84020573 -4 47 C-0.0574965 43.18891328 0.18052257 38.64020479 0.3125 33.375 C0.2188964 24.83627202 -2.48092182 17.56441305 -8.359375 11.28515625 C-13.01977152 7.63451231 -17.69010091 8.42894075 -22 12 Z " fill="#FEFEFE" transform="translate(314,388)"/>
<path d="M0 0 C1.98 0.99 1.98 0.99 4 2 C2.68 2 1.36 2 0 2 C0 1.34 0 0.68 0 0 Z " fill="#7A7A7A" transform="translate(360,698)"/>
<path d="M0 0 C0.66 0 1.32 0 2 0 C1.67 1.32 1.34 2.64 1 4 C0.67 2.68 0.34 1.36 0 0 Z " fill="#343334" transform="translate(553,482)"/>
<path d="M0 0 C3 1 3 1 3 1 Z " fill="#3E3C3D" transform="translate(496,757)"/>
<path d="M0 0 C3 1 3 1 3 1 Z " fill="#383536" transform="translate(648,683)"/>
<path d="M0 0 C0.99 0.495 0.99 0.495 2 1 C1.01 1.495 1.01 1.495 0 2 C0 1.34 0 0.68 0 0 Z " fill="#343335" transform="translate(725,648)"/>
<path d="M0 0 C0.66 0 1.32 0 2 0 C1.67 0.66 1.34 1.32 1 2 C0.67 1.34 0.34 0.68 0 0 Z " fill="#2E2E2D" transform="translate(592,648)"/>
<path d="M0 0 C0.99 0.495 0.99 0.495 2 1 C1.01 1.495 1.01 1.495 0 2 C0 1.34 0 0.68 0 0 Z " fill="#2F2F30" transform="translate(560,619)"/>
<path d="M0 0 C0.99 0.495 0.99 0.495 2 1 C1.01 1.495 1.01 1.495 0 2 C0 1.34 0 0.68 0 0 Z " fill="#373636" transform="translate(768,600)"/>
<path d="" fill="#363534" transform="translate(0,0)"/>
<path d="" fill="#767574" transform="translate(0,0)"/>
<path d="" fill="#393939" transform="translate(0,0)"/>
<path d="" fill="#313031" transform="translate(0,0)"/>
<path d="M0 0 C3 1 3 1 3 1 Z " fill="#343434" transform="translate(555,392)"/>
<path d="M0 0 C0.66 0 1.32 0 2 0 C1.67 0.66 1.34 1.32 1 2 C0.67 1.34 0.34 0.68 0 0 Z " fill="#787878" transform="translate(402,389)"/>
<path d="M0 0 C0.99 0.495 0.99 0.495 2 1 C1.01 1.495 1.01 1.495 0 2 C0 1.34 0 0.68 0 0 Z " fill="#373737" transform="translate(524,342)"/>
<path d="M0 0 C3 1 3 1 3 1 Z " fill="#767577" transform="translate(664,283)"/>
<path d="M0 0 C3 1 3 1 3 1 Z " fill="#323232" transform="translate(709,280)"/>
<path d="M0 0 C3 1 3 1 3 1 Z " fill="#343233" transform="translate(507,230)"/>
<path d="M0 0 C2 1 2 1 2 1 Z " fill="#373638" transform="translate(492,737)"/>
<path d="M0 0 C2 1 2 1 2 1 Z " fill="#989899" transform="translate(568,720)"/>
<path d="M0 0 C2 1 2 1 2 1 Z " fill="#383838" transform="translate(361,701)"/>
<path d="" fill="#999798" transform="translate(0,0)"/>
<path d="M0 0 C2 1 2 1 2 1 Z " fill="#353433" transform="translate(634,690)"/>
<path d="M0 0 C2 1 2 1 2 1 Z " fill="#979796" transform="translate(386,690)"/>
<path d="M0 0 C2 1 2 1 2 1 Z " fill="#969696" transform="translate(369,682)"/>
<path d="M0 0 C2 1 2 1 2 1 Z " fill="#9A9999" transform="translate(656,680)"/>
<path d="" fill="#363635" transform="translate(0,0)"/>
<path d="" fill="#353534" transform="translate(0,0)"/>
<path d="M0 0 C2 1 2 1 2 1 Z " fill="#959596" transform="translate(709,656)"/>
<path d="M0 0 C2 1 2 1 2 1 Z " fill="#2B2C2A" transform="translate(445,656)"/>
<path d="" fill="#353434" transform="translate(0,0)"/>
<path d="" fill="#323233" transform="translate(0,0)"/>
<path d="" fill="#363837" transform="translate(0,0)"/>
<path d="" fill="#313031" transform="translate(0,0)"/>
<path d="" fill="#343433" transform="translate(0,0)"/>
<path d="" fill="#343233" transform="translate(0,0)"/>
<path d="" fill="#312F2F" transform="translate(0,0)"/>
<path d="" fill="#3A3837" transform="translate(0,0)"/>
<path d="" fill="#31302F" transform="translate(0,0)"/>
<path d="" fill="#3A3939" transform="translate(0,0)"/>
<path d="M0 0 C2 1 2 1 2 1 Z " fill="#312F2F" transform="translate(365,536)"/>
<path d="" fill="#363537" transform="translate(0,0)"/>
<path d="M0 0 C2 1 2 1 2 1 Z " fill="#3A3837" transform="translate(352,491)"/>
<path d="M0 0 C2 1 2 1 2 1 Z " fill="#353233" transform="translate(656,488)"/>
<path d="" fill="#313030" transform="translate(0,0)"/>
<path d="" fill="#989797" transform="translate(0,0)"/>
<path d="M0 0 C2 1 2 1 2 1 Z " fill="#353433" transform="translate(297,451)"/>
<path d="M0 0 C2 1 2 1 2 1 Z " fill="#303031" transform="translate(560,448)"/>
<path d="" fill="#979797" transform="translate(0,0)"/>
<path d="M0 0 C2 1 2 1 2 1 Z " fill="#333233" transform="translate(568,445)"/>
<path d="" fill="#363535" transform="translate(0,0)"/>
<path d="" fill="#313035" transform="translate(0,0)"/>
<path d="M0 0 C2 1 2 1 2 1 Z " fill="#2C2D2F" transform="translate(299,432)"/>
<path d="" fill="#323132" transform="translate(0,0)"/>
<path d="M0 0 C2 1 2 1 2 1 Z " fill="#2F3031" transform="translate(728,424)"/>
<path d="" fill="#373837" transform="translate(0,0)"/>
<path d="M0 0 C2 1 2 1 2 1 Z " fill="#353534" transform="translate(486,402)"/>
<path d="M0 0 C2 1 2 1 2 1 Z " fill="#333231" transform="translate(541,400)"/>
<path d="M0 0 C2 1 2 1 2 1 Z " fill="#9A9999" transform="translate(420,396)"/>
<path d="M0 0 C2 1 2 1 2 1 Z " fill="#363534" transform="translate(417,395)"/>
<path d="" fill="#363534" transform="translate(0,0)"/>
<path d="M0 0 C2 1 2 1 2 1 Z " fill="#353332" transform="translate(592,379)"/>
<path d="M0 0 C2 1 2 1 2 1 Z " fill="#9B9A99" transform="translate(377,379)"/>
<path d="M0 0 C2 1 2 1 2 1 Z " fill="#999898" transform="translate(337,363)"/>
<path d="M0 0 C2 1 2 1 2 1 Z " fill="#999998" transform="translate(297,347)"/>
<path d="M0 0 C2 1 2 1 2 1 Z " fill="#383638" transform="translate(499,342)"/>
<path d="M0 0 C2 1 2 1 2 1 Z " fill="#999999" transform="translate(698,338)"/>
<path d="" fill="#999998" transform="translate(0,0)"/>
<path d="M0 0 C2 1 2 1 2 1 Z " fill="#353433" transform="translate(697,336)"/>
<path d="" fill="#3A3939" transform="translate(0,0)"/>
<path d="M0 0 C2 1 2 1 2 1 Z " fill="#393838" transform="translate(472,333)"/>
<path d="M0 0 C2 1 2 1 2 1 Z " fill="#999897" transform="translate(302,330)"/>
<path d="M0 0 C2 1 2 1 2 1 Z " fill="#363535" transform="translate(269,317)"/>
<path d="M0 0 C2 1 2 1 2 1 Z " fill="#333233" transform="translate(730,307)"/>
<path d="M0 0 C2 1 2 1 2 1 Z " fill="#979798" transform="translate(714,301)"/>
<path d="M0 0 C2 1 2 1 2 1 Z " fill="#3A3939" transform="translate(485,289)"/>
<path d="M0 0 C2 1 2 1 2 1 Z " fill="#999999" transform="translate(730,288)"/>
<path d="M0 0 C2 1 2 1 2 1 Z " fill="#353737" transform="translate(304,280)"/>
<path d="" fill="#363435" transform="translate(0,0)"/>
<path d="M0 0 C2 1 2 1 2 1 Z " fill="#363535" transform="translate(578,251)"/>
<path d="M0 0 C2 1 2 1 2 1 Z " fill="#363436" transform="translate(545,239)"/>
<path d="M0 0 C2 1 2 1 2 1 Z " fill="#989897" transform="translate(585,234)"/>
<path d="M0 0 C2 1 2 1 2 1 Z " fill="#363635" transform="translate(515,230)"/>
<path d="M0 0 C2 1 2 1 2 1 Z " fill="#979798" transform="translate(558,224)"/>
<path d="M0 0 C2 1 2 1 2 1 Z " fill="#3B3B3A" transform="translate(536,216)"/>
<path d="" fill="#4D4E4D" transform="translate(0,0)"/>
<path d="" fill="#3C3B3A" transform="translate(0,0)"/>
<path d="" fill="#373837" transform="translate(0,0)"/>
<path d="" fill="#3C3C3B" transform="translate(0,0)"/>
<path d="" fill="#3E3C3C" transform="translate(0,0)"/>
<path d="" fill="#3A393B" transform="translate(0,0)"/>
<path d="" fill="#3C3A39" transform="translate(0,0)"/>
<path d="" fill="#3B3B3C" transform="translate(0,0)"/>
<path d="" fill="#FDFDFD" transform="translate(0,0)"/>
<path d="" fill="#FDFDFD" transform="translate(0,0)"/>
<path d="" fill="#393836" transform="translate(0,0)"/>
<path d="" fill="#FDFDFD" transform="translate(0,0)"/>
<path d="" fill="#323331" transform="translate(0,0)"/>
<path d="" fill="#333334" transform="translate(0,0)"/>
<path d="" fill="#373636" transform="translate(0,0)"/>
<path d="" fill="#343131" transform="translate(0,0)"/>
<path d="" fill="#FDFDFD" transform="translate(0,0)"/>
<path d="" fill="#FDFDFD" transform="translate(0,0)"/>
<path d="" fill="#383938" transform="translate(0,0)"/>
<path d="" fill="#363735" transform="translate(0,0)"/>
<path d="" fill="#FDFDFD" transform="translate(0,0)"/>
<path d="" fill="#2F2E31" transform="translate(0,0)"/>
<path d="" fill="#363536" transform="translate(0,0)"/>
<path d="" fill="#383938" transform="translate(0,0)"/>
<path d="" fill="#FDFDFD" transform="translate(0,0)"/>
<path d="" fill="#363636" transform="translate(0,0)"/>
<path d="" fill="#FDFDFD" transform="translate(0,0)"/>
<path d="" fill="#373636" transform="translate(0,0)"/>
<path d="" fill="#363636" transform="translate(0,0)"/>
<path d="" fill="#383537" transform="translate(0,0)"/>
<path d="" fill="#FDFDFD" transform="translate(0,0)"/>
<path d="" fill="#FAFAFA" transform="translate(0,0)"/>
<path d="" fill="#FDFDFD" transform="translate(0,0)"/>
<path d="" fill="#363336" transform="translate(0,0)"/>
<path d="" fill="#363435" transform="translate(0,0)"/>
<path d="" fill="#373335" transform="translate(0,0)"/>
<path d="" fill="#353534" transform="translate(0,0)"/>
<path d="" fill="#383335" transform="translate(0,0)"/>
<path d="" fill="#363434" transform="translate(0,0)"/>
<path d="" fill="#FDFDFD" transform="translate(0,0)"/>
<path d="" fill="#363636" transform="translate(0,0)"/>
<path d="" fill="#383334" transform="translate(0,0)"/>
<path d="" fill="#343434" transform="translate(0,0)"/>
<path d="" fill="#3A3735" transform="translate(0,0)"/>
<path d="" fill="#373736" transform="translate(0,0)"/>
<path d="" fill="#373737" transform="translate(0,0)"/>
<path d="" fill="#373537" transform="translate(0,0)"/>
<path d="" fill="#FDFDFD" transform="translate(0,0)"/>
<path d="" fill="#FDFDFD" transform="translate(0,0)"/>
<path d="" fill="#383939" transform="translate(0,0)"/>
<path d="" fill="#363536" transform="translate(0,0)"/>
<path d="" fill="#363435" transform="translate(0,0)"/>
<path d="" fill="#FDFDFD" transform="translate(0,0)"/>
<path d="" fill="#363633" transform="translate(0,0)"/>
<path d="" fill="#353534" transform="translate(0,0)"/>
<path d="" fill="#363538" transform="translate(0,0)"/>
<path d="" fill="#3A3839" transform="translate(0,0)"/>
<path d="" fill="#FDFDFD" transform="translate(0,0)"/>
<path d="" fill="#363634" transform="translate(0,0)"/>
<path d="" fill="#373735" transform="translate(0,0)"/>
<path d="" fill="#393739" transform="translate(0,0)"/>
<path d="" fill="#333435" transform="translate(0,0)"/>
<path d="" fill="#FDFDFD" transform="translate(0,0)"/>
<path d="" fill="#373638" transform="translate(0,0)"/>
<path d="" fill="#FDFDFD" transform="translate(0,0)"/>
<path d="" fill="#FDFDFD" transform="translate(0,0)"/>
<path d="" fill="#383838" transform="translate(0,0)"/>
<path d="" fill="#F9F9F9" transform="translate(0,0)"/>
<path d="" fill="#333133" transform="translate(0,0)"/>
<path d="" fill="#FDFDFD" transform="translate(0,0)"/>
<path d="" fill="#383637" transform="translate(0,0)"/>
<path d="" fill="#363434" transform="translate(0,0)"/>
<path d="" fill="#383839" transform="translate(0,0)"/>
<path d="" fill="#3B3739" transform="translate(0,0)"/>
<path d="" fill="#373335" transform="translate(0,0)"/>
<path d="" fill="#333435" transform="translate(0,0)"/>
<path d="" fill="#302D2D" transform="translate(0,0)"/>
<path d="" fill="#FDFDFD" transform="translate(0,0)"/>
<path d="" fill="#FDFDFD" transform="translate(0,0)"/>
<path d="" fill="#333335" transform="translate(0,0)"/>
<path d="" fill="#363333" transform="translate(0,0)"/>
<path d="" fill="#353534" transform="translate(0,0)"/>
<path d="" fill="#363432" transform="translate(0,0)"/>
<path d="" fill="#FDFDFD" transform="translate(0,0)"/>
<path d="" fill="#353436" transform="translate(0,0)"/>
<path d="" fill="#373436" transform="translate(0,0)"/>
<path d="" fill="#333431" transform="translate(0,0)"/>
<path d="" fill="#363133" transform="translate(0,0)"/>
<path d="" fill="#343634" transform="translate(0,0)"/>
<path d="" fill="#343334" transform="translate(0,0)"/>
<path d="" fill="#2E2E2F" transform="translate(0,0)"/>
<path d="" fill="#333233" transform="translate(0,0)"/>
<path d="" fill="#393638" transform="translate(0,0)"/>
<path d="" fill="#313031" transform="translate(0,0)"/>
<path d="" fill="#2F2F30" transform="translate(0,0)"/>
<path d="" fill="#373737" transform="translate(0,0)"/>
<path d="" fill="#302E30" transform="translate(0,0)"/>
<path d="" fill="#322F30" transform="translate(0,0)"/>
<path d="" fill="#3C3E3D" transform="translate(0,0)"/>
<path d="" fill="#313030" transform="translate(0,0)"/>
<path d="" fill="#3D3B3C" transform="translate(0,0)"/>
<path d="" fill="#353634" transform="translate(0,0)"/>
<path d="" fill="#312F30" transform="translate(0,0)"/>
<path d="" fill="#353535" transform="translate(0,0)"/>
<path d="" fill="#343132" transform="translate(0,0)"/>
<path d="" fill="#333131" transform="translate(0,0)"/>
<path d="" fill="#3D3A3C" transform="translate(0,0)"/>
<path d="" fill="#3E3C3E" transform="translate(0,0)"/>
<path d="" fill="#302F2F" transform="translate(0,0)"/>
<path d="" fill="#323334" transform="translate(0,0)"/>
<path d="" fill="#313032" transform="translate(0,0)"/>
<path d="" fill="#383637" transform="translate(0,0)"/>
<path d="" fill="#353132" transform="translate(0,0)"/>
<path d="" fill="#363735" transform="translate(0,0)"/>
<path d="" fill="#393738" transform="translate(0,0)"/>
<path d="" fill="#383737" transform="translate(0,0)"/>
<path d="" fill="#373636" transform="translate(0,0)"/>
<path d="" fill="#2F2F2B" transform="translate(0,0)"/>
<path d="" fill="#373737" transform="translate(0,0)"/>
<path d="" fill="#353435" transform="translate(0,0)"/>
<path d="" fill="#373434" transform="translate(0,0)"/>
<path d="" fill="#353335" transform="translate(0,0)"/>
<path d="" fill="#2F2E2E" transform="translate(0,0)"/>
<path d="" fill="#312F32" transform="translate(0,0)"/>
<path d="" fill="#373739" transform="translate(0,0)"/>
<path d="" fill="#2E2C2E" transform="translate(0,0)"/>
<path d="" fill="#353537" transform="translate(0,0)"/>
<path d="" fill="#312E2E" transform="translate(0,0)"/>
<path d="" fill="#313231" transform="translate(0,0)"/>
<path d="" fill="#303030" transform="translate(0,0)"/>
<path d="" fill="#333131" transform="translate(0,0)"/>
<path d="" fill="#333335" transform="translate(0,0)"/>
<path d="" fill="#383739" transform="translate(0,0)"/>
<path d="" fill="#373538" transform="translate(0,0)"/>
<path d="" fill="#353335" transform="translate(0,0)"/>
<path d="" fill="#38393A" transform="translate(0,0)"/>
<path d="" fill="#383838" transform="translate(0,0)"/>
<path d="" fill="#2F2E2F" transform="translate(0,0)"/>
<path d="" fill="#373738" transform="translate(0,0)"/>
<path d="" fill="#353433" transform="translate(0,0)"/>
<path d="" fill="#3A393B" transform="translate(0,0)"/>
<path d="" fill="#333333" transform="translate(0,0)"/>
<path d="" fill="#353235" transform="translate(0,0)"/>
<path d="" fill="#343235" transform="translate(0,0)"/>
<path d="" fill="#393838" transform="translate(0,0)"/>
<path d="" fill="#363535" transform="translate(0,0)"/>
<path d="" fill="#363636" transform="translate(0,0)"/>
<path d="" fill="#333232" transform="translate(0,0)"/>
<path d="" fill="#333132" transform="translate(0,0)"/>
<path d="" fill="#2F312F" transform="translate(0,0)"/>
<path d="" fill="#39393A" transform="translate(0,0)"/>
<path d="" fill="#393637" transform="translate(0,0)"/>
<path d="" fill="#343432" transform="translate(0,0)"/>
<path d="" fill="#3B393B" transform="translate(0,0)"/>
<path d="" fill="#363736" transform="translate(0,0)"/>
<path d="" fill="#39393A" transform="translate(0,0)"/>
<path d="" fill="#3B3939" transform="translate(0,0)"/>
<path d="" fill="#343331" transform="translate(0,0)"/>
<path d="" fill="#393939" transform="translate(0,0)"/>
<path d="" fill="#373838" transform="translate(0,0)"/>
<path d="" fill="#363436" transform="translate(0,0)"/>
<path d="" fill="#393434" transform="translate(0,0)"/>
<path d="" fill="#39383A" transform="translate(0,0)"/>
<path d="" fill="#353334" transform="translate(0,0)"/>
<path d="" fill="#383436" transform="translate(0,0)"/>
<path d="" fill="#312E30" transform="translate(0,0)"/>
<path d="" fill="#383636" transform="translate(0,0)"/>
<path d="" fill="#393637" transform="translate(0,0)"/>
<path d="" fill="#323134" transform="translate(0,0)"/>
<path d="" fill="#363535" transform="translate(0,0)"/>
<path d="" fill="#3A3938" transform="translate(0,0)"/>
<path d="" fill="#373839" transform="translate(0,0)"/>
<path d="" fill="#3B3738" transform="translate(0,0)"/>
<path d="" fill="#3A3736" transform="translate(0,0)"/>
<path d="" fill="#393838" transform="translate(0,0)"/>
<path d="" fill="#313231" transform="translate(0,0)"/>
<path d="" fill="#383839" transform="translate(0,0)"/>
<path d="" fill="#363534" transform="translate(0,0)"/>
<path d="" fill="#302F30" transform="translate(0,0)"/>
<path d="" fill="#303030" transform="translate(0,0)"/>
<path d="" fill="#333132" transform="translate(0,0)"/>
<path d="" fill="#363536" transform="translate(0,0)"/>
<path d="" fill="#353434" transform="translate(0,0)"/>
<path d="" fill="#393837" transform="translate(0,0)"/>
<path d="" fill="#333132" transform="translate(0,0)"/>
<path d="" fill="#393A39" transform="translate(0,0)"/>
<path d="" fill="#302E31" transform="translate(0,0)"/>
<path d="" fill="#353234" transform="translate(0,0)"/>
<path d="" fill="#353532" transform="translate(0,0)"/>
<path d="" fill="#343233" transform="translate(0,0)"/>
<path d="" fill="#363535" transform="translate(0,0)"/>
<path d="" fill="#383739" transform="translate(0,0)"/>
<path d="" fill="#333333" transform="translate(0,0)"/>
<path d="" fill="#363535" transform="translate(0,0)"/>
<path d="" fill="#323334" transform="translate(0,0)"/>
<path d="" fill="#3A3838" transform="translate(0,0)"/>
<path d="" fill="#303230" transform="translate(0,0)"/>
<path d="" fill="#323331" transform="translate(0,0)"/>
<path d="" fill="#323133" transform="translate(0,0)"/>
<path d="" fill="#353333" transform="translate(0,0)"/>
<path d="" fill="#3A3938" transform="translate(0,0)"/>
<path d="" fill="#323330" transform="translate(0,0)"/>
<path d="" fill="#373534" transform="translate(0,0)"/>
<path d="" fill="#FDFDFD" transform="translate(0,0)"/>
<path d="" fill="#333331" transform="translate(0,0)"/>
<path d="" fill="#2F2F30" transform="translate(0,0)"/>
<path d="" fill="#333032" transform="translate(0,0)"/>
<path d="" fill="#353636" transform="translate(0,0)"/>
<path d="" fill="#313333" transform="translate(0,0)"/>
<path d="" fill="#333333" transform="translate(0,0)"/>
<path d="" fill="#373738" transform="translate(0,0)"/>
<path d="" fill="#383537" transform="translate(0,0)"/>
<path d="" fill="#3B3A39" transform="translate(0,0)"/>
<path d="" fill="#363736" transform="translate(0,0)"/>
<path d="" fill="#353533" transform="translate(0,0)"/>
<path d="" fill="#303032" transform="translate(0,0)"/>
<path d="" fill="#302D2E" transform="translate(0,0)"/>
<path d="" fill="#333134" transform="translate(0,0)"/>
<path d="" fill="#2F2B2C" transform="translate(0,0)"/>
<path d="" fill="#313132" transform="translate(0,0)"/>
<path d="" fill="#353235" transform="translate(0,0)"/>
<path d="" fill="#333234" transform="translate(0,0)"/>
<path d="" fill="#2F2E2E" transform="translate(0,0)"/>
<path d="" fill="#323331" transform="translate(0,0)"/>
<path d="" fill="#373738" transform="translate(0,0)"/>
<path d="" fill="#343033" transform="translate(0,0)"/>
<path d="" fill="#333132" transform="translate(0,0)"/>
<path d="" fill="#343133" transform="translate(0,0)"/>
<path d="" fill="#FAFAFA" transform="translate(0,0)"/>
<path d="" fill="#FAFAFA" transform="translate(0,0)"/>
<path d="" fill="#333231" transform="translate(0,0)"/>
<path d="" fill="#322E30" transform="translate(0,0)"/>
<path d="" fill="#383938" transform="translate(0,0)"/>
<path d="" fill="#FDFDFD" transform="translate(0,0)"/>
<path d="" fill="#383537" transform="translate(0,0)"/>
<path d="" fill="#37363A" transform="translate(0,0)"/>
<path d="" fill="#332E2F" transform="translate(0,0)"/>
<path d="" fill="#363637" transform="translate(0,0)"/>
<path d="" fill="#FDFDFD" transform="translate(0,0)"/>
<path d="" fill="#353534" transform="translate(0,0)"/>
<path d="" fill="#383737" transform="translate(0,0)"/>
<path d="" fill="#383537" transform="translate(0,0)"/>
<path d="" fill="#363536" transform="translate(0,0)"/>
<path d="" fill="#333435" transform="translate(0,0)"/>
<path d="" fill="#322F31" transform="translate(0,0)"/>
<path d="" fill="#323032" transform="translate(0,0)"/>
<path d="" fill="#343333" transform="translate(0,0)"/>
<path d="" fill="#373435" transform="translate(0,0)"/>
<path d="" fill="#373636" transform="translate(0,0)"/>
<path d="" fill="#31302F" transform="translate(0,0)"/>
<path d="" fill="#302F2D" transform="translate(0,0)"/>
<path d="" fill="#312F2E" transform="translate(0,0)"/>
<path d="" fill="#363737" transform="translate(0,0)"/>
<path d="" fill="#323132" transform="translate(0,0)"/>
<path d="" fill="#FDFDFD" transform="translate(0,0)"/>
<path d="" fill="#333232" transform="translate(0,0)"/>
<path d="" fill="#FDFDFD" transform="translate(0,0)"/>
<path d="" fill="#373335" transform="translate(0,0)"/>
<path d="" fill="#2F2D2E" transform="translate(0,0)"/>
<path d="" fill="#363434" transform="translate(0,0)"/>
<path d="" fill="#313031" transform="translate(0,0)"/>
<path d="" fill="#313030" transform="translate(0,0)"/>
<path d="" fill="#302D2E" transform="translate(0,0)"/>
<path d="" fill="#363636" transform="translate(0,0)"/>
<path d="" fill="#323131" transform="translate(0,0)"/>
<path d="" fill="#FDFDFD" transform="translate(0,0)"/>
<path d="" fill="#323232" transform="translate(0,0)"/>
<path d="" fill="#302F30" transform="translate(0,0)"/>
<path d="" fill="#353434" transform="translate(0,0)"/>
<path d="" fill="#323333" transform="translate(0,0)"/>
<path d="" fill="#343335" transform="translate(0,0)"/>
<path d="" fill="#323434" transform="translate(0,0)"/>
<path d="" fill="#323233" transform="translate(0,0)"/>
<path d="" fill="#323331" transform="translate(0,0)"/>
<path d="" fill="#373634" transform="translate(0,0)"/>
<path d="" fill="#343336" transform="translate(0,0)"/>
<path d="" fill="#373837" transform="translate(0,0)"/>
<path d="" fill="#363636" transform="translate(0,0)"/>
<path d="" fill="#383636" transform="translate(0,0)"/>
<path d="" fill="#FDFDFD" transform="translate(0,0)"/>
<path d="" fill="#363534" transform="translate(0,0)"/>
<path d="" fill="#302F30" transform="translate(0,0)"/>
<path d="" fill="#353634" transform="translate(0,0)"/>
<path d="" fill="#353332" transform="translate(0,0)"/>
<path d="" fill="#303332" transform="translate(0,0)"/>
<path d="" fill="#32312E" transform="translate(0,0)"/>
<path d="" fill="#333335" transform="translate(0,0)"/>
<path d="" fill="#302F2F" transform="translate(0,0)"/>
<path d="" fill="#373434" transform="translate(0,0)"/>
<path d="" fill="#373735" transform="translate(0,0)"/>
<path d="" fill="#323031" transform="translate(0,0)"/>
<path d="" fill="#303030" transform="translate(0,0)"/>
<path d="" fill="#353737" transform="translate(0,0)"/>
<path d="" fill="#343233" transform="translate(0,0)"/>
<path d="" fill="#FDFDFD" transform="translate(0,0)"/>
<path d="" fill="#FDFDFD" transform="translate(0,0)"/>
<path d="" fill="#343434" transform="translate(0,0)"/>
<path d="" fill="#373633" transform="translate(0,0)"/>
<path d="" fill="#343736" transform="translate(0,0)"/>
<path d="" fill="#FDFDFD" transform="translate(0,0)"/>
<path d="" fill="#373535" transform="translate(0,0)"/>
<path d="" fill="#FDFDFD" transform="translate(0,0)"/>
<path d="" fill="#373636" transform="translate(0,0)"/>
<path d="" fill="#343635" transform="translate(0,0)"/>
<path d="" fill="#373836" transform="translate(0,0)"/>
<path d="" fill="#353536" transform="translate(0,0)"/>
<path d="" fill="#363837" transform="translate(0,0)"/>
<path d="" fill="#363336" transform="translate(0,0)"/>
<path d="" fill="#FDFDFD" transform="translate(0,0)"/>
<path d="" fill="#FDFDFD" transform="translate(0,0)"/>
<path d="" fill="#353533" transform="translate(0,0)"/>
<path d="" fill="#373836" transform="translate(0,0)"/>
<path d="" fill="#343434" transform="translate(0,0)"/>
<path d="" fill="#353334" transform="translate(0,0)"/>
<path d="" fill="#343432" transform="translate(0,0)"/>
<path d="" fill="#353432" transform="translate(0,0)"/>
<path d="" fill="#FDFDFD" transform="translate(0,0)"/>
<path d="" fill="#363637" transform="translate(0,0)"/>
<path d="" fill="#353534" transform="translate(0,0)"/>
<path d="" fill="#333132" transform="translate(0,0)"/>
<path d="" fill="#353435" transform="translate(0,0)"/>
<path d="" fill="#313234" transform="translate(0,0)"/>
<path d="" fill="#FDFDFD" transform="translate(0,0)"/>
<path d="" fill="#3A3A3B" transform="translate(0,0)"/>
<path d="" fill="#333333" transform="translate(0,0)"/>
<path d="" fill="#363536" transform="translate(0,0)"/>
<path d="" fill="#333333" transform="translate(0,0)"/>
<path d="" fill="#373837" transform="translate(0,0)"/>
<path d="" fill="#383535" transform="translate(0,0)"/>
<path d="" fill="#3A3937" transform="translate(0,0)"/>
<path d="" fill="#373536" transform="translate(0,0)"/>
<path d="" fill="#383433" transform="translate(0,0)"/>
<path d="" fill="#383638" transform="translate(0,0)"/>
<path d="" fill="#393739" transform="translate(0,0)"/>
<path d="" fill="#343032" transform="translate(0,0)"/>
<path d="" fill="#FDFDFD" transform="translate(0,0)"/>
<path d="" fill="#FDFDFD" transform="translate(0,0)"/>
<path d="" fill="#FDFDFD" transform="translate(0,0)"/>
<path d="" fill="#323433" transform="translate(0,0)"/>
<path d="" fill="#383837" transform="translate(0,0)"/>
<path d="" fill="#373737" transform="translate(0,0)"/>
<path d="" fill="#363433" transform="translate(0,0)"/>
<path d="" fill="#343434" transform="translate(0,0)"/>
<path d="" fill="#343334" transform="translate(0,0)"/>
<path d="" fill="#343231" transform="translate(0,0)"/>
<path d="" fill="#FDFDFD" transform="translate(0,0)"/>
<path d="" fill="#363332" transform="translate(0,0)"/>
<path d="" fill="#313031" transform="translate(0,0)"/>
<path d="" fill="#312D2E" transform="translate(0,0)"/>
<path d="" fill="#3A383B" transform="translate(0,0)"/>
<path d="" fill="#343334" transform="translate(0,0)"/>
<path d="" fill="#3E3C3C" transform="translate(0,0)"/>
<path d="" fill="#363534" transform="translate(0,0)"/>
<path d="" fill="#383535" transform="translate(0,0)"/>
<path d="" fill="#363636" transform="translate(0,0)"/>
<path d="" fill="#373535" transform="translate(0,0)"/>
<path d="" fill="#FDFDFD" transform="translate(0,0)"/>
<path d="" fill="#3B3B3A" transform="translate(0,0)"/>
<path d="" fill="#FDFDFD" transform="translate(0,0)"/>
<path d="" fill="#333433" transform="translate(0,0)"/>
<path d="" fill="#393535" transform="translate(0,0)"/>
<path d="" fill="#3A3837" transform="translate(0,0)"/>
<path d="" fill="#FDFDFD" transform="translate(0,0)"/>
<path d="" fill="#3C3C3D" transform="translate(0,0)"/>
<path d="" fill="#393838" transform="translate(0,0)"/>
<path d="" fill="#343535" transform="translate(0,0)"/>
<path d="" fill="#FDFDFD" transform="translate(0,0)"/>
<path d="" fill="#3C3A3B" transform="translate(0,0)"/>
<path d="" fill="#393839" transform="translate(0,0)"/>
<path d="" fill="#3A3837" transform="translate(0,0)"/>
<path d="" fill="#383838" transform="translate(0,0)"/>
<path d="" fill="#3C3A3B" transform="translate(0,0)"/>
<path d="" fill="#3C3B3B" transform="translate(0,0)"/>
<path d="" fill="#373535" transform="translate(0,0)"/>
<path d="" fill="#3A3A39" transform="translate(0,0)"/>
<path d="" fill="#3A3A38" transform="translate(0,0)"/>
<path d="" fill="#353534" transform="translate(0,0)"/>
<path d="" fill="#383836" transform="translate(0,0)"/>
<path d="" fill="#FDFDFD" transform="translate(0,0)"/>
<path d="" fill="#FDFDFD" transform="translate(0,0)"/>
<path d="" fill="#3A3B3B" transform="translate(0,0)"/>
<path d="" fill="#353937" transform="translate(0,0)"/>
<path d="" fill="#373535" transform="translate(0,0)"/>
<path d="" fill="#353535" transform="translate(0,0)"/>
<path d="" fill="#373537" transform="translate(0,0)"/>
<path d="" fill="#383638" transform="translate(0,0)"/>
<path d="" fill="#FDFDFD" transform="translate(0,0)"/>
<path d="" fill="#FDFDFD" transform="translate(0,0)"/>
<path d="" fill="#373838" transform="translate(0,0)"/>
<path d="" fill="#3C3736" transform="translate(0,0)"/>
<path d="" fill="#313132" transform="translate(0,0)"/>
<path d="" fill="#383535" transform="translate(0,0)"/>
<path d="" fill="#3A3839" transform="translate(0,0)"/>
<path d="" fill="#FDFDFD" transform="translate(0,0)"/>
<path d="" fill="#383737" transform="translate(0,0)"/>
<path d="" fill="#3A3838" transform="translate(0,0)"/>
<path d="" fill="#3B3638" transform="translate(0,0)"/>
<path d="" fill="#373635" transform="translate(0,0)"/>
<path d="" fill="#393738" transform="translate(0,0)"/>
<path d="" fill="#FAFAFA" transform="translate(0,0)"/>
<path d="" fill="#38393A" transform="translate(0,0)"/>
<path d="" fill="#FDFDFD" transform="translate(0,0)"/>
<path d="" fill="#363535" transform="translate(0,0)"/>
<path d="" fill="#363434" transform="translate(0,0)"/>
<path d="" fill="#3A3937" transform="translate(0,0)"/>
<path d="" fill="#333232" transform="translate(0,0)"/>
<path d="" fill="#363337" transform="translate(0,0)"/>
<path d="" fill="#3A3939" transform="translate(0,0)"/>
<path d="" fill="#343234" transform="translate(0,0)"/>
<path d="" fill="#363435" transform="translate(0,0)"/>
<path d="" fill="#343333" transform="translate(0,0)"/>
<path d="" fill="#FDFDFD" transform="translate(0,0)"/>
<path d="" fill="#3A383A" transform="translate(0,0)"/>
<path d="" fill="#363837" transform="translate(0,0)"/>
<path d="" fill="#393939" transform="translate(0,0)"/>
<path d="" fill="#383435" transform="translate(0,0)"/>
<path d="" fill="#3A3B3C" transform="translate(0,0)"/>
<path d="" fill="#383939" transform="translate(0,0)"/>
<path d="" fill="#FDFDFD" transform="translate(0,0)"/>
<path d="" fill="#393737" transform="translate(0,0)"/>
<path d="" fill="#3A3A36" transform="translate(0,0)"/>
<path d="" fill="#3B3A3A" transform="translate(0,0)"/>
<path d="" fill="#3C3C3C" transform="translate(0,0)"/>
</svg>
